<?xml version="1.0" encoding="utf-8"?>
<!-- Generator: Adobe Illustrator 16.0.0, SVG Export Plug-In . SVG Version: 6.00 Build 0)  -->
<!DOCTYPE svg PUBLIC "-//W3C//DTD SVG 1.1//EN" "http://www.w3.org/Graphics/SVG/1.1/DTD/svg11.dtd">
<svg version="1.1" id="レイヤー_1" xmlns="http://www.w3.org/2000/svg" xmlns:xlink="http://www.w3.org/1999/xlink" x="0px"
	 y="0px" width="575.971px" height="498.719px" viewBox="0 0 575.971 498.719" enable-background="new 0 0 575.971 498.719"
	 xml:space="preserve">
<g>
	<g>
		<path fill="#FFFFFF" d="M50.102,393.721c-1.19,0.411-1.421,1.272-1.646,2.143c-0.911,3.514-1.862,7.017-2.726,10.54
			c-0.645,2.64-1.153,5.312-1.768,7.957c-0.322,1.39-1.413,1.732-2.381,0.676c-0.511-0.557-0.811-1.385-1-2.142
			c-1.172-4.662-2.28-9.34-3.433-14.006c-0.054-0.216-0.317-0.38-0.847-0.976c-2.047,11.798-2.865,23.344-3.854,34.835
			c-0.994,11.537-1.335,23.146-0.254,34.726c-2.373,0.125-2.46,0.129-2.542-1.832c-0.19-4.534-0.497-9.078-0.382-13.607
			c0.211-8.256,0.367-16.535,1.143-24.749c1.032-10.928,2.643-21.801,3.982-32.699c0.178-1.441,0.256-2.896,0.32-4.348
			c0.038-0.873,0.087-1.695,1.203-1.771c1.059-0.073,1.732,0.45,1.939,1.497c0.299,1.514,0.521,3.043,0.854,4.549
			c0.915,4.168,1.864,8.329,2.818,12.489c0.075,0.326,0.296,0.62,0.692,1.424c0.829-1.711,1.147-3.153,1.519-4.567
			c1.329-5.084,2.575-10.188,4.604-15.067c0.485-1.167,1.023-1.93,2.324-1.757c1.295,0.172,1.389,1.214,1.483,2.251
			c0.6,6.417,1.34,12.825,1.796,19.253c0.784,11.048,1.554,22.102,2.014,33.166c0.229,5.516-0.209,11.061-0.406,16.589
			c-0.12,3.354-0.346,6.706-0.54,10.058c-0.049,0.841-0.178,1.679-1.26,1.8c-1.056,0.119-1.749-0.647-1.656-1.921
			c0.178-2.444,0.427-4.883,0.613-7.327c0.852-11.165,0.732-22.341,0.085-33.502c-0.628-10.786-1.55-21.556-2.356-32.331
			C50.411,394.662,50.242,394.261,50.102,393.721z"/>
		<path fill="#FFFFFF" d="M469.234,445.883c0.808-3.941,1.644-7.876,2.412-11.825c0.518-2.66,0.883-5.354,1.458-8
			c0.12-0.554,0.786-1.229,1.336-1.393c0.821-0.242,1.649,0.163,1.831,1.156c0.721,3.922,1.489,7.838,2.088,11.78
			c0.848,5.585,2.189,11.036,4.08,16.354c0.143,0.401,0.402,0.762,1.139,1.125c0.359-2.749,0.731-5.494,1.071-8.244
			c0.133-1.079,0.19-2.168,0.282-3.253c0.392-4.664,0.766-9.331,1.182-13.993c0.234-2.62,0.575-5.229,0.795-7.85
			c0.099-1.147-0.005-2.312,0.015-3.468c0.087-5.861,0.552-11.685,1.445-17.486c0.354-2.294,0.277-4.662,0.29-6.998
			c0.004-1.066,0.177-1.876,1.416-1.792c1.086,0.074,1.166,0.835,1.091,1.779c-0.5,6.239-0.969,12.48-1.404,18.726
			c-0.33,4.707-0.529,9.424-0.907,14.126c-0.611,7.602-1.286,15.197-2.002,22.791c-0.398,4.237-0.982,8.458-1.372,12.697
			c-0.1,1.078-0.395,1.871-1.483,1.846c-0.956-0.024-1.994-0.232-2.324-1.473c-1.708-6.389-3.522-12.75-5.121-19.165
			c-0.696-2.793-0.966-5.692-1.525-9.129c-0.511,0.865-0.866,1.223-0.94,1.631c-1.406,7.494-2.788,14.991-4.142,22.495
			c-0.143,0.79-0.137,1.62-0.096,2.425c0.104,1.98-0.526,2.445-2.368,1.646c-0.322-0.14-0.586-0.416-0.874-0.626
			c-0.219-7.639-0.532-15.236-0.615-22.837c-0.037-3.438,0.445-6.875,0.578-10.318c0.23-5.982,0.31-11.973,0.58-17.955
			c0.146-3.246,0.497-6.486,0.876-9.716c0.25-2.129-0.5-4.318,0.434-6.398c0.185-0.407,0.146-0.962,0.412-1.271
			c0.247-0.286,0.813-0.517,1.157-0.433c0.33,0.082,0.651,0.558,0.796,0.931c0.117,0.303-0.042,0.708-0.067,1.07
			c-0.391,5.15-0.914,10.295-1.137,15.454c-0.385,8.983-0.604,17.976-0.849,26.966c-0.077,2.854-0.012,5.712-0.012,8.568
			C468.915,445.847,469.073,445.865,469.234,445.883z"/>
		<path fill="#FFFFFF" d="M427.176,428.987c0.747,1.204,1.553,2.2,2.031,3.333c2.02,4.754,3.96,9.543,5.886,14.336
			c0.743,1.853,1.319,3.771,2.076,5.615c0.327,0.799,0.917,1.491,1.507,2.418c0.882-0.758,1.465-1.489,2.223-1.839
			c0.643-0.297,1.767-0.485,2.187-0.134c0.822,0.689,0.354,1.614-0.341,2.342c-2.757,2.888-6.851,2.002-8.247-1.802
			c-1.812-4.939-3.576-9.896-5.436-14.815c-0.665-1.762-1.544-3.443-2.403-5.33c-1.053,0.773-1.019,1.714-1.041,2.555
			c-0.125,4.712-0.188,9.424-0.299,14.136c-0.089,3.804-0.231,7.604-0.312,11.409c-0.062,2.895-0.186,5.766,0.631,8.644
			c0.422,1.491,0.074,3.2,0.074,5.188c-1.238-0.142-2.137-0.243-3.206-0.364c-0.138-5.781-0.452-11.304-0.354-16.816
			c0.157-8.886,0.62-17.767,0.864-26.651c0.038-1.367-0.392-2.748-0.671-4.555c0.982-0.89,1.042-2.602,1.103-4.312
			c0.167-4.616,0.211-9.242,0.532-13.849c0.326-4.688,0.885-9.361,1.425-14.031c0.196-1.703,0.629-3.379,0.961-5.066
			c0.183-0.926,0.79-1.281,1.686-1.51c0.839-0.216,1.761-0.577,2.366-1.164c2.888-2.801,7.534-2.569,10.555,1.678
			c3.209,4.51,4.133,9.575,3.449,15.011c-1.023,8.138-4.723,14.972-10.135,20.978c-1.475,1.637-3.122,3.027-5.316,3.646
			C428.394,428.196,427.888,428.599,427.176,428.987z M426.198,426.155c2.178-0.269,3.278-0.717,4.493-1.925
			c6.583-6.551,10.742-14.3,11.296-23.692c0.236-4.042-0.434-7.944-3.031-11.307c-2.126-2.752-5.041-3.142-7.386-0.666
			c-1.999,2.112-3.604,4.51-3.854,7.582c-0.476,5.783-1.145,11.554-1.473,17.344C426.009,417.63,426.198,421.793,426.198,426.155z"
			/>
		<path fill="#FFFFFF" d="M536.83,444.477c0.338-9.248,0.797-18.495,0.966-27.746c0.101-5.438-0.294-10.884-0.388-16.328
			c-0.035-2.079,0.193-4.161,0.225-6.243c0.018-1.162,0.143-2.427,1.376-2.639c1.044-0.179,2.499-0.036,3.261,0.587
			c2.607,2.137,4.744,4.691,5.988,7.952c1.893,4.96,2.932,10.092,3.601,15.33c0.873,6.842,1.9,13.668,0.778,20.592
			c-1.338,8.252-2.676,16.52-6.768,23.961c-1.295,2.355-3.136,4.412-4.751,6.588c-0.797,1.075-1.858,1.394-3.132,0.923
			c-1.335-0.493-1.593-1.543-1.588-2.834c0.028-6.715,0.014-13.431,0.014-20.146C536.552,444.475,536.692,444.476,536.83,444.477z
			 M540.706,393.438c-0.255,1.728-0.574,2.853-0.561,3.974c0.088,7.257,0.437,14.515,0.335,21.767
			c-0.124,8.702-0.62,17.397-0.936,26.098c-0.175,4.806-0.333,9.612-0.44,14.419c-0.029,1.365-0.218,2.812,0.661,4.131
			c1.903-1.752,3.727-4.876,4.974-7.902c2.58-6.264,3.771-12.868,4.927-19.479c0.671-3.846,0.999-7.729,0.48-11.646
			c-0.298-2.247-0.423-4.516-0.669-6.77c-0.608-5.593-1.271-11.191-3.283-16.487c-0.794-2.092-1.996-4.043-3.149-5.976
			C542.625,394.867,541.802,394.411,540.706,393.438z"/>
		<path fill="#FFFFFF" d="M127.543,390.127c-1.231,4.576-1.229,9.123-1.119,13.647c0.18,7.438,0.559,14.869,0.858,22.396
			c3.584,1.454,7.642-0.997,11.437,1.175c-1.876,1.829-3.875,1.011-5.67,1.164c-1.874,0.16-3.763,0.152-5.848,0.227
			c-0.161,2.338-0.445,4.404-0.423,6.466c0.13,11.076,0.33,22.151,0.518,33.227c0.019,1.088,0.172,2.175,0.145,3.26
			c-0.021,0.87-0.373,1.642-1.423,1.652c-1.113,0.01-1.604-0.579-1.597-1.718c0.038-4.087,0.069-8.176,0.032-12.263
			c-0.085-9.353-0.208-18.705-0.331-28.058c-0.01-0.703-0.128-1.406-0.214-2.299c-2.998-0.385-5.882-0.173-8.757-0.028
			c-1.996,0.101-3.983,0.371-5.979,0.418c-2.299,0.056-3.008-1.142-2.158-3.285c1.872-4.725,3.678-9.477,5.559-14.198
			c2.895-7.266,6.37-14.24,10.524-20.876C124.486,388.813,124.963,388.65,127.543,390.127z M110.41,427.093
			c4.497,0.277,8.962-0.204,13.356-0.503c0.879-2.7,0.543-27.175-0.343-30.082C120.021,399.869,110.399,422.267,110.41,427.093z"/>
		<path fill="#FFFFFF" d="M532.104,410.938c0.233,4.708,0.747,9.42,0.632,14.119c-0.17,6.978-0.724,13.949-1.235,20.915
			c-0.221,2.974-0.645,5.942-1.162,8.88c-0.81,4.585-3.857,6.611-8.491,5.649c-1.754-0.364-3.521-0.909-5.123-1.697
			c-1.799-0.885-2.87-2.461-2.828-4.608c0.097-4.98,0.185-9.962,0.266-14.942c0.053-3.165,0.188-6.334,0.104-9.496
			c-0.238-9.017,0.217-17.958,2.565-26.718c0.373-1.393,0.93-2.745,1.486-4.081c1.683-4.024,5.815-5.321,9.592-3.041
			c0.312,0.188,0.595,0.454,0.93,0.562c2.437,0.774,2.942,2.751,3.069,4.932c0.096,1.63,0.111,3.266,0.133,4.899
			c0.021,1.541,0.006,3.083,0.006,4.624C532.066,410.935,532.086,410.937,532.104,410.938z M529.361,408.23
			c-0.039,0.001-0.076,0.002-0.114,0.002c0-0.726,0.047-1.456-0.01-2.177c-0.146-1.898-0.202-3.817-0.55-5.681
			c-0.345-1.861-1.651-2.95-3.533-3.321c-1.848-0.365-2.956,0.651-3.73,2.088c-0.729,1.352-1.436,2.749-1.901,4.205
			c-1.649,5.141-2.072,10.479-2.339,15.833c-0.442,8.878,0.483,17.774-0.486,26.657c-0.302,2.762,0.092,5.609,0.272,8.411
			c0.122,1.9,1.209,3.204,2.995,3.846c0.935,0.335,1.903,0.609,2.881,0.777c1.997,0.347,3.427-0.315,4.163-2.184
			c0.592-1.502,1.06-3.123,1.194-4.723c0.644-7.593,1.42-15.188,1.628-22.796C530.021,422.199,529.544,415.212,529.361,408.23z"/>
		<path fill="#FFFFFF" d="M63.322,424.979c-0.229,9.916-0.452,19.493-0.676,29.055c-2.261,0.18-2.334,0.18-2.321-1.731
			c0.024-4.084,0.117-8.169,0.219-12.252c0.104-4.264,0.177-8.53,0.392-12.789c0.456-9.062,0.96-18.119,1.524-27.174
			c0.153-2.505,1.303-4.925,0.578-7.531c-0.083-0.301,0.625-1.044,1.104-1.234c0.968-0.382,1.84,0.062,2.249,0.991
			c0.322,0.729,0.348,1.585,0.58,2.363c2.688,9,4.04,18.276,5.007,27.559c1.108,10.639,1.621,21.349,2.113,32.042
			c0.242,5.24-0.136,10.511-0.26,15.768c-0.017,0.623-0.032,1.361-0.359,1.829c-0.294,0.421-1.074,0.812-1.532,0.715
			c-0.434-0.093-0.771-0.812-1.059-1.312c-0.106-0.185,0.054-0.526,0.101-0.794c0.849-4.869,0.678-9.764,0.441-14.67
			c-0.331-6.894-0.549-13.79-0.869-20.683c-0.117-2.538-0.354-5.071-0.595-7.603c-0.215-2.251-0.61-2.62-2.881-2.702
			C66.006,424.787,64.929,424.907,63.322,424.979z M63.349,422.389c2.103,0.322,3.907,0.599,5.828,0.894
			c0.079-0.627,0.204-0.985,0.155-1.319c-1.026-6.991-2.062-13.983-3.141-20.967c-0.074-0.49-0.513-0.926-0.781-1.387
			c-0.135,0.049-0.271,0.099-0.403,0.147C64.459,407.219,63.913,414.682,63.349,422.389z"/>
		<path fill="#FFFFFF" d="M493.291,433.849c0.105-10.152,0.289-20.326,2.727-30.271c0.387-1.578,0.875-3.149,1.507-4.646
			c1.781-4.227,5.876-5.196,9.762-4.315c1.552,0.352,2.466,1.346,2.642,3.042c0.568,5.496,1.401,10.973,1.769,16.48
			c0.373,5.606,0.482,11.246,0.394,16.866c-0.091,5.621-0.45,11.247-0.918,16.851c-0.283,3.392-1.529,6.476-3.865,9.113
			c-4.091,4.615-10.003,2.712-12.166-2.113c-1.373-3.06-1.585-6.337-1.79-9.568C493.109,441.487,493.291,437.662,493.291,433.849z
			 M509.728,427.011c-0.668-8.435-1.381-17.477-2.108-26.519c-0.051-0.625-0.146-1.265-0.35-1.854
			c-0.78-2.289-3.081-3.051-4.938-1.51c-0.87,0.723-1.561,1.768-2.075,2.794c-1.7,3.377-2.355,7.062-2.739,10.771
			c-0.6,5.781-1.187,11.568-1.548,17.367c-0.458,7.355-0.223,14.711,0.647,22.04c0.251,2.13,0.964,4.079,2.164,5.813
			c1.755,2.538,3.693,2.658,5.851,0.466c2.415-2.458,3.49-5.585,3.777-8.866C508.989,440.914,509.278,434.288,509.728,427.011z"/>
		<path fill="#FFFFFF" d="M376.452,437.562c-0.89,3.248-0.531,6.32-0.64,9.346c-0.111,3.179-0.203,6.357-0.212,9.537
			c-0.008,3.086,0.247,6.18,0.116,9.258c-0.13,3.024,0.938,6.08-0.068,9.438c-1.055-0.402-1.85-0.705-2.428-0.925
			c0-6.539-0.015-12.781,0.006-19.023c0.017-4.622,0.053-9.244,0.134-13.865c0.029-1.626,0.355-3.255,0.289-4.873
			c-0.072-1.779-0.651-3.551-0.625-5.319c0.025-1.688,0.55-3.369,0.85-5.054c0.206-1.151,0.425-2.302,0.601-3.459
			c0.15-0.982,0.548-2.049,0.32-2.946c-1.013-4.008,0.452-7.956,0.133-11.938c-0.054-0.665,0.413-1.365,0.618-2.055
			c0.149-0.508,0.428-1.046,0.37-1.539c-0.389-3.304,0.301-6.458,1.102-9.626c0.346-1.374,0.352-2.833,0.519-4.319
			c1.795-0.587,2.365-0.156,2.034,1.71c-0.583,3.306-1.383,6.586-1.721,9.916c-0.626,6.141-0.99,12.308-1.436,18.464
			c-0.045,0.612,0.104,1.237,0.183,2.045c1.153-0.341,1.729-1.026,2.188-1.937c1.382-2.741,2.819-5.454,4.212-8.191
			c0.316-0.627,0.535-1.306,0.796-1.961c0.371-0.926,0.634-1.913,1.126-2.768c1.621-2.812,3.354-5.562,4.982-8.369
			c0.67-1.155,1.181-2.401,1.946-3.985c0.609,0.082,1.463,0.196,2.763,0.37c-1.196,2.093-2.208,3.688-3.054,5.366
			c-4.613,9.161-9.19,18.34-13.766,27.521c-1.223,2.448-1.188,4.704,0.44,7.137c4.745,7.086,9.284,14.308,13.922,21.467
			c0.491,0.758,1.135,1.418,1.63,2.175c0.365,0.562,0.604,1.206,0.99,1.998c-1.835,0.475-2.938-0.019-3.75-1.297
			c-2.433-3.833-4.861-7.668-7.298-11.499c-2.095-3.292-4.191-6.582-6.307-9.861C377.239,438.214,376.928,438.013,376.452,437.562z"
			/>
		<path fill="#FFFFFF" d="M455.004,422.919c-2.558-0.455-4.611,0.759-7.041,0.98c-1.479,5.943-2.269,11.918-2.352,18.409
			c-1.066-0.234-1.929-0.423-3.062-0.672c0.835-5.796,1.596-11.33,2.45-16.851c0.22-1.425,0.739-2.803,1.104-4.207
			c0.522-2.007,0.913-4.059,1.571-6.02c0.719-2.144,1.744-4.18,2.515-6.307c0.551-1.521,0.893-3.114,1.347-4.671
			c0.254-0.864,0.557-1.714,0.821-2.575c0.299-0.976,0.879-1.58,1.967-1.504c1.074,0.074,1.634,0.74,1.793,1.734
			c0.565,3.487,1.201,6.966,1.612,10.472c0.262,2.241,0.12,4.526,0.274,6.784c0.045,0.661,0.48,1.293,0.537,1.436
			c-0.313,1.616-0.788,2.817-0.739,3.998c0.481,11.508,1.005,23.016,1.622,34.518c0.21,3.889,0.69,7.765,1.121,11.639
			c0.104,0.943,0.457,1.87-0.896,2.083c-1.05,0.166-1.828-0.551-1.926-1.724c-0.491-5.966-1.105-11.925-1.422-17.901
			c-0.47-8.88-0.722-17.771-1.075-26.656C455.188,424.909,455.081,423.935,455.004,422.919z M449.107,421.211
			c1.703-0.26,3.193-0.417,4.648-0.73c1.02-0.219,1.438-1.043,1.393-2.05c-0.16-3.511-0.326-7.023-0.543-10.531
			c-0.027-0.437-0.377-0.854-0.64-1.417C452.064,409.551,449.184,418.082,449.107,421.211z"/>
		<path fill="#FFFFFF" d="M236.019,389.659c5.226-0.383,10.591-1.495,16.034-0.744c0.098,1.697-0.865,1.516-1.648,1.569
			c-2.533,0.176-5.065,0.415-7.603,0.488c-1.621,0.047-2.634,0.771-2.938,2.279c-0.555,2.75-1.19,5.51-1.396,8.296
			c-0.279,3.792-0.229,7.611-0.238,11.42c-0.012,4.713,0.055,9.427,0.115,14.14c0.006,0.509,0.2,1.015,0.263,1.312
			c2.112-0.256,4.064-0.702,6.014-0.678c3.007,0.04,4.474,1.224,5.269,4.181c0.536,1.994,1.007,4.096,0.968,6.14
			c-0.123,6.34,0.01,12.704-1.315,18.978c-0.611,2.898-2.038,5.235-4.165,7.155c-2.553,2.307-7.713,1.852-9.951-0.786
			c-0.285-0.336-0.515-0.758-0.644-1.18c-0.25-0.808-0.401-1.788,0.621-2.047c0.521-0.132,1.27,0.343,1.812,0.702
			c0.342,0.227,0.44,0.788,0.731,1.129c1.31,1.538,3.982,1.888,5.312,0.403c1.175-1.312,2.268-2.909,2.76-4.569
			c0.771-2.587,1.226-5.319,1.407-8.018c0.319-4.706,0.361-9.432,0.442-14.149c0.017-0.978-0.197-1.992-0.485-2.934
			c-0.605-1.975-1.58-2.867-3.202-2.819c-1.624,0.047-3.057,0.685-3.705,2.31c-0.669,1.678-1.298,3.389-1.749,5.134
			c-0.283,1.098-0.56,1.921-1.891,1.772c-1.226-0.136-1.792-0.923-1.768-2.25c0.116-6.344,0.158-12.689,0.314-19.032
			c0.152-6.241-0.28-12.511,0.861-18.707c0.272-1.482,0.839-2.962,0.815-4.436C237.033,393.185,236.458,391.66,236.019,389.659z"/>
		<path fill="#FFFFFF" d="M83.693,415.724c1.617-3.936,3.146-7.406,4.477-10.952c1.943-5.179,3.758-10.406,5.603-15.622
			c0.386-1.087,1.114-1.433,2.115-1.036c0.941,0.373,1.018,1.126,0.659,2.03c-3.509,8.852-7.021,17.703-10.485,26.572
			c-1.377,3.521-2.586,7.007-2.549,10.967c0.099,10.62-0.18,21.242-0.296,31.864c-0.021,1.812,0.093,3.631,0.015,5.441
			c-0.04,0.943-0.016,2.199-1.481,2.134c-1.345-0.059-1.432-1.054-1.411-2.164c0.187-10.439,0.337-20.882,0.502-31.322
			c0.064-4.176,0.113-8.354,0.219-12.527c0.091-3.61-1.072-6.977-1.893-10.414c-1.393-5.815-2.754-11.64-4.106-17.37
			c2.113-1.297,2.643-0.983,3.065,0.932c1.504,6.815,3.135,13.604,4.735,20.398C82.914,414.885,83.168,415.064,83.693,415.724z"/>
		<path fill="#FFFFFF" d="M222.834,394.799c-0.699,0.052-1.143,0.175-1.546,0.099c-1.44-0.27-1.986-1.171-1.452-2.527
			c0.729-1.854,1.614-3.647,2.334-5.506c0.464-1.198,1.326-1.41,2.395-1.204c1.14,0.222,1.309,1.106,1.264,2.088
			c-0.188,4.08-0.442,8.157-0.546,12.239c-0.236,9.165-0.499,18.33-0.562,27.496c-0.066,9.618,0.017,19.239,0.182,28.854
			c0.074,4.438,0.483,8.872,0.771,13.304c0.063,0.994-0.016,1.855-1.173,2.101c-1.035,0.221-1.781-0.443-1.888-1.737
			c-0.095-1.175-0.036-2.361-0.104-3.539c-0.773-13.146-1.048-26.3-0.709-39.464c0.199-7.705,0.323-15.413,0.54-23.118
			c0.06-2.17,0.342-4.334,0.489-6.503C222.879,396.589,222.834,395.788,222.834,394.799z"/>
		<path fill="#FFFFFF" d="M399.841,400.052c2.282-0.122,2.406,0.052,1.952,1.885c-0.543,2.196-1.15,4.395-1.448,6.628
			c-0.991,7.449-0.076,14.857,0.812,22.241c0.551,4.585,1.335,9.146,2.117,13.699c0.295,1.713,1.022,3.311,2.488,4.405
			c1.561,1.164,2.673,1.005,3.552-0.732c0.686-1.358,1.349-2.856,1.482-4.341c0.723-7.937,2.036-15.832,1.833-23.841
			c-0.003-0.09-0.012-0.185,0.011-0.271c1.146-4.51-0.352-8.987-0.199-13.493c0.047-1.402-0.528-2.826-0.818-4.234
			c1.861-1.268,2.674-1.107,3.043,0.779c0.363,1.86,0.685,3.77,0.68,5.654c-0.017,5.53-0.098,11.063-0.355,16.587
			c-0.261,5.523-0.583,11.056-1.237,16.542c-0.327,2.743-1.309,5.445-2.27,8.062c-0.681,1.851-1.751,2.274-3.699,1.992
			c-3.021-0.438-5.299-2.096-6.394-4.883c-0.814-2.076-1.171-4.36-1.533-6.583c-1.491-9.146-1.972-18.388-2.105-27.63
			c-0.045-3.032,0.853-6.082,1.354-9.117C399.281,402.338,399.566,401.29,399.841,400.052z"/>
		<path fill="#FFFFFF" d="M214.989,420.996c0,2.904,0.188,5.824-0.061,8.708c-0.193,2.229-0.818,4.443-1.461,6.603
			c-0.576,1.934-2.179,3.135-3.862,4.043c-2.342,1.262-5.398-0.233-6.266-3.01c-0.403-1.293-0.624-2.652-0.834-3.996
			c-1.184-7.573-1.541-15.174-0.038-22.729c0.737-3.704,1.571-7.42,3.794-10.663c1.337-1.949,3.344-2.393,4.768-0.545
			c0.861,1.116,1.413,2.519,1.906,3.863C215.036,408.996,215.072,415.008,214.989,420.996z M208.901,400.733
			c-1.926,2.146-2.521,4.514-3.165,6.841c-2.43,8.773-1.883,17.602-0.404,26.435c0.163,0.975,0.441,1.957,0.84,2.859
			c0.71,1.613,1.681,1.896,2.909,0.61c1.024-1.073,2.048-2.429,2.379-3.824c0.622-2.621,0.818-5.354,1.047-8.052
			c0.137-1.619-0.08-3.265-0.01-4.894c0.263-6.037-0.532-11.931-2.355-17.682C209.909,402.298,209.408,401.653,208.901,400.733z"/>
		<path fill="#FFFFFF" d="M319.694,454.129c-0.685,2.135-1.338,4.279-2.062,6.399c-0.533,1.562-1.114,3.318-3.046,3.437
			c-1.877,0.114-2.864-1.517-3.61-2.928c-0.661-1.249-1.136-2.723-1.22-4.126c-0.23-3.794-0.467-7.62-0.219-11.4
			c0.256-3.919,1.408-7.666,4.089-10.756c1.865-2.151,3.577-2.457,5.998-0.991c0.078,0.047,0.16,0.09,0.229,0.146
			c4.004,3.309,3.896,1.388,2.803,6.635c-1.317,6.319-0.447,12.636,1.259,18.812c0.271,0.987,1.038,1.839,1.663,2.902
			c-0.659,1.17-1.652,1.206-2.54,0.264c-0.656-0.695-1.152-1.641-1.438-2.562c-0.587-1.896-0.986-3.852-1.463-5.781
			C319.989,454.163,319.842,454.146,319.694,454.129z M313.639,461.229c0.293,0.021,0.586,0.042,0.879,0.062
			c0.541-1.194,1.272-2.342,1.588-3.594c0.885-3.514,1.41-7.126,2.433-10.596c0.919-3.127,0.716-6.286,0.897-9.438
			c0.06-0.999-0.042-2.101-1.131-2.579c-1.188-0.523-2.287,0.099-2.871,0.985c-1.082,1.648-2.173,3.391-2.749,5.251
			c-1.734,5.609-1.241,11.325-0.229,16.999C312.633,459.327,313.232,460.26,313.639,461.229z"/>
		<path fill="#FFFFFF" d="M186.427,401.885c-0.351-0.48-0.739-1.013-1.39-1.9c2.483-0.941,4.606-1.992,6.854-2.541
			c3.158-0.77,5.316,0.835,5.741,4.061c0.661,5.028-0.06,10-1.245,14.854c-1.205,4.927-2.769,9.771-4.265,14.622
			c-1.829,5.938-4.808,11.347-7.857,16.718c-0.265,0.466-0.476,0.964-0.827,1.687c0.717,0.128,1.312,0.383,1.859,0.306
			c2.422-0.342,4.843-0.718,7.24-1.202c1.957-0.395,3.869-1.006,5.82-1.429c0.874-0.189,1.81-0.262,2.693-0.166
			c0.401,0.043,1.024,0.617,1.036,0.967c0.012,0.391-0.538,0.815-0.882,1.189c-0.104,0.11-0.338,0.105-0.516,0.14
			c-3.734,0.703-7.462,1.455-11.209,2.086c-2.592,0.437-5.212,0.704-7.819,1.045c-1.159,0.152-2.149-0.083-2.948-1.464
			c1.519-1.665,3.223-3.263,4.589-5.109c1.418-1.92,2.83-3.958,3.678-6.163c1.835-4.771,3.02-9.809,5.028-14.495
			c1.498-3.489,2.258-7.1,2.836-10.727c0.648-4.075,1.188-8.24,0.502-12.41c-0.438-2.672-1.377-3.369-3.898-2.514
			C189.848,399.983,188.376,400.918,186.427,401.885z"/>
		<path fill="#FFFFFF" d="M332.743,420.283c2.732,0.206,2.891,0.381,2.521,2.309c-0.729,3.814-1.493,7.629-0.884,11.891
			c1.389-0.125,2.724-0.124,4.001-0.394c1.342-0.284,2.625-0.79,3.983,0.521c-2.032,2.616-5.381,1.129-8.058,2.764
			c-0.062,8.228,0.257,16.64,0.98,25.199c1.911-0.354,3.273-1.836,4.95-0.787c0.049,0.212,0.175,0.491,0.11,0.545
			c-1.696,1.421-3.316,2.965-5.159,4.165c-1.165,0.761-2.793-0.423-2.997-2.168c-0.252-2.154-0.298-4.339-0.336-6.513
			c-0.107-6.165-0.157-12.332-0.258-18.498c-0.01-0.618-0.191-1.232-0.29-1.825c-1.521-0.923-4.099,1.3-4.854-1.994
			c0.899-0.173,1.74-0.382,2.593-0.488c2.289-0.292,2.284-0.276,2.513-2.644C331.943,428.405,332.336,424.445,332.743,420.283z"/>
		<path fill="#FFFFFF" d="M161.236,452.381c-0.675,2.705-1.314,5.265-1.944,7.792c-2.631-0.31-2.944-0.732-2.362-2.813
			c0.36-1.292,0.74-2.581,1.044-3.887C158.372,451.754,158.404,451.719,161.236,452.381z"/>
	</g>
	<g>
		<path fill="#FFFFFF" d="M415.32,104.459c0.229-27.298,0.435-54.583,1.161-81.87c0.054-2.014,1.223-10.854,5.036-6.374
			c2.038,2.394-1.059,15.83-1.07,19.396c-0.049,14.711-0.034,29.435-0.014,44.15c0.024,14.656,0.151,29.292,0.794,43.935
			c0.183,4.132-4.507,5.244-6.228,1.512c-3.265-7.083-6.358-14.253-9.464-21.417c-5.368-12.374-11.966-23.979-17.479-36.241
			c-2.521-5.603-5.041-11.206-7.431-16.876c-2.716-6.44-3.895-14.58-7.479-20.389c-2.1,5.769-1.172,13.438-1.104,19.579
			c0.09,8.074,0.224,16.148,0.343,24.222c0.223,15.082-0.576,30.36,1.387,45.329c0.314,2.397,2.716,15.152-3.32,11.238
			c-3.89-2.521-2.869-16.414-3.101-20.703c-0.756-14.15,0.424-28.646,0.324-42.854c-0.107-15.003-0.499-30.038,1.464-44.928
			c0.42-3.188,1.334-12.051,6.628-7.634c1.881,1.567,0.963,2.434,0.841,4.932c-0.196,3.977,0.903,7.825,2.109,11.529
			c4.643,14.258,9.972,27.553,16.801,40.772c6.728,13.02,11.871,27.474,19.311,39.976
			C414.956,110.946,415.674,104.444,415.32,104.459C415.46,87.927,415.263,104.461,415.32,104.459z"/>
		<path fill="#FFFFFF" d="M249.92,78.802c-0.158-12.903-0.316-25.807-0.477-38.708c-0.081-6.534-0.157-13.069-0.185-19.604
			c-0.009-2.139,2.483-7.909,4.97-3.395c1.929,3.501,0.01,13.101,0.054,17.188c0.067,6.677,0.175,13.355,0.261,20.033
			c0.173,13.538,0.162,27.054-0.289,40.586c-0.129,3.847,0.521,32.457-3.433,32.377c-9.462-0.193-13.421-20.583-16.295-27.681
			c-4.541-11.21-8.932-22.403-13.068-33.787c-4.139-11.384-7.045-24.225-12.16-35.091c-2.009,6.482-1.12,14.792-1.3,21.601
			c-0.199,7.547-0.331,15.096-0.482,22.644c-0.299,14.821-0.268,29.319,1.626,44.031c0.273,2.116,2.521,14.45-3.814,8.618
			c-3.32-3.057-2.186-14.94-2.313-19.038c-0.494-15.674-0.595-31.276,0.094-46.943c0.654-14.806-0.063-30.157,2.392-44.779
			c0.968-5.766,7.862-4.797,7.175-0.601c-0.909,5.533,1.08,12.445,2.642,17.675c4.188,14.007,9.029,27.752,14.436,41.288
			c2.744,6.876,5.536,13.733,8.326,20.59c2.577,6.335,4.737,15.312,9.143,20.421c1.993-5.266,1.272-12.421,1.566-18.07
			C249.114,91.766,249.232,84.846,249.92,78.802z"/>
		<path fill="#FFFFFF" d="M181.312,86.333c0.628-10.216,1.492-20.396,1.303-30.633c-0.095-5.033,1.389-10.68,0.697-15.623
			c-0.806-5.745-1.676-11.48-2.354-17.243c-0.258-2.188-1.336-5.669,0.136-7.646c0.522-0.7,2.537-2.769,3.516-0.875
			c2.363,4.564,2.076,10.15,2.704,15.139c1.518,12.053,2.583,24.565,0.729,36.643c-1.806,11.744-1.075,24.25-1.796,36.12
			c-0.604,9.942-1.281,22.042-11.588,26.946c-21.796,10.375-30.201-18.479-30.121-34.745c0.106-21.613-1.396-44.846,2.188-66.333
			c0.327-1.967,0.078-12.486,2.353-13.068c6.666-1.708,4.15,4.656,3.566,8.831c-1.734,12.364-2.551,24.66-2.806,37.142
			c-0.236,11.672,0.082,23.886,1.031,35.53c0.717,8.79,0.476,25.396,10.062,29.998c8.22,3.947,16.438-2.789,18.129-10.674
			C179.652,113.085,182.36,86.396,181.312,86.333C181.786,78.635,181.455,86.341,181.312,86.333z"/>
		<path fill="#FFFFFF" d="M326.375,129.004c-24.372,2.849-26.739-39.391-26.369-56.432c0.464-21.507,5.984-60.014,32.346-59.531
			c11.588,0.212,14.996,11.667,17.951,21.681c3.709,12.561,6.207,26.951,4.945,40.141
			C353.21,96.149,354.455,130.072,326.375,129.004C321.135,129.616,337.111,129.412,326.375,129.004z M350.778,68.234
			c-1.092-11.049-1.626-22.469-5.504-32.917c-3.446-9.283-6.107-19.514-17.667-16.756c-20.173,4.812-22.761,39.718-22.946,57.305
			c-0.18,16.874,3.104,52.716,25.863,49.434C352.506,122.128,349.431,84.855,350.778,68.234
			C349.722,57.534,350.312,73.959,350.778,68.234z"/>
		<path fill="#FFFFFF" d="M306.214,226.77c-1.875-9.146-2.669-18.509-12.159-22.388c-9.853-4.025-19.258-4.428-28.082-11.456
			c-7.006-5.583-5.041-17.477-1.814-24.643c4.622-10.263,11.424-14.209,22.062-14.907c9.529-0.624,14.823,3.91,20.309,11.485
			c1.896,2.619,1.494,11.533,0.501,14.296c-1.479,4.117-6.61,0.776-5.691-2.767c2.757-10.601-3.221-19.438-14.165-19.287
			c-9.535,0.131-15.007,5.912-18.351,14.688c-2.654,6.977-3.267,15.364,3.133,20.257c8.169,6.248,18.826,5.095,27.427,10.145
			c15.697,9.219,16.37,39.317,2.541,50.171c-7.687,6.033-16.757,6.671-25.365,2.296c-4.343-2.206-9.482-4.77-13.309-7.839
			c-4.212-3.382,3.419-3.92,5.987-1.946c7.063,5.426,17.06,11.817,25.866,6.845C303.925,246.735,306.008,236.293,306.214,226.77
			C305.393,222.762,306.052,234.309,306.214,226.77z"/>
		<path fill="#FFFFFF" d="M208.787,192.066c0.031,6.544-2.158,11.583,5.472,11.231c3.992-0.184,18.646-2.33,21.169,1.542
			c3.817,5.858-9.029,2.614-11.83,2.487c-7.027-0.315-14.734-2.703-14.88,6.129c-0.113,6.938-0.313,13.873-0.381,20.812
			c-0.035,3.519-2.146,18.151,1.579,19.96c4.994,2.426,15.293-0.682,20.621-1.166c6.444-0.583,14.903-3.072,20.765,0.026
			c-4.107,4.001-9.513,3.257-15.007,3.758c-6.024,0.548-12.046,1.143-18.079,1.562c-4.17,0.29-10.743,1.127-14.583-1.056
			c-2.146-1.221-0.392-11.452-0.416-13.694c-0.141-11.743,0.688-23.455,0.865-35.192c0.2-13.321-0.646-27.051,1.228-40.263
			c0.328-2.314,0.088-11.162,2.647-11.938c5.146-1.563,10.84,0.256,16.093,0.826c6.302,0.686,12.607,1.317,18.915,1.929
			c2.732,0.266,5.711,0.205,8.34,1.116c1.979,0.688,2.8,3.765,0.383,4.516c-4.627,1.438-12.56-1.523-17.287-2.266
			c-6.171-0.972-12.344-1.65-18.55-2.277c-7.465-0.753-5.508,5.508-5.974,11.752C209.715,174.044,207.94,191.975,208.787,192.066
			C208.801,194.986,208.645,192.051,208.787,192.066z"/>
		<path fill="#FFFFFF" d="M168.695,201.589c-5.714,0.028-11.432,0.141-17.145,0.044c-4.335-0.072-2.395,14.87-2.449,17.987
			c-0.146,7.967-0.413,15.916-0.985,23.864c-0.253,3.458,1.366,16.347-5.138,12.785c-2.567-1.406-0.065-15.837,0.071-18.516
			c0.42-8.14,0.924-16.271,1.356-24.408c0.881-16.459-2.335-32.981-0.765-49.44c0.198-2.084-0.301-5.988,0.919-7.819
			c1.626-2.445,5.994,0.958,7.916,1.442c6.688,1.683,13.929,0.058,20.699-0.245c3.898-0.174,7.806-0.281,11.708-0.139
			c1.154,0.041,5.76,3.402,3.354,4.418c-2.499,1.054-7.877-0.533-10.656-0.519c-4.169,0.022-8.326,0.383-12.473,0.803
			c-3.173,0.32-16.548-2.245-16.548,1.495c0,7.722-0.101,15.443-0.058,23.165c0.014,2.397-0.678,8.653,0.901,10.607
			c1.402,1.735,8.969,0.354,10.986,0.323c5.906-0.091,13.912-1.646,19.006,1.602C176.072,201.412,172.722,201.237,168.695,201.589
			C162.027,201.622,170.468,201.435,168.695,201.589z"/>
		<path fill="#FFFFFF" d="M276.46,127.392c0.876-22.64,1.888-45.283,2.389-67.938c0.246-11.098-0.596-22.375,0.578-33.421
			c0.434-4.071,0.629-8.471,1.766-12.395c0.515-1.775,3.243-0.479,4.36-0.169c1.019,0.279-0.719,6.206-0.449,4.776
			c-2.073,10.93-1.299,22.438-1.45,33.532c-0.154,11.556-0.337,23.116-0.698,34.666c-0.362,11.542-1.374,23.183-0.929,34.73
			c0.065,1.699,1.404,8.749-0.234,10.15C278.771,133.907,276.56,130.11,276.46,127.392
			C276.845,117.463,276.589,130.915,276.46,127.392z"/>
		<path fill="#FFFFFF" d="M186.104,326.203c-9.872,0.729-13.998-10.632-12.205-18.559c1.305-5.759,6.627-16.122,13.95-15.242
			c3.938,0.473,7.643,3.254,8.9,7.031c0.397,1.189,1.01,9.533,1.009,9.107C197.771,311.375,196.324,325.447,186.104,326.203z
			 M189.239,297.728c-5.951-0.426-8.939,6.043-9.862,11.021c-0.925,5,0.538,12.163,6.413,13.247c5.188,0.957,7.66-9.604,7.36-12.735
			C193.095,308.678,193.535,298.035,189.239,297.728z"/>
		<path fill="#FFFFFF" d="M235.355,326.317c4.731-4.078,11.582,1.808,16.158-2.498c6.854-6.444-5.21-14.696-11.458-12.912
			c-7.703,2.197-5.892-13.384-3.44-16.738c2.383-3.261,19.737-2.829,22.377-0.154c4.65,4.715-13.878,2.382-15.213,2.334
			c-4.084-0.146-5.278,8.936-1.534,9.587c7.219,1.253,14.812,4.551,16.381,12.779c1.258,6.593-5.569,11.042-11.256,11.172
			C243.825,329.969,238.564,329.044,235.355,326.317z"/>
		<path fill="#FFFFFF" d="M159.227,305.554c0.508,7.342-4.617,12.585-8.038,18.448c2-0.082,17.095-1.184,16.738,0.685
			c-0.909,4.765-17.643,4.34-21.224,5.059c-1.533,0.308-7.933,1.939-7.842-1.631c0.021-0.92,5.187-3.72,6.038-4.824
			c3.315-4.287,8.646-10.309,9.308-15.833c0.474-3.95-0.537-10.166-5.084-11.379c-1.275-0.34-10.098,8.793-10.527,4.124
			c-0.424-4.594,7.021-9.238,10.921-8.336C155.912,293.347,159.147,299.673,159.227,305.554z"/>
		<path fill="#FFFFFF" d="M205.359,327.509c2.006-1.445,5.796-0.078,6.143-3.146c0.632-5.584,0.478-11.356,0.624-16.972
			c-0.011,0.421,0.578-4.413-0.3-4.739c-1.271-0.474-5.99,1.191-4.946-2.166c1.075-3.451,3.961-8.959,7.864-9.695
			c4.846-0.917,3.469,6.626,3.342,9.187c-0.298,5.946-0.938,11.934-0.82,17.89c0.047,2.294-0.475,5.773,0.485,7.938
			c0.776,1.755,4.988,2.46,6.496,3.614c-1.152,0.615-10.489,1.326-9.654,1.288C213.102,330.774,200.91,330.718,205.359,327.509z"/>
		<g>
			<polyline fill="#FFFFFF" points="351.448,341.52 443.797,249.172 440.011,245.387 347.662,337.734 			"/>
		</g>
	</g>
</g>
</svg>
