<?xml version="1.0" encoding="utf-8"?>
<!-- Generator: Adobe Illustrator 21.1.0, SVG Export Plug-In . SVG Version: 6.00 Build 0)  -->
<svg version="1.1" id="レイヤー_1" xmlns="http://www.w3.org/2000/svg" xmlns:xlink="http://www.w3.org/1999/xlink" x="0px"
	 y="0px" viewBox="0 0 300 88.3" style="enable-background:new 0 0 300 88.3;" xml:space="preserve">
<style type="text/css">
	.st0{fill:#FFFFFF;}
</style>
<g>
	<path class="st0" d="M36,13.6c0.2,0,0.3,0,0.3,0.1v3.6c0,0.1-0.1,0.1-0.3,0.1H15c-0.1,0-0.2-0.1-0.2-0.3v-3.3
		c0-0.1,0.1-0.3,0.2-0.3h5V5.5h-5.6v2.8c0,0.1-0.2,0.1-0.3,0.1h-7c-0.2,0-0.3-0.1-0.3-0.3V2c0-0.1,0.1-0.3,0.3-0.3h36.7
		c0.2,0,0.4,0,0.4,0.5v6c0,0.1-0.1,0.3-0.3,0.3h-6.8c-0.1,0-0.2,0-0.2-0.3V5.5h-6v8.1H36z"/>
	<path class="st0" d="M65.3,1.7c9.7,0,15.8,3.7,15.8,7.4c0,3.8-4.3,8.3-14.8,8.3h-3.8c-8.6,0-12.2-1.8-14.6-3.6
		c-1.8-1.4-2.4-3.3-2.4-4.5c0-1.6,1.1-3,2.2-4.1c1.8-1.7,6.5-3.6,13.4-3.6H65.3z M57.9,9.3c0,2.2,2.4,4.4,5.5,4.4
		c3.5,0,5.4-2.2,5.4-4.1c0-1.9-2.1-4.4-5.6-4.4C60.5,5.3,57.9,7.2,57.9,9.3z"/>
	<path class="st0" d="M90.9,17.4c-6,0-8.5-2.2-8.5-4.7c0-1.7,1.3-3,3.8-3c4,0,4.9,2.8,5.5,3.3c0.5,0.4,2.3,0.5,4.5,0.5
		c4.2,0,4.5-1.6,4.5-2.4V5.7h-4.8c-0.1,0-0.4-0.1-0.4-0.3V2.1c0-0.3,0.2-0.5,0.7-0.5h19.9c0.3,0,0.4,0.2,0.4,0.5v3.2
		c0,0.2-0.1,0.3-0.4,0.3h-4.4v6.5c0,0.8-0.2,5.3-5.9,5.3H90.9z"/>
	<path class="st0" d="M137.6,1.7c9.7,0,15.8,3.7,15.8,7.4c0,3.8-4.3,8.3-14.8,8.3h-3.8c-8.6,0-12.2-1.8-14.6-3.6
		c-1.8-1.4-2.4-3.3-2.4-4.5c0-1.6,1.1-3,2.2-4.1c1.8-1.7,6.5-3.6,13.4-3.6H137.6z M130.2,9.3c0,2.2,2.4,4.4,5.5,4.4
		c3.5,0,5.4-2.2,5.4-4.1c0-1.9-2.1-4.4-5.6-4.4C132.8,5.3,130.2,7.2,130.2,9.3z"/>
	<path class="st0" d="M170.3,13.5V5.7h-4.7c-0.2,0-0.4-0.1-0.4-0.4V2.1c0-0.3,0.1-0.5,0.5-0.5h18.3c0.3,0,0.5,0.1,0.5,0.6v3
		c0,0.2-0.2,0.3-0.8,0.3h-2.6v4l9.2-4v0h-4.5c-0.3,0-0.5,0-0.5-0.5v-3c0-0.2,0.1-0.4,0.6-0.4h16.8c0.3,0,0.5,0.1,0.5,0.6v2.9
		c0,0.2-0.2,0.4-0.5,0.4h-4.7l-4.6,2.1l5.6,5.7h4.8c0.3,0,0.4,0.2,0.4,0.5V17c0,0.2-0.1,0.4-0.6,0.4h-20c-0.3,0-0.4-0.2-0.4-0.6
		v-3.1c0-0.1,0.2-0.3,0.5-0.3h1.5l-1.9-2l-2.4,1v0.9h1.1c0.3,0,0.3,0.2,0.3,0.4v3.2c0,0.2-0.1,0.4-0.5,0.4h-16.4
		c-0.2,0-0.4-0.1-0.4-0.5v-3c0-0.3,0.1-0.4,0.3-0.4H170.3z"/>
	<path class="st0" d="M205.5,11.6c-0.2,0-0.3-0.1-0.3-0.4V7.6c0-0.1,0.1-0.2,0.4-0.2h7.8c0.1,0,0.3,0.1,0.3,0.3v3.7
		c0,0.2-0.1,0.2-0.4,0.2H205.5z"/>
	<path class="st0" d="M234.8,1.7c9.7,0,15.8,3.7,15.8,7.4c0,3.8-4.3,8.3-14.8,8.3H232c-8.6,0-12.2-1.8-14.6-3.6
		c-1.8-1.4-2.4-3.3-2.4-4.5c0-1.6,1.1-3,2.2-4.1c1.8-1.7,6.5-3.6,13.4-3.6H234.8z M227.5,9.3c0,2.2,2.4,4.4,5.5,4.4
		c3.5,0,5.4-2.2,5.4-4.1c0-1.9-2.1-4.4-5.6-4.4C230,5.3,227.5,7.2,227.5,9.3z"/>
	<path class="st0" d="M271.2,1.7c0.2,0,0.4,0.1,0.7,0.3l10.8,9.1V5.7H278c-0.3,0-0.5-0.1-0.5-0.3V2.1c0-0.3,0.1-0.5,0.3-0.5h15
		c0.4,0,0.5,0.3,0.5,0.5v3.1c0,0.3-0.2,0.4-0.5,0.4h-4.5v11.2c0,0.4-0.1,0.6-0.4,0.6H275c-0.1,0-0.4,0-0.5-0.1l-11.8-10v6.2h4.8
		c0.3,0,0.5,0.1,0.5,0.3V17c0,0.3-0.2,0.5-0.4,0.5h-15.3c-0.2,0-0.3-0.1-0.3-0.4v-3.2c0-0.2,0.1-0.4,0.5-0.4h4.6V5.7h-4.7
		c-0.1,0-0.4-0.1-0.4-0.4V2c0-0.2,0.2-0.3,0.5-0.3H271.2z"/>
	<path class="st0" d="M5.9,30.7H1.2c-0.2,0-0.3-0.1-0.3-0.3v-3.2c0-0.1,0.1-0.3,0.3-0.3h19.7c0.4,0,0.5,0,0.5,0.2v3.5
		c0,0.1-0.3,0.2-0.4,0.2h-4.3v5.7c0,0.6,0.3,2.1,2.6,2.1h5.3c0.4,0,1.8-0.5,1.8-1.9v-5.9h-4c-0.1,0-0.3-0.1-0.3-0.3v-3.4
		c0-0.1,0.1-0.2,0.3-0.2h14.2c0.4,0,0.6,0.1,0.6,0.6v3c0,0.2-0.1,0.3-0.3,0.3h-4.8v6.3c0,0.8-0.2,5.5-5.7,5.5H12.7
		c-1.2,0-6.8-0.4-6.8-4.8V30.7z"/>
	<path class="st0" d="M57.3,26.9c0.2,0,0.4,0.1,0.7,0.3l10.8,9.1v-5.4h-4.6c-0.3,0-0.5-0.1-0.5-0.3v-3.2c0-0.3,0.1-0.5,0.3-0.5h15
		c0.4,0,0.5,0.3,0.5,0.5v3.1c0,0.3-0.2,0.4-0.5,0.4h-4.5v11.2c0,0.4-0.1,0.6-0.4,0.6H61.1c-0.1,0-0.4,0-0.5-0.1l-11.8-10v6.2h4.9
		c0.3,0,0.5,0.1,0.5,0.3v3.2c0,0.3-0.2,0.5-0.4,0.5H38.4c-0.2,0-0.3-0.1-0.3-0.4V39c0-0.2,0.1-0.4,0.5-0.4h4.6v-7.8h-4.7
		c-0.1,0-0.4-0.1-0.4-0.4v-3.3c0-0.2,0.2-0.3,0.5-0.3H57.3z"/>
	<path class="st0" d="M80.2,27.3c0-0.3,0.1-0.4,0.3-0.4H101c0.2,0,0.4,0,0.4,0.2v3.5c0,0.2-0.1,0.3-0.3,0.3h-4.8v7.9h4.8
		c0.2,0,0.3,0.1,0.3,0.2v3.3c0,0.3,0,0.4-0.3,0.4H80.7c-0.3,0-0.4-0.1-0.4-0.3v-3.3c0-0.3,0.1-0.4,0.3-0.4h4.8v-7.8h-4.6
		c-0.2,0-0.4-0.1-0.4-0.2V27.3z"/>
	<path class="st0" d="M122.6,26.9c9.7,0,15.8,3.7,15.8,7.4c0,3.8-4.3,8.3-14.8,8.3h-3.8c-8.6,0-12.2-1.8-14.6-3.6
		c-1.8-1.4-2.4-3.3-2.4-4.5c0-1.6,1.1-3,2.2-4.1c1.8-1.7,6.5-3.6,13.4-3.6H122.6z M115.3,34.5c0,2.2,2.4,4.4,5.5,4.4
		c3.5,0,5.4-2.2,5.4-4.1c0-1.9-2.1-4.4-5.6-4.4C117.9,30.5,115.3,32.4,115.3,34.5z"/>
	<path class="st0" d="M159,26.9c0.2,0,0.4,0.1,0.7,0.3l10.8,9.1v-5.4h-4.6c-0.3,0-0.5-0.1-0.5-0.3v-3.2c0-0.3,0.1-0.5,0.3-0.5h15
		c0.4,0,0.5,0.3,0.5,0.5v3.1c0,0.3-0.2,0.4-0.5,0.4h-4.5v11.2c0,0.4-0.1,0.6-0.4,0.6h-12.9c-0.1,0-0.4,0-0.5-0.1l-11.8-10v6.2h4.9
		c0.3,0,0.5,0.1,0.5,0.3v3.2c0,0.3-0.2,0.5-0.4,0.5h-15.3c-0.2,0-0.3-0.1-0.3-0.4V39c0-0.2,0.1-0.4,0.5-0.4h4.6v-7.8h-4.7
		c-0.1,0-0.4-0.1-0.4-0.4v-3.3c0-0.2,0.2-0.3,0.5-0.3H159z"/>
	<path class="st0" d="M227.5,26.9c0.5,0,0.8,0.1,0.8,0.7v5.7c0,0.2,0,0.5-0.3,0.5h-7c-0.3,0-0.5,0-0.5-0.2v-3h-12.2V33h6.7
		c0.3,0,0.4,0.1,0.4,0.5v2.8c0,0.1-0.2,0.2-0.4,0.2h-6.6v2.2h4.6c0.2,0,0.3,0.1,0.3,0.3v3.5c0,0.1-0.2,0.1-0.4,0.1h-20
		c-0.2,0-0.4,0-0.4-0.2v-3.5c0-0.2,0.2-0.3,0.5-0.3h4.6v-7.8h-4.5c-0.2,0-0.6,0-0.6-0.3v-3.2c0-0.3,0.3-0.4,0.7-0.4H227.5z"/>
	<path class="st0" d="M264.5,26.9c0.4,0,0.5,0.1,0.5,0.5v6c0,0.2-0.1,0.4-0.3,0.4h-7.2c-0.1,0-0.3,0-0.3-0.1v-2.6h-12.1v2h6.8
		c0.2,0,0.3,0,0.3,0.2v3.3c0,0.2-0.3,0.2-0.5,0.2h-6.6v2.1h12.3v-2.6c0-0.2,0.1-0.4,0.4-0.4h7.7c0.1,0,0.2,0.1,0.2,0.4v6.2
		c0,0.1-0.1,0.3-0.5,0.3h-35.6c-0.3,0-0.5,0-0.5-0.2v-3.3c0-0.2,0.1-0.4,0.3-0.4h4.8v-7.9h-4.8c-0.2,0-0.3,0-0.3-0.2v-3.6
		c0-0.1,0.2-0.2,0.5-0.2H264.5z"/>
	<path class="st0" d="M290.5,27.1c0-0.2,0.2-0.2,0.4-0.2h5.8c0.4,0,0.5,0.3,0.5,0.4v3.8c0,0.1-0.1,0.3-0.3,0.3h-6.9
		c-0.1,0-0.2,0-0.2-0.1c-0.7-1.2-3-1.5-3.7-1.5h-6.4c-0.5,0-2.1,0.1-2.1,1c0,1,2.5,1,3.4,1l4,0c2.1,0,6.9,0.4,8.2,0.7
		c1.2,0.3,5.6,1.2,5.6,4.5c0,4.8-8.7,5.5-11.7,5.5h-5.7c-2.4,0-4.9-0.7-6.4-1.4l-0.1,1.2c0,0.2-0.2,0.2-0.3,0.2h-7.1
		c-0.1,0-0.2-0.1-0.2-0.3v-4.3c0-0.1,0.1-0.3,0.2-0.3h7.5c0.2,0,0.3,0.1,0.3,0.2c0.4,1.4,3.8,1.5,4.1,1.5h7.6c0.2,0,1.5-0.1,1.5-0.8
		c0-0.8-1.2-1-1.5-1l-6.1,0c-1.6,0-6.5-0.5-8.4-1c-3.4-1-5.1-2.9-5.1-4.4c0-2.1,2.3-3.3,3.4-3.9c1.4-0.8,4.3-1.4,7.7-1.4h5.8
		c2.9,0,5,0.7,6,1.2L290.5,27.1z"/>
	<path class="st0" d="M108.5,62.1c-0.4,0-0.9,0.1-1.2,0.6c-0.3,0.4-1.1,1.1-1.8,1.1c-0.7,0-1.2-0.2-1.2-0.8c0-2,2.8-2.3,4.7-2.3h1.6
		c1.9,0,4.1,0.4,4.1,1.7c0,1.6-3.7,2.2-4.5,2.3c-1.7,0.2-2.4,0.3-2.7,0.8h4v-0.4c0,0,0-0.1,0.1-0.1h2.9c0.1,0,0.1,0,0.1,0.1v1.6
		c0,0-0.1,0.1-0.1,0.1h-10.1c-0.1,0-0.1-0.1-0.1-0.1v-0.9c0,0,0-0.1,0.1-0.1c0.5-0.5,1.3-0.9,2-1.3c1.3-0.7,3.8-0.9,3.8-1.6
		c0-0.4-0.6-0.5-1-0.5H108.5z"/>
	<path class="st0" d="M120.8,66.6c-3,0-5.3-1.2-5.3-3c0-1.3,1.6-3,5.3-3h1.2c2.2,0,4.9,0.8,4.9,2.9c0,2.3-3.4,3.1-4.9,3.1H120.8z
		 M119.8,63.6c0,0.9,0.8,1.5,1.4,1.5c0.9,0,1.5-0.7,1.5-1.5c0-0.7-0.5-1.5-1.5-1.5C120.3,62.1,119.8,62.8,119.8,63.6z"/>
	<path class="st0" d="M133.5,60.6c0.1,0,0.1,0,0.1,0.1v4.5h1.8c0.1,0,0.1,0,0.1,0.1v1.3c0,0.1,0,0.1-0.1,0.1h-7.7
		c0,0-0.1-0.1-0.1-0.1v-1.2c0,0,0.1-0.1,0.1-0.1h1.8v-2.5h-1.8c-0.1,0-0.2,0-0.2-0.1v-1.1c0,0,0-0.2,0.1-0.2h2.7
		c0.4,0,0.6-0.4,0.8-0.6c0,0,0.1-0.1,0.1-0.1H133.5z"/>
	<path class="st0" d="M142.8,66.5C142.8,66.6,142.8,66.6,142.8,66.5l-4.7,0.1c-0.1,0-0.1-0.1-0.1-0.1l3.5-4.4h-2.5v1
		c0,0.1,0,0.2-0.1,0.2h-2.7c-0.1,0-0.3,0-0.3-0.1v-2.4c0-0.1,0.1-0.1,0.1-0.1h9.6c0.1,0,0.2,0.1,0.1,0.2L142.8,66.5z"/>
	<path class="st0" d="M146.2,64.4c-0.1,0-0.1,0-0.1-0.1v-1.4c0,0,0.1-0.1,0.1-0.1h3c0.1,0,0.1,0,0.1,0.1v1.4c0,0.1,0,0.1-0.2,0.1
		H146.2z"/>
	<path class="st0" d="M155.1,66.6c-3,0-5.3-1.2-5.3-3c0-1.3,1.6-3,5.3-3h1.2c2.2,0,4.9,0.8,4.9,2.9c0,2.3-3.4,3.1-4.9,3.1H155.1z
		 M154.2,63.6c0,0.9,0.8,1.5,1.4,1.5c0.9,0,1.5-0.7,1.5-1.5c0-0.7-0.5-1.5-1.5-1.5C154.7,62.1,154.2,62.8,154.2,63.6z"/>
	<path class="st0" d="M168.9,66.5C168.9,66.6,168.9,66.6,168.9,66.5l-4.7,0.1c-0.1,0-0.1-0.1-0.1-0.1l3.5-4.4h-2.5v1
		c0,0.1,0,0.2-0.1,0.2h-2.7c-0.1,0-0.3,0-0.3-0.1v-2.4c0-0.1,0.1-0.1,0.1-0.1h9.6c0.1,0,0.2,0.1,0.1,0.2L168.9,66.5z"/>
	<path class="st0" d="M172.3,64.4c-0.1,0-0.1,0-0.1-0.1v-1.4c0,0,0.1-0.1,0.1-0.1h3c0.1,0,0.1,0,0.1,0.1v1.4c0,0.1,0,0.1-0.2,0.1
		H172.3z"/>
	<path class="st0" d="M181.7,60.6c0.1,0,0.1,0,0.1,0.1v4.5h1.8c0.1,0,0.1,0,0.1,0.1v1.3c0,0.1,0,0.1-0.1,0.1h-7.7
		c0,0-0.1-0.1-0.1-0.1v-1.2c0,0,0.1-0.1,0.1-0.1h1.8v-2.5H176c-0.1,0-0.2,0-0.2-0.1v-1.1c0,0,0-0.2,0.1-0.2h2.7
		c0.4,0,0.6-0.4,0.8-0.6c0,0,0.1-0.1,0.1-0.1H181.7z"/>
	<path class="st0" d="M191.6,60.6c2.8,0,3.8,0.8,3.8,1.5c0,0.4-0.4,0.9-1.2,0.9c-1.2,0-1.8-0.6-2-0.7c-0.3-0.1-1.2-0.2-1.7-0.2
		c-0.5,0-1.8,0.2-1.8,1.6c0.5-0.5,2-0.8,2.5-0.8h1c0.8,0,3.5,0.4,3.5,1.8c0,1.4-2.1,1.9-3.3,1.9h-2.7c-2.6,0-5.3-1.3-5.3-2.9
		c0-2.2,2.8-3.1,4.9-3.1H191.6z M191.2,64.7c0-0.4-0.6-0.5-1.2-0.5c-0.6,0-1.1,0.1-1.1,0.5s0.6,0.5,1.2,0.5
		C190.6,65.1,191.2,65.1,191.2,64.7z"/>
	<path class="st0" d="M97,70.2c0.1,0,0.1,0,0.1,0.1v4.5h1.8c0.1,0,0.1,0,0.1,0.1v1.3c0,0.1,0,0.1-0.1,0.1h-7.7c0,0-0.1-0.1-0.1-0.1
		v-1.2c0,0,0.1-0.1,0.1-0.1H93v-2.5h-1.8c-0.1,0-0.2,0-0.2-0.1v-1.1c0,0,0-0.2,0.1-0.2h2.7c0.4,0,0.6-0.4,0.8-0.6
		c0,0,0.1-0.1,0.1-0.1H97z"/>
	<path class="st0" d="M103.2,76.2c-2.7,0-3.7-0.8-3.7-1.6c0-0.3,0.4-1,1.6-1c1.4,0,1.6,0.8,1.9,1c0.2,0.1,0.6,0.2,1.1,0.2
		c0.5,0,1.7-0.1,1.7-0.7c0-1-2.4-1-2.6-1h-0.6c-0.4,0-2.1,0.3-2.9,0.6c-0.1,0-0.2,0-0.1-0.1c0-0.1,0.7-3.1,0.7-3.2
		c0-0.1,0.1-0.1,0.2-0.1h8.8c0.1,0,0.2,0.1,0.2,0.1l-0.1,1.1c0,0.1-0.1,0.1-0.2,0.1H102l-0.2,1c0.8-0.4,3-0.6,3.2-0.6
		c0.2,0,0.5,0,0.7,0s0.6,0,0.7,0c2.2,0,3.6,0.9,3.6,2c0,1.1-1.6,2.2-4.3,2.2H103.2z"/>
	<path class="st0" d="M114.3,71.9c0.1,0,0.1,0,0.1,0.1v1.6c0,0-0.1,0.1-0.2,0.1h-2.8c-0.1,0-0.1,0-0.1-0.2V72c0,0,0.1-0.1,0.2-0.1
		H114.3z M114.3,74.4c0.1,0,0.1,0,0.1,0.1v1.6c0,0-0.1,0.1-0.2,0.1h-2.8c-0.1,0-0.1,0-0.1-0.2v-1.6c0,0,0.1-0.1,0.2-0.1H114.3z"/>
	<path class="st0" d="M121.5,70.2c0.1,0,0.1,0,0.1,0.1v4.5h1.8c0.1,0,0.1,0,0.1,0.1v1.3c0,0.1,0,0.1-0.1,0.1h-7.7
		c0,0-0.1-0.1-0.1-0.1v-1.2c0,0,0.1-0.1,0.1-0.1h1.8v-2.5h-1.8c-0.1,0-0.2,0-0.2-0.1v-1.1c0,0,0-0.2,0.1-0.2h2.7
		c0.4,0,0.6-0.4,0.8-0.6c0,0,0.1-0.1,0.1-0.1H121.5z"/>
	<path class="st0" d="M129.3,76.2c-3,0-5.3-1.2-5.3-3c0-1.3,1.6-3,5.3-3h1.2c2.2,0,4.9,0.8,4.9,2.9c0,2.3-3.4,3.1-4.9,3.1H129.3z
		 M128.3,73.2c0,0.9,0.8,1.5,1.4,1.5c0.9,0,1.5-0.7,1.5-1.5c0-0.7-0.5-1.5-1.5-1.5C128.8,71.7,128.3,72.4,128.3,73.2z"/>
	<path class="st0" d="M149.1,70.3c0-0.1,0.1-0.1,0.2-0.1h2.2c0.2,0,0.2,0.1,0.2,0.2v1.5c0,0.1,0,0.1-0.1,0.1h-2.6c0,0-0.1,0-0.1,0
		c-0.3-0.5-1.1-0.6-1.4-0.6h-2.5c-0.2,0-0.8,0-0.8,0.4c0,0.4,1,0.4,1.3,0.4l1.5,0c0.8,0,2.6,0.2,3.1,0.3c0.5,0.1,2.1,0.4,2.1,1.7
		c0,1.8-3.3,2.1-4.4,2.1h-2.2c-0.9,0-1.9-0.3-2.4-0.5l0,0.5c0,0.1-0.1,0.1-0.1,0.1h-2.7c-0.1,0-0.1,0-0.1-0.1v-1.6
		c0,0,0-0.1,0.1-0.1h2.9c0.1,0,0.1,0,0.1,0.1c0.2,0.5,1.5,0.6,1.5,0.6h2.9c0.1,0,0.6,0,0.6-0.3c0-0.3-0.4-0.4-0.6-0.4l-2.3,0
		c-0.6,0-2.5-0.2-3.2-0.4c-1.3-0.4-1.9-1.1-1.9-1.7c0-0.8,0.9-1.3,1.3-1.5c0.6-0.3,1.6-0.5,2.9-0.5h2.2c1.1,0,1.9,0.3,2.3,0.5
		L149.1,70.3z"/>
	<path class="st0" d="M163.8,74.8c0.1,0,0.1,0,0.1,0v1.4c0,0,0,0-0.1,0h-8c0,0-0.1,0-0.1-0.1v-1.3c0,0,0-0.1,0.1-0.1h1.9v-3.1h-2.1
		v1.1c0,0.1-0.1,0.1-0.1,0.1h-2.7c-0.1,0-0.1,0-0.1-0.1v-2.4c0-0.1,0-0.1,0.1-0.1h14c0.1,0,0.1,0,0.1,0.2v2.3c0,0.1,0,0.1-0.1,0.1
		h-2.6c0,0-0.1,0-0.1-0.1v-1h-2.3v3.1H163.8z"/>
	<path class="st0" d="M171.1,76.2c-0.1,0-0.2-0.1-0.2-0.2v-1.2c0-0.1,0-0.1,0.1-0.1h1.4l-0.5-0.7h-2.5l-0.5,0.7h1.5
		c0.1,0,0.1,0,0.1,0.1v1.2c0,0.1,0,0.2-0.1,0.2H165c-0.2,0-0.3,0-0.3-0.1v-1.2c0-0.1,0-0.1,0.2-0.1h1.6l3.1-4.3
		c0.1-0.1,0.2-0.2,0.3-0.2h3.7c0.2,0,0.3,0.1,0.3,0.2l3.2,4.4h1.8c0.1,0,0.1,0.1,0.1,0.3v1c0,0.1-0.1,0.1-0.2,0.1H171.1z
		 M169.9,73.4h1.4l-0.6-0.9c0,0-0.1,0-0.1,0L169.9,73.4z"/>
	<path class="st0" d="M189.6,70.2c0.2,0,1.9,0.1,2.6,0.3c0.5,0.2,1.2,0.6,1.2,1.3c0,0.6-0.8,1-1.6,1.4c0.6,0.3,1,0.5,1.3,1.3
		c0.1,0.2,0.1,0.3,0.3,0.3c0.2,0,0.6-0.1,0.6-0.7v-0.2c0,0,0-0.1,0.1-0.1h0.9c0.1,0,0.1,0,0.1,0.1v0.9c0,0.9-1.3,1.5-1.8,1.5h-3.2
		c-0.5,0-1-0.4-1.1-0.7c-0.1-0.2-0.3-0.8-0.4-1c-0.3-0.6-1.1-0.7-1.2-0.7h-2v0.9h1.9c0.1,0,0.1,0,0.1,0v1.4c0,0,0,0-0.1,0h-7.7
		c0,0-0.1,0-0.1-0.1v-1.3c0,0,0-0.1,0.1-0.1h1.8v-3h-1.8c-0.1,0-0.1,0-0.1-0.1v-1.2c0-0.1,0-0.1,0.1-0.1H189.6z M185.4,71.7v0.9h2.4
		c0.5,0,1.2-0.1,1.2-0.4c0-0.4-0.8-0.5-1-0.5H185.4z"/>
	<path class="st0" d="M205.9,74.8c0.1,0,0.1,0,0.1,0v1.4c0,0,0,0-0.1,0h-8c0,0-0.1,0-0.1-0.1v-1.3c0,0,0-0.1,0.1-0.1h1.9v-3.1h-2.1
		v1.1c0,0.1-0.1,0.1-0.1,0.1h-2.7c-0.1,0-0.1,0-0.1-0.1v-2.4c0-0.1,0-0.1,0.1-0.1h14c0.1,0,0.1,0,0.1,0.2v2.3c0,0.1,0,0.1-0.1,0.1
		h-2.6c0,0-0.1,0-0.1-0.1v-1H204v3.1H205.9z"/>
	<path class="st0" d="M46.1,86.2c-0.8,0.8-2.1,1-2.8,1c-1.8,0-3.2-0.9-3.2-2.8c0-2.2,2-3.4,4.1-3.4c2,0,3.1,1,3.1,2.3
		c0,1.3-1,2.3-2.6,2.3c-0.6,0-0.9-0.2-0.8-0.6l0.1-0.3l0,0c-0.4,0.4-1.1,0.9-1.7,0.9c-0.3,0-0.5-0.3-0.5-0.8c0-0.5,0.2-1.2,0.8-1.8
		c0.4-0.4,1.3-0.7,2-0.7c0.2,0,0.6,0,0.7,0.1c0.1,0,0.2,0,0.4,0c-0.1,0.3-0.3,1.2-0.5,2.1c-0.1,0.4,0,0.6,0.2,0.6
		c0.6,0,1.2-0.5,1.2-1.8c0-1.2-1.1-1.9-2.4-1.9c-1.9,0-3.1,1.3-3.1,3c0,1.2,0.8,2.3,2.7,2.3c0.5,0,1.4-0.1,2.2-0.7L46.1,86.2z
		 M44.2,82.7c-0.2,0-0.3,0.1-0.4,0.3c-0.2,0.3-0.5,0.9-0.5,1.5c0,0.2,0.1,0.3,0.2,0.3c0.1,0,0.6-0.3,0.9-1c0.1-0.3,0.2-0.7,0.3-1
		C44.4,82.8,44.3,82.7,44.2,82.7L44.2,82.7z"/>
	<path class="st0" d="M48,80c0-0.1,0.1-0.2,0.1-0.2h7.8c0.1,0,0.2,0,0.2,0.1v1.3c0,0.1-0.1,0.1-0.1,0.1h-1.8v3H56
		c0.1,0,0.1,0,0.1,0.1v1.3c0,0.1,0,0.1-0.1,0.1h-7.8c-0.1,0-0.2-0.1-0.2-0.1v-1.2c0-0.1,0.1-0.2,0.1-0.2h1.8v-3h-1.8
		c-0.1,0-0.2,0-0.2-0.1V80z"/>
	<path class="st0" d="M56.4,80c0-0.1,0.1-0.2,0.1-0.2h7.8c0.1,0,0.2,0,0.2,0.1v1.3c0,0.1-0.1,0.1-0.1,0.1h-1.8v3h1.8
		c0.1,0,0.1,0,0.1,0.1v1.3c0,0.1,0,0.1-0.1,0.1h-7.8c-0.1,0-0.2-0.1-0.2-0.1v-1.2c0-0.1,0.1-0.2,0.1-0.2h1.8v-3h-1.8
		c-0.1,0-0.2,0-0.2-0.1V80z"/>
	<path class="st0" d="M66.8,81.2H65c-0.1,0-0.2,0-0.2-0.1V80c0-0.1,0-0.2,0.2-0.2h8.6c0.4,0,5.6,0.4,5.6,3c0,2.6-4.2,3-6,3h-8
		c-0.2,0-0.3,0-0.3-0.2v-1c0-0.1,0-0.3,0.2-0.3h1.8V81.2z M70.9,84.4h1.5c0.9,0,2.3-0.5,2.3-1.6c0-1.1-1.5-1.6-1.9-1.6h-1.9V84.4z"
		/>
	<path class="st0" d="M85.5,85.8c-0.1,0-0.2-0.1-0.2-0.2v-1.2c0-0.1,0-0.1,0.1-0.1h1.4l-0.5-0.7h-2.5l-0.5,0.7h1.5
		c0.1,0,0.1,0,0.1,0.1v1.2c0,0.1,0,0.2-0.1,0.2h-5.4c-0.2,0-0.3,0-0.3-0.1v-1.2c0-0.1,0-0.1,0.2-0.1h1.6L84,80
		c0.1-0.1,0.2-0.2,0.3-0.2h3.7c0.2,0,0.3,0.1,0.3,0.2l3.2,4.4h1.8c0.1,0,0.1,0.1,0.1,0.3v1c0,0.1-0.1,0.1-0.2,0.1H85.5z M84.3,83
		h1.4L85.1,82c0,0-0.1,0-0.1,0L84.3,83z"/>
	<path class="st0" d="M93.9,85.8c-0.1,0-0.1,0-0.1-0.1v-1.2c0-0.2,0-0.2,0.1-0.2h1.8v-3H94c-0.2,0-0.2,0-0.2-0.1V80
		c0-0.2,0.1-0.2,0.1-0.2h11.1c1.3,0,2.9,0.6,2.9,1.5c0,0.8-1.1,1.3-1.6,1.5c0.3,0.1,1.6,0.3,1.6,1.4c0,1.3-2,1.5-2.2,1.5H93.9z
		 M99.8,82.1h3c0.2,0,0.6-0.2,0.6-0.4c0-0.2-0.5-0.4-0.8-0.4h-2.8V82.1z M99.8,84.4h2.7c0.5,0,0.9-0.1,0.9-0.4
		c0-0.3-0.5-0.5-0.8-0.5h-2.8V84.4z"/>
	<path class="st0" d="M114.7,85.8c-0.1,0-0.2-0.1-0.2-0.2v-1.2c0-0.1,0-0.1,0.1-0.1h1.4l-0.5-0.7h-2.5l-0.5,0.7h1.5
		c0.1,0,0.1,0,0.1,0.1v1.2c0,0.1,0,0.2-0.1,0.2h-5.4c-0.2,0-0.3,0-0.3-0.1v-1.2c0-0.1,0-0.1,0.2-0.1h1.6l3.1-4.3
		c0.1-0.1,0.2-0.2,0.3-0.2h3.7c0.2,0,0.3,0.1,0.3,0.2l3.2,4.4h1.8c0.1,0,0.1,0.1,0.1,0.3v1c0,0.1-0.1,0.1-0.2,0.1H114.7z M113.6,83
		h1.4l-0.6-0.9c0,0-0.1,0-0.1,0L113.6,83z"/>
	<path class="st0" d="M132.1,79.9c0-0.1,0.1-0.1,0.2-0.1h2.2c0.2,0,0.2,0.1,0.2,0.2v1.5c0,0.1,0,0.1-0.1,0.1h-2.6c0,0-0.1,0-0.1,0
		c-0.3-0.5-1.1-0.6-1.4-0.6H128c-0.2,0-0.8,0-0.8,0.4c0,0.4,1,0.4,1.3,0.4l1.5,0c0.8,0,2.6,0.2,3.1,0.3c0.5,0.1,2.1,0.4,2.1,1.7
		c0,1.8-3.3,2.1-4.4,2.1h-2.2c-0.9,0-1.9-0.3-2.4-0.5l0,0.5c0,0.1-0.1,0.1-0.1,0.1h-2.7c-0.1,0-0.1,0-0.1-0.1v-1.6
		c0,0,0-0.1,0.1-0.1h2.9c0.1,0,0.1,0,0.1,0.1c0.2,0.5,1.5,0.6,1.5,0.6h2.9c0.1,0,0.6,0,0.6-0.3c0-0.3-0.4-0.4-0.6-0.4l-2.3,0
		c-0.6,0-2.5-0.2-3.2-0.4c-1.3-0.4-1.9-1.1-1.9-1.7c0-0.8,0.9-1.3,1.3-1.5c0.6-0.3,1.6-0.5,2.9-0.5h2.2c1.1,0,1.9,0.3,2.3,0.5
		L132.1,79.9z"/>
	<path class="st0" d="M143.4,79.8c0.1,0,0.1,0.1,0.1,0.1v1.2c0,0.1-0.1,0.1-0.2,0.1h-1.5v0.8h3.8v-0.8H144c-0.1,0-0.1,0-0.1-0.1V80
		c0-0.1,0-0.2,0.2-0.2h7.4c0.1,0,0.2,0.1,0.2,0.2v1.1c0,0.1,0,0.2-0.1,0.2h-1.8v3h1.7c0.1,0,0.2,0,0.2,0.2v1.2
		c0,0.1-0.1,0.1-0.2,0.1H144c-0.1,0-0.1,0-0.1-0.1v-1.3c0-0.1,0-0.1,0.1-0.1h1.7v-0.9h-3.8v0.9h1.7c0,0,0.1,0,0.1,0.1v1.4
		c0,0.1-0.1,0.1-0.1,0.1h-7.5c0,0-0.1,0-0.1-0.1v-1.3c0,0,0-0.1,0.1-0.1h1.8v-3h-1.9c-0.1,0-0.1,0-0.1-0.1v-1.2c0-0.1,0-0.1,0.1-0.1
		H143.4z"/>
	<path class="st0" d="M152,80c0-0.1,0.1-0.2,0.1-0.2h7.8c0.1,0,0.2,0,0.2,0.1v1.3c0,0.1-0.1,0.1-0.1,0.1h-1.8v3h1.8
		c0.1,0,0.1,0,0.1,0.1v1.3c0,0.1,0,0.1-0.1,0.1h-7.8c-0.1,0-0.2-0.1-0.2-0.1v-1.2c0-0.1,0.1-0.2,0.1-0.2h1.8v-3h-1.8
		c-0.1,0-0.2,0-0.2-0.1V80z"/>
	<path class="st0" d="M164.6,85.8c0,0-0.1-0.1-0.1-0.1v-1.1c0,0,0.1-0.1,0.1-0.1h2.7c0,0,0.1,0,0.1,0.1c0.1,0.2,0.8,0.4,1.3,0.4h0.8
		c0.3,0,0.7-0.1,0.7-0.3c0-0.3-0.4-0.3-0.5-0.3c-0.1,0-2.1-0.1-2.3-0.1c-1.3-0.1-3-0.4-3-1.5c0-0.8,1.5-1.2,3.5-1.2h1
		c0.6,0,1.3,0.1,1.7,0.3c0-0.1,0-0.2,0.1-0.2c0,0,0-0.1,0.1-0.1h2.1c0,0,0.1,0.1,0.1,0.1v1c0,0-0.1,0.1-0.1,0.1h-2.4
		c0,0-0.1,0-0.1-0.1c-0.1-0.1-0.3-0.3-1-0.3h-1c-0.5,0-0.7,0.1-0.7,0.3s0.3,0.2,0.7,0.3c0.2,0,2.3,0.1,2.7,0.1
		c0.1,0,2.4,0.1,2.4,1.3c0,1.1-2,1.4-3.2,1.4H169c-0.5,0-1.4-0.1-1.6-0.3c-0.1,0.1-0.2,0.1-0.3,0.2c-0.1,0-0.1,0.1-0.2,0.1H164.6z"
		/>
	<path class="st0" d="M181.9,81.5c1,0,3.2,0.8,3.2,2.2c0,1.5-2,2.1-3.5,2.1c-1,0-2.4-0.4-2.7-0.8v0.8h1.4c0.1,0,0.1,0,0.1,0.1v1
		c0,0.1,0,0.1-0.1,0.1h-6.2c-0.1,0-0.1,0-0.1-0.1V86c0-0.1,0-0.1,0.1-0.1h1.4v-3.1h-1.4c-0.1,0-0.1,0-0.1-0.1v-1
		c0-0.1,0.1-0.2,0.1-0.2h4.6c0.1,0,0.1,0,0.1,0.1v0.7c0.4-0.4,1.1-0.8,2.3-0.8H181.9z M178.9,83.7c0,0.7,0.6,0.9,1.3,0.9
		c0.6,0,1.2-0.2,1.2-0.9c0-0.7-0.7-1-1.3-1C179.5,82.8,178.9,83.1,178.9,83.7z"/>
	<path class="st0" d="M194.6,84.2c0,0,0.1,0.4,0.6,0.4c0.6,0,0.6-0.6,0.6-0.6c0,0,0-0.1,0.1-0.1h1c0,0,0,0,0,0c0,1.4-1.2,1.9-2,1.9
		h-2.2c-0.8,0-1.3-0.4-1.5-0.8c-0.4,0.6-1.8,0.8-2.2,0.8c-1,0-3.3-0.1-3.3-1.3c0-1.2,2.6-1.3,3-1.3h1.4c0.4,0,1.1-0.1,1.1-0.3
		c0-0.3-0.4-0.4-0.8-0.4h-1c-0.4,0-0.9,0.3-1.1,0.4c-0.2,0.1-1.1,0.3-1.4,0.3c-0.3,0-1.1-0.2-1.1-0.7c0-0.9,1.6-1,4.2-1
		c2.9,0,4.7,0.2,4.7,1.5V84.2z M191.1,83.5L191.1,83.5c-0.1,0.1-0.4,0.4-0.7,0.5c-0.6,0.1-1,0.2-1,0.5c0,0.2,0.4,0.2,0.5,0.2
		c0.7,0,1.3-0.2,1.3-0.8V83.5z"/>
	<path class="st0" d="M201.5,85.8c-1.2,0-2.1-0.3-2.5-0.5c-0.2-0.1-1.6-0.7-1.6-1.7c0-0.9,0.9-1.5,1.3-1.7c0.9-0.4,2.1-0.5,2.9-0.5
		h1.3c1,0,3.6,0.2,3.6,1.4c0,0.4-0.5,0.7-1.2,0.7c-0.5,0-1.3-0.3-1.8-0.7c-0.2-0.2-0.5-0.2-0.9-0.2c-0.3,0-1.4,0.1-1.4,0.9
		c0,0.9,1.1,0.9,1.6,0.9c1,0,1.5-0.1,2-0.6c0,0,0.1-0.1,0.1-0.1h1.5c0,0,0.1,0.1,0,0.1c-0.3,0.8-1.4,1.8-3.7,1.8H201.5z"/>
	<path class="st0" d="M212.3,85.8c-1.6,0-5.2-0.1-5.2-2.2c0-2,3.8-2.1,4.2-2.1h1.5c1.7,0,4.2,0.7,4.2,2v0.1c0,0,0,0.1-0.2,0.1h-6.1
		c0.1,0.6,0.9,0.8,1.7,0.8h0.8c0.7,0,1.3-0.1,1.7-0.5c0,0,0.1,0,0.1,0h1.9c0.1,0,0.1,0.1,0.1,0.1c-0.2,0.4-0.9,1.6-3.9,1.6H212.3z
		 M213.5,83.1c-0.2-0.2-0.5-0.5-1.2-0.5c-0.9,0-1.2,0.2-1.4,0.5H213.5z"/>
	<path class="st0" d="M228,82.8l0.8,0.9l0.8-0.9h-0.5c0,0-0.1,0-0.1-0.1v-1.1c0,0,0-0.1,0.1-0.1h3.8c0.1,0,0.1,0,0.1,0.1v1.1
		c0,0,0,0.1,0,0.1h-1.3l-2.5,3c0,0,0,0.1-0.1,0.1h-2.2c-0.1,0-0.1,0-0.1-0.1l-1.5-1.8l-1.6,1.8c0,0-0.1,0-0.1,0h-2.1
		c0,0-0.1,0-0.1,0l-2.4-3h-1.4c-0.1,0-0.1,0-0.1-0.1v-1c0-0.1,0-0.2,0.1-0.2h5.8c0.1,0,0.1,0,0.1,0.1v1c0,0.1,0,0.1,0,0.1h-0.6
		l0.8,0.9l0.7-0.9h-0.5c-0.1,0-0.1,0-0.1-0.1v-1.1c0,0,0-0.1,0.1-0.1h4.9c0,0,0.1,0,0.1,0.1v1.1c0,0,0,0.1,0,0.1H228z"/>
	<path class="st0" d="M239.5,84.6c0.1,0,0.1,0,0.1,0.1v1.1c0,0.1,0,0.1-0.1,0.1h-6.1c0,0-0.1-0.1-0.1-0.1v-1c0,0,0.1-0.1,0.1-0.1
		h1.4v-1.8h-1.4c-0.1,0-0.1,0-0.1-0.1v-1c0-0.1,0-0.2,0.1-0.2h4.6c0.1,0,0.1,0,0.1,0.1v3H239.5z M237.7,79.8c0.1,0,0.2,0,0.2,0.1
		v1.1c0,0,0,0.1-0.1,0.1h-2.6c-0.1,0-0.1,0-0.1-0.1v-1.2c0,0,0-0.1,0.1-0.1H237.7z"/>
	<path class="st0" d="M241.4,82.8H240c-0.1,0-0.1,0-0.1-0.1v-0.9c0-0.1,0-0.1,0.1-0.1h0.5c1.4,0,2-0.4,2.3-1.6
		c0-0.1,0.1-0.2,0.1-0.2h1.7c0.1,0,0.1,0,0.1,0.1v1.6h1.5c0.1,0,0.2,0,0.2,0.2v0.9c0,0.1-0.1,0.1-0.2,0.1h-1.6v1.1
		c0,0.2,0.2,0.7,0.7,0.7c0.5,0,0.8-0.3,0.9-0.9c0-0.1,0-0.2,0.1-0.2h0.9c0.1,0,0.1,0,0.1,0.1c0,0.4-0.4,2.2-2.4,2.2h-2.1
		c-0.3,0-1.5-0.2-1.5-1.2V82.8z"/>
	<path class="st0" d="M256.2,81.6c2.3,0,2.5,0.8,2.5,1.5v1.5h1.4c0.1,0,0.1,0,0.1,0.1v1.1c0,0.1,0,0.1,0,0.1h-5.9
		c-0.1,0-0.1,0-0.1-0.1v-1c0-0.1,0-0.1,0.1-0.1h1.2v-0.5c0-0.9,0-1.3-1.4-1.3c-1.4,0-1.4,0.9-1.4,1.5v0.2h1.1c0.1,0,0.1,0,0.1,0.1
		v1.1c0,0.1,0,0.1-0.1,0.1h-5.9c0,0-0.1-0.1-0.1-0.1v-1c0,0,0.1-0.1,0.1-0.1h1.4v-3.5h-1.4c-0.1,0-0.2,0-0.2-0.1v-1
		c0-0.1,0-0.2,0.1-0.2h4.7c0.1,0,0.1,0,0.1,0.1v2.5h0c0.2-0.2,0.6-0.8,1.9-0.8H256.2z"/>
</g>
</svg>
