<?xml version="1.0" standalone="yes"?>

<svg version="1.1" viewBox="0.0 0.0 1039.0 720.0" fill="none" stroke="none" stroke-linecap="square" stroke-miterlimit="10" xmlns="http://www.w3.org/2000/svg" xmlns:xlink="http://www.w3.org/1999/xlink"><clipPath id="p.0"><path d="m0 0l1039.0 0l0 720.0l-1039.0 0l0 -720.0z" clip-rule="nonzero"></path></clipPath><g clip-path="url(#p.0)"><path fill="#ffffff" d="m0 0l1039.748 0l0 720.0l-1039.748 0z" fill-rule="nonzero"></path><path fill="#000000" fill-opacity="0.0" d="m26.72441 22.700787l399.40158 0l0 97.82678l-399.40158 0z" fill-rule="nonzero"></path><path fill="#000000" d="m37.97441 40.670788l2.875 0l0 15.0q0 1.75 1.125 2.875q1.375 1.375 4.0 1.375q2.625 0 4.0 -1.375q1.125 -1.125 1.125 -2.875l0 -15.0l2.875 0l0 15.125q0 2.75 -1.75 4.5q-2.0 2.0 -6.25 2.0q-4.25 0 -6.25 -2.0q-1.75 -1.75 -1.75 -4.5l0 -15.125zm22.625 21.375l-2.5 0l0 -14.0l2.5 0l0 2.5q2.25 -2.75 4.75 -2.75q2.5 0 4.0 1.5q1.0 1.0 1.0 2.375l0 10.375l-2.5 0l0 -9.625q0 -1.125 -0.75 -1.875q-0.75 -0.75 -2.125 -0.75q-1.25 0 -2.5 1.25q-1.875 1.875 -1.875 4.0l0 7.0zm13.75 -21.25l2.5 0l0 3.25l-2.5 0l0 -3.25zm0 7.25l2.5 0l0 14.0l-2.5 0l0 -14.0zm6.0 7.0q0 -3.25 2.125 -5.375q1.875 -1.875 4.625 -1.875q2.75 0 4.625 1.875q2.125 2.125 2.125 5.375q0 3.25 -2.125 5.375q-1.875 1.875 -4.625 1.875q-2.75 0 -4.625 -1.875q-2.125 -2.125 -2.125 -5.375zm6.75 -5.0q-1.5 0 -2.5 1.0q-1.5 1.5 -1.5 4.0q0 2.5 1.375 3.875q1.125 1.125 2.625 1.125q1.5 0 2.625 -1.125q1.375 -1.375 1.375 -3.875q0 -2.5 -1.5 -4.0q-1.0 -1.0 -2.5 -1.0zm12.5 12.0l-2.5 0l0 -14.0l2.5 0l0 2.5q2.25 -2.75 4.75 -2.75q2.5 0 4.0 1.5q1.0 1.0 1.0 2.375l0 10.375l-2.5 0l0 -9.625q0 -1.125 -0.75 -1.875q-0.75 -0.75 -2.125 -0.75q-1.25 0 -2.5 1.25q-1.875 1.875 -1.875 4.0l0 7.0zm23.875 -21.375l14.375 0l0 2.375l-11.5 0l0 7.0l9.0 0l0 2.375l-9.0 0l0 9.625l-2.875 0l0 -21.375zm16.625 14.375q0 -3.375 2.125 -5.5q1.75 -1.75 4.5 -1.75q2.625 0 4.5 1.875q1.75 1.75 1.75 5.375l-10.125 0q0 2.625 1.25 3.875q1.125 1.125 2.875 1.125q1.75 0 2.5 -0.75q0.875 -0.875 0.875 -2.0l2.75 0q-0.5 2.25 -1.625 3.375q-1.625 1.625 -4.5 1.625q-3.0 0 -4.875 -1.875q-2.0 -2.0 -2.0 -5.375zm6.5 -5.125q-1.5 0 -2.5 1.0q-0.875 0.875 -1.125 2.125l7.125 0q0 -1.25 -1.0 -2.25q-0.875 -0.875 -2.5 -0.875zm9.875 2.125q0 -1.625 1.125 -2.75q1.5 -1.5 4.25 -1.5q3.0 0 4.375 1.375q1.25 1.25 1.25 2.75l-2.5 0q-0.125 -0.875 -0.5 -1.25q-0.75 -0.75 -2.75 -0.75q-1.25 0 -2.0 0.75q-0.625 0.625 -0.625 1.375q0 0.5 0.375 0.875q0.5 0.5 3.125 1.125q1.625 0.375 2.75 0.75q1.0 0.375 1.5 0.875q1.0 1.0 1.0 2.375q0 1.5 -1.25 2.75q-1.5 1.5 -4.625 1.5q-3.125 0 -4.625 -1.5q-1.25 -1.25 -1.25 -3.125l2.5 0q0.125 1.125 0.625 1.625q0.875 0.875 2.625 0.875q2.125 0 2.875 -0.75q0.5 -0.5 0.5 -1.25q0 -0.5 -0.625 -1.125q-0.5 -0.5 -1.625 -0.75q-2.25 -0.5 -3.375 -0.875q-1.375 -0.375 -2.0 -1.0q-1.125 -1.125 -1.125 -2.375zm31.5 -7.5l0 -3.875l2.875 -3.875l1.5 0l-2.5 3.875l2.0 0l0 3.875l-3.875 0zm14.375 -1.75q1.125 -1.125 1.25 -2.5l1.5 0l0 21.625l-2.875 0l0 -16.625l-3.75 0l0 -1.5l1.125 0q1.75 0 2.75 -1.0zm11.875 -2.125l10.75 0l0 2.375l-8.375 0l0 0.375q-0.125 2.375 -0.375 4.625q-0.125 0.375 -0.125 0.75q1.625 -1.5 3.5 -1.5q2.5 0 4.125 1.625q1.75 1.75 1.75 5.125q0 4.25 -2.25 6.5q-1.75 1.75 -4.375 1.75q-2.5 0 -4.125 -1.625q-1.625 -1.625 -2.0 -4.875l2.875 0q0.25 2.375 1.25 3.375q0.75 0.75 1.875 0.75q1.5 0 2.375 -0.875q1.375 -1.375 1.375 -4.625q0 -3.125 -1.125 -4.25q-0.75 -0.75 -1.75 -0.75q-1.5 0 -2.625 1.125q-0.75 0.75 -1.0 1.125l-2.5 0q0.125 -0.5 0.125 -0.875l0.625 -9.625l0 -0.5z" fill-rule="nonzero"></path><path fill="#000000" d="m44.59941 81.54579q2.0 2.0 2.875 4.125l-2.25 1.5q-1.0 -2.25 -2.75 -4.0l2.125 -1.625zm-6.625 17.5q7.875 -3.0 12.0 -9.0l-11.625 0l0 -2.375l12.25 0l0 -6.625l-10.625 0l0 -2.375l10.625 0l0 -4.25l2.375 0q1.0 0.125 0.125 0.75l0 3.5l10.5 0l0 2.375l-10.5 0l0 6.625l2.0 0l2.5 -6.0l2.625 1.25q0.5 0.5 -0.375 0.625l-2.25 4.125l7.625 0l0 2.375l-11.5 0q4.0 5.75 11.875 8.375l-1.5 2.625q-6.75 -2.625 -11.0 -8.0l0 9.875l-2.5 0l0 -9.75q-3.875 5.375 -11.25 8.5l-1.375 -2.625zm38.0 -5.875l3.125 -1.125l0.625 1.625q2.875 -1.875 4.25 -4.375l-5.0 0l0 -2.375l18.875 0l0 2.375l-11.375 0q-0.5 1.0 -1.0 1.625l11.625 0l-0.75 9.125q-0.25 2.875 -2.5 2.875l-3.0 0l-0.375 -2.375l2.375 0q0.875 0 1.0 -0.875l0.625 -6.375l-1.375 0q-2.25 8.5 -12.625 10.25l-0.75 -2.375q8.875 -1.625 10.875 -7.875l-2.125 0q-2.25 5.375 -8.375 6.5l-0.75 -2.0q5.0 -1.25 6.625 -4.5l-1.875 0q-2.625 2.375 -4.125 3.125l-1.0 -1.875l-7.875 3.125q-0.125 0.875 -0.625 0.375l-1.0 -2.75l4.0 -1.125l0 -9.5l-3.875 0l0 -2.375l3.875 0l0 -7.125l2.375 0q1.0 0.125 0.125 0.75l0 6.375l3.75 0l0 2.375l-3.75 0l0 8.5zm5.5 -7.75l0 -10.125l13.125 0l0 10.125l-13.125 0zm2.5 -5.875l8.125 0l0 -2.25l-8.125 0l0 2.25zm0 3.875l8.125 0l0 -1.875l-8.125 0l0 1.875zm41.25 4.875l0 14.5l-2.5 0l0 -1.25l-11.25 0l0 1.625l-2.5 0l0 -11.375q-3.25 1.75 -7.0 2.75l-0.875 -2.25q3.5 -0.875 7.875 -3.125l0 -0.875l1.75 0q2.625 -1.5 4.5 -3.0l-13.125 0l0 -2.375l11.0 0l0 -3.0l-7.75 0l0 -2.375l7.75 0l0 -3.0l2.375 0q1.0 0.125 0.125 0.75l0 2.25l6.0 0l0 2.125q1.5 -1.625 3.0 -3.625l1.75 1.125q0.875 0.625 -0.25 0.75q-2.375 2.875 -4.75 5.0l8.625 0l0 2.375l-11.25 0q-2.5 2.125 -4.0 3.0l10.5 0zm-7.25 -5.375q1.5 -1.125 3.375 -3.0l-5.75 0l0 3.0l2.375 0zm-6.5 10.75l11.25 0l0 -3.375l-11.25 0l0 3.375zm0 5.875l11.25 0l0 -3.875l-11.25 0l0 3.875zm21.75 -2.75q5.25 -4.125 6.625 -8.625l-5.75 0l0 -2.375l5.75 0l0 -11.125l2.375 0q1.0 0.125 0.125 0.75l0 10.375l5.125 0l0 2.375l-5.125 0l0 1.625q3.125 1.875 5.125 4.125l-1.5 2.5q-2.0 -2.375 -3.625 -3.625l0 10.375l-2.5 0l0 -9.625q-1.625 3.0 -5.0 5.75l-1.625 -2.5zm10.125 -13.0q1.25 -2.75 2.375 -6.75l2.625 0.875q0.625 0.5 -0.25 0.5q-1.25 3.75 -2.375 6.375l-2.375 -1.0zm-6.875 -6.0q1.75 3.0 2.375 5.75l-2.5 1.0q-0.625 -2.5 -2.25 -5.75l2.375 -1.0zm21.625 -2.75q1.0 0.125 0.125 0.75l0 15.875l3.375 -0.875l0.75 2.625l-4.125 0.875l0 8.875l-2.5 0l0 -8.25l-6.75 1.5l-0.625 -2.625l7.375 -1.5l0 -17.25l2.375 0zm-7.125 3.625q2.375 1.5 3.75 3.0l-1.75 2.25q-1.125 -1.125 -3.625 -3.125l1.625 -2.125zm-0.375 6.875q1.875 1.125 3.75 3.0l-1.75 2.25q-1.5 -1.625 -3.625 -3.125l1.625 -2.125zm34.875 -2.125q-2.875 -1.75 -5.875 -6.25q-2.625 4.25 -5.375 6.25l11.25 0zm-7.125 16.125l0 -8.125l-10.5 0l0 -2.375l10.5 0l0 -3.25l-4.875 0l0 -1.75q-3.0 2.375 -7.125 3.75l-1.25 -2.75q9.625 -3.125 13.125 -10.625l3.125 0.375q0.625 0.125 -0.125 0.75q4.25 6.0 12.75 8.625l-1.375 2.875q-3.625 -1.25 -6.75 -3.375l0 2.125l-5.0 0l0 3.25l10.625 0l0 2.375l-10.625 0l0 8.125l11.625 0l0 2.375l-25.375 0l0 -2.375l11.25 0zm-5.0 -0.625q-1.25 -2.875 -2.5 -4.875l2.5 -1.25q1.375 2.0 2.5 4.75l-2.5 1.375zm10.125 -1.125q1.125 -2.25 2.125 -5.5l2.375 0.75q1.625 0.375 0.25 0.875q-0.875 2.375 -2.125 4.75l-2.625 -0.875zm29.25 -11.375l10.25 0l0 2.75l-10.25 0q0 8.75 -7.875 13.125l-2.0 -2.0q7.125 -4.0 7.0 -11.125l-12.5 0l0 -2.75l12.5 0l0 -4.75q-3.5 0.375 -9.125 0.625l-1.125 -2.625q12.125 -0.25 18.625 -2.25l1.375 2.625q0.375 0.875 -1.125 0.25q-2.625 0.625 -5.75 1.0l0 5.125zm23.375 0.5l10.25 -2.5l0.625 -0.375l2.0 2.0q0.5 0.5 -0.375 0.75q-2.25 3.625 -4.75 7.0l-2.125 -1.375q2.0 -2.625 3.75 -5.5l-8.625 2.125l4.25 12.625l-2.5 0.875l-4.125 -13.0l-7.25 2.0l-0.875 -2.5l7.25 -1.625l-2.0 -6.0l2.625 -0.5q1.125 0 0.375 0.875l1.5 5.125zm16.0 3.25l0 -2.75l27.874985 0l0 2.75l-27.874985 0zm36.124985 -4.75q6.125 1.75 12.375 4.75l-1.5 2.875q-6.625 -3.375 -10.875 -4.5l0 13.0l-2.875 0l0 -25.0l2.5 0q1.5 0.125 0.375 1.0l0 7.875z" fill-rule="nonzero"></path><path fill="#ffffff" d="m124.86614 258.54874l0 0c0 -5.3576965 4.3432693 -9.7009735 9.700981 -9.7009735l243.9366 0c2.572876 0 5.040344 1.0220642 6.8596497 2.8413544c1.8192749 1.8192902 2.841339 4.2867737 2.841339 6.859619l0 38.802765c0 5.357727 -4.3432617 9.700989 -9.700989 9.700989l-243.9366 0c-5.357712 0 -9.700981 -4.3432617 -9.700981 -9.700989z" fill-rule="nonzero"></path><path stroke="#666666" stroke-width="4.0" stroke-linejoin="round" stroke-linecap="butt" d="m124.86614 258.54874l0 0c0 -5.3576965 4.3432693 -9.7009735 9.700981 -9.7009735l243.9366 0c2.572876 0 5.040344 1.0220642 6.8596497 2.8413544c1.8192749 1.8192902 2.841339 4.2867737 2.841339 6.859619l0 38.802765c0 5.357727 -4.3432617 9.700989 -9.700989 9.700989l-243.9366 0c-5.357712 0 -9.700981 -4.3432617 -9.700981 -9.700989z" fill-rule="nonzero"></path><path fill="#000000" d="m203.87723 278.417l0 -3.796875l-2.671875 0l0 -1.40625l2.671875 0l0 -3.640625l1.40625 0q0.59375 0.078125 0.078125 0.453125l0 3.1875l2.375 0l0 1.40625l-2.375 0l0 3.421875l2.53125 -0.8125l0.359375 1.40625l-2.890625 1.03125l0 5.578125q0 1.1875 -1.1875 1.1875l-1.625 0l-0.375 -1.40625l1.40625 0q0.296875 0 0.296875 -0.3125l0 -4.59375l-2.078125 0.671875q-0.078125 0.65625 -0.375 0.21875l-0.59375 -1.859375l3.046875 -0.734375zm13.8125 -5.125l-3.640625 0l0 11.875q0 1.1875 -1.1875 1.1875l-1.640625 0l-0.296875 -1.40625l1.34375 0q0.296875 0 0.296875 -0.296875l0 -11.359375l-4.078125 0l0 -1.640625l9.203125 0l0 1.640625zm8.96875 10.015625l0 -13.140625l1.640625 0q0.734375 0.15625 0.078125 0.59375l0 4.3125l6.0 0l0 1.625l-6.0 0l0 6.609375l7.71875 0l0 1.640625l-16.109375 0l0 -1.640625l6.671875 0zm28.0625 -7.265625q-1.9375 0.21875 -3.71875 0.359375l0 2.53125q0 4.296875 -2.515625 7.421875l-1.5625 -0.890625q2.59375 -2.96875 2.59375 -6.828125l0 -2.078125q-2.8125 0.21875 -5.34375 0.21875l0 -1.625q2.53125 0.0625 5.34375 -0.15625l0 -4.53125l1.34375 0q0.671875 0.15625 0.140625 0.59375l0 3.859375q1.859375 -0.140625 3.5 -0.4375l0.21875 1.5625zm-13.21875 2.671875q0 2.671875 0.59375 5.640625l-1.625 0.296875q-0.515625 -2.671875 -0.515625 -5.9375q0 -4.3125 0.734375 -7.5l1.40625 0.375q0.96875 0.21875 0.078125 0.65625q-0.671875 3.203125 -0.671875 6.46875zm11.65625 -9.734375q1.265625 0.671875 2.75 1.78125l-0.671875 1.046875q-1.5625 -1.1875 -2.75 -1.78125l0.671875 -1.046875zm-0.890625 1.859375q1.1875 0.515625 2.75 1.78125l-0.671875 1.046875q-1.703125 -1.265625 -2.75 -1.78125l0.671875 -1.046875zm19.300781 11.0625q-4.453125 4.453125 -11.5 4.671875l-0.375 -1.40625q7.5625 -0.375 11.203125 -4.75l1.046875 1.03125q0.359375 0.375 -0.375 0.453125zm-8.171875 -9.203125l5.640625 -0.21875q-1.03125 -0.828125 -1.921875 -1.421875l1.03125 -0.734375q2.3125 1.484375 4.15625 3.109375l-1.25 0.890625l-0.890625 -0.890625l-4.09375 0.296875q-0.359375 0.75 -0.734375 1.34375l8.390625 0l0 1.40625l-4.90625 0q1.640625 1.78125 5.34375 2.59375l-0.375 1.484375q-4.671875 -1.109375 -6.75 -4.078125l-2.296875 0q-1.9375 2.828125 -7.125 4.3125l-0.59375 -1.484375q4.453125 -1.046875 5.9375 -2.828125l-5.421875 0l0 -1.40625l6.3125 0q0.4375 -0.671875 0.671875 -1.265625l-4.609375 0.21875q-0.4375 0.671875 -0.59375 -0.0625l-0.296875 -1.265625l2.96875 0l2.15625 -3.265625l1.40625 0.515625q0.59375 0.375 -0.296875 0.515625l-1.859375 2.234375zm3.640625 5.484375q0.453125 0.453125 -0.296875 0.453125q-2.8125 2.515625 -6.234375 3.40625l-0.59375 -1.328125q4.15625 -1.1875 6.015625 -3.421875l1.109375 0.890625zm1.9375 1.9375q0.4375 0.375 -0.296875 0.4375q-3.203125 2.828125 -7.359375 3.640625l-0.359375 -1.40625q4.078125 -0.59375 6.96875 -3.5625l1.046875 0.890625zm14.3125 -5.5625l-2.21875 0l0 1.25q0 6.234375 -3.640625 10.171875l-1.265625 -1.109375q3.421875 -3.859375 3.421875 -9.125l0 -1.1875l-2.75 0l0 -1.421875l2.75 0l0 -3.328125l1.40625 0q0.59375 0.0625 0.078125 0.4375l0 2.890625l3.703125 0l0 7.0625q0 2.96875 -0.4375 4.078125q-0.515625 1.265625 -2.15625 1.265625l-1.1875 0l-0.140625 -1.640625l1.1875 0q0.734375 0 0.953125 -0.671875q0.296875 -0.734375 0.296875 -2.8125l0 -5.859375zm2.75 -2.234375l6.53125 0l0 12.703125l-1.484375 0l0 -0.90625l-3.5625 0l0 1.203125l-1.484375 0l0 -13.0zm1.484375 1.40625l0 8.984375l3.5625 0l0 -8.984375l-3.5625 0zm15.140625 -1.78125l2.375 0l-0.375 8.09375l-1.625 0l-0.375 -8.09375zm0.15625 10.546875l2.078125 0l0 2.15625l-2.078125 0l0 -2.15625z" fill-rule="nonzero"></path><path fill="#000000" fill-opacity="0.0" d="m519.874 107.33071l-263.3386 141.51181" fill-rule="nonzero"></path><path stroke="#666666" stroke-width="4.0" stroke-linejoin="round" stroke-linecap="butt" d="m519.874 107.33071l-242.19772 130.15121" fill-rule="evenodd"></path><path fill="#666666" stroke="#666666" stroke-width="4.0" stroke-linecap="butt" d="m274.54886 231.66208l-12.862457 14.41243l19.11737 -2.7727356z" fill-rule="evenodd"></path><path fill="#000000" fill-opacity="0.0" d="m519.874 107.33071l263.02362 141.51181" fill-rule="nonzero"></path><path stroke="#666666" stroke-width="4.0" stroke-linejoin="round" stroke-linecap="butt" d="m519.874 107.33071l241.88843 130.14066" fill-rule="evenodd"></path><path fill="#666666" stroke="#666666" stroke-width="4.0" stroke-linecap="butt" d="m758.6321 243.28966l19.115967 2.7822723l-12.855286 -14.4188385z" fill-rule="evenodd"></path><path fill="#ffffff" d="m434.11023 58.826965l0 0c0 -5.357704 4.343292 -9.700981 9.700989 -9.700981l152.12561 0c2.572876 0 5.040344 1.0220642 6.859619 2.8413506c1.8192749 1.8192863 2.8413696 4.28677 2.8413696 6.8596306l0 38.802765c0 5.357704 -4.3433228 9.700981 -9.700989 9.700981l-152.12561 0c-5.3576965 0 -9.700989 -4.343277 -9.700989 -9.700981z" fill-rule="nonzero"></path><path stroke="#666666" stroke-width="4.0" stroke-linejoin="round" stroke-linecap="butt" d="m434.11023 58.826965l0 0c0 -5.357704 4.343292 -9.700981 9.700989 -9.700981l152.12561 0c2.572876 0 5.040344 1.0220642 6.859619 2.8413506c1.8192749 1.8192863 2.8413696 4.28677 2.8413696 6.8596306l0 38.802765c0 5.357704 -4.3433228 9.700981 -9.700989 9.700981l-152.12561 0c-5.3576965 0 -9.700989 -4.343277 -9.700989 -9.700981z" fill-rule="nonzero"></path><path fill="#000000" d="m467.24902 72.97647l3.640625 0l0 4.078125l-1.484375 0l0 -2.671875l-13.0625 0l0 2.890625l-1.484375 0l0 -4.296875l10.765625 0l1.5625 -3.265625l1.546875 0.734375q0.296875 0.375 -0.21875 0.453125l-1.265625 2.078125zm-4.515625 -3.1875q1.109375 1.40625 1.484375 2.296875l-1.5625 0.8125q-0.59375 -1.328125 -1.34375 -2.296875l1.421875 -0.8125zm-0.53125 8.53125l1.265625 0.078125l2.15625 -1.265625l-7.875 0l0 -1.1875l9.140625 0l0.21875 -0.21875l1.265625 1.1875q0.21875 0.296875 -0.375 0.296875q-2.234375 1.40625 -4.3125 2.296875l0 0.734375l7.71875 0l0 1.421875l-7.71875 0l0 3.78125q0 1.1875 -1.1875 1.1875l-2.0 0l-0.296875 -1.640625l1.703125 0q0.296875 0 0.296875 -0.296875l0 -3.03125l-7.71875 0l0 -1.421875l7.71875 0l0 -1.921875zm-3.859375 -5.421875q-0.65625 -1.328125 -1.328125 -2.078125l1.40625 -0.8125q0.8125 0.890625 1.484375 2.078125l-1.5625 0.8125zm20.1875 -0.96875q-0.0625 0.375 -0.4375 1.71875l3.40625 0l0 -3.71875l1.421875 0q0.59375 0.078125 0.0625 0.453125l0 3.265625l6.09375 0l0 1.40625l-6.09375 0l0 3.40625l5.203125 0l0 1.421875l-5.203125 0l0 4.375l7.0625 0l0 1.40625l-16.265625 0l0 -1.40625l7.71875 0l0 -4.375l-4.96875 0l0 -1.421875l4.96875 0l0 -3.40625l-3.859375 0q-0.890625 2.296875 -2.671875 4.078125l-1.109375 -1.1875q2.671875 -2.59375 3.1875 -6.828125l1.5625 0.375q0.453125 0.140625 -0.078125 0.4375zm16.703125 4.3125q0 -0.75 0.375 -1.484375q0.296875 -0.59375 0.8125 -1.109375q1.484375 -1.484375 4.609375 -1.484375q2.890625 0 4.078125 1.1875q0.96875 0.953125 0.96875 2.0q0 0.890625 -0.453125 1.5625q-0.515625 0.734375 -1.484375 1.1875q-1.484375 0.65625 -2.15625 1.1875q-0.359375 0.296875 -0.359375 0.8125l0 0.59375l-1.640625 0l0 -1.109375q0 -1.046875 0.75 -1.484375q1.625 -0.96875 2.59375 -1.421875q0.8125 -0.4375 0.8125 -1.25q0 -0.59375 -0.4375 -1.046875q-0.671875 -0.671875 -2.671875 -0.671875q-2.15625 0 -3.046875 0.890625q-0.8125 0.828125 -0.8125 1.640625l0 0.375l-1.9375 0l0 -0.375zm4.53125 6.53125l2.078125 0l0 2.15625l-2.078125 0l0 -2.15625zm16.171875 -9.65625l1.5625 0l0.296875 -0.296875l1.109375 1.125l-0.515625 0.359375q-0.890625 1.71875 -2.453125 3.640625q1.859375 0.59375 3.265625 1.5625l-0.8125 1.625q-1.265625 -1.03125 -2.453125 -1.703125l0 7.359375l-1.484375 0l0 -7.359375q-1.328125 1.1875 -2.734375 2.0l-0.671875 -1.484375q3.5625 -1.921875 5.5625 -5.40625l-4.890625 0l0 -1.421875l2.734375 0l0 -3.1875l1.421875 0q0.59375 0.078125 0.0625 0.453125l0 2.734375zm8.09375 -2.734375q0.75 0.140625 0.078125 0.59375l0 3.921875l3.40625 0l0 1.640625l-3.40625 0l0 7.71875l4.078125 0l0 1.640625l-10.171875 0l0 -1.640625l4.390625 0l0 -7.71875l-3.203125 0l0 -1.640625l3.203125 0l0 -4.515625l1.625 0zm18.921875 5.265625q-2.59375 -1.40625 -4.21875 -4.234375q-1.640625 2.671875 -3.796875 4.234375l8.015625 0zm3.5 1.5625q-1.265625 -0.296875 -3.34375 -1.484375l0 1.546875l-8.390625 0l0 -1.484375q-2.0 1.421875 -3.78125 1.9375l-0.671875 -1.78125q5.203125 -1.40625 7.71875 -6.09375l1.5625 0.234375q0.59375 0.0625 0.078125 0.4375q2.375 3.5625 7.5625 4.90625l-0.734375 1.78125zm-1.640625 9.421875q-0.59375 -0.8125 -1.40625 -1.5625l-10.765625 1.1875q-0.375 0.375 -0.671875 0.15625l-0.515625 -1.859375l3.046875 -0.15625l2.078125 -3.78125l-5.34375 0l0 -1.625l15.21875 0l0 1.625l-8.015625 0l-2.234375 3.71875l6.09375 -0.453125q-0.96875 -0.890625 -2.15625 -1.78125l1.328125 -0.890625q3.5625 2.671875 4.90625 4.453125l-1.5625 0.96875zm12.03125 -16.109375l1.625 0q0.75 0.15625 0.078125 0.59375l0 3.046875q0.515625 7.125 7.5625 10.171875l-0.890625 1.859375q-5.109375 -2.234375 -7.265625 -8.09375q-1.5625 5.5625 -7.046875 8.09375l-1.125 -1.640625q7.0625 -2.75 7.0625 -10.171875l0 -3.859375zm14.390625 5.71875q0 -0.75 0.375 -1.484375q0.296875 -0.59375 0.8125 -1.109375q1.484375 -1.484375 4.609375 -1.484375q2.890625 0 4.078125 1.1875q0.96875 0.953125 0.96875 2.0q0 0.890625 -0.453125 1.5625q-0.515625 0.734375 -1.484375 1.1875q-1.484375 0.65625 -2.15625 1.1875q-0.359375 0.296875 -0.359375 0.8125l0 0.59375l-1.640625 0l0 -1.109375q0 -1.046875 0.75 -1.484375q1.625 -0.96875 2.59375 -1.421875q0.8125 -0.4375 0.8125 -1.25q0 -0.59375 -0.4375 -1.046875q-0.671875 -0.671875 -2.671875 -0.671875q-2.15625 0 -3.046875 0.890625q-0.8125 0.828125 -0.8125 1.640625l0 0.375l-1.9375 0l0 -0.375zm4.53125 6.53125l2.078125 0l0 2.15625l-2.078125 0l0 -2.15625z" fill-rule="nonzero"></path><path fill="#ffffff" d="m651.22046 258.54874l0 0c0 -5.3576965 4.3432617 -9.7009735 9.700989 -9.7009735l243.93665 0c2.572815 0 5.040344 1.0220642 6.859619 2.8413544c1.8192749 1.8192902 2.8413086 4.2867737 2.8413086 6.859619l0 38.802765c0 5.357727 -4.3432617 9.700989 -9.700928 9.700989l-243.93665 0c-5.357727 0 -9.700989 -4.3432617 -9.700989 -9.700989z" fill-rule="nonzero"></path><path stroke="#666666" stroke-width="4.0" stroke-linejoin="round" stroke-linecap="butt" d="m651.22046 258.54874l0 0c0 -5.3576965 4.3432617 -9.7009735 9.700989 -9.7009735l243.93665 0c2.572815 0 5.040344 1.0220642 6.859619 2.8413544c1.8192749 1.8192902 2.8413086 4.2867737 2.8413086 6.859619l0 38.802765c0 5.357727 -4.3432617 9.700989 -9.700928 9.700989l-243.93665 0c-5.357727 0 -9.700989 -4.3432617 -9.700989 -9.700989z" fill-rule="nonzero"></path><path fill="#000000" d="m730.23157 278.417l0 -3.796875l-2.671875 0l0 -1.40625l2.671875 0l0 -3.640625l1.40625 0q0.59375 0.078125 0.078125 0.453125l0 3.1875l2.375 0l0 1.40625l-2.375 0l0 3.421875l2.53125 -0.8125l0.359375 1.40625l-2.890625 1.03125l0 5.578125q0 1.1875 -1.1875 1.1875l-1.625 0l-0.375 -1.40625l1.40625 0q0.296875 0 0.296875 -0.3125l0 -4.59375l-2.078125 0.671875q-0.078125 0.65625 -0.375 0.21875l-0.59375 -1.859375l3.046875 -0.734375zm13.8125 -5.125l-3.640625 0l0 11.875q0 1.1875 -1.1875 1.1875l-1.640625 0l-0.296875 -1.40625l1.34375 0q0.296875 0 0.296875 -0.296875l0 -11.359375l-4.078125 0l0 -1.640625l9.203125 0l0 1.640625zm8.96875 10.015625l0 -13.140625l1.640625 0q0.734375 0.15625 0.078125 0.59375l0 4.3125l6.0 0l0 1.625l-6.0 0l0 6.609375l7.71875 0l0 1.640625l-16.109375 0l0 -1.640625l6.671875 0zm28.0625 -7.265625q-1.9375 0.21875 -3.71875 0.359375l0 2.53125q0 4.296875 -2.515625 7.421875l-1.5625 -0.890625q2.59375 -2.96875 2.59375 -6.828125l0 -2.078125q-2.8125 0.21875 -5.34375 0.21875l0 -1.625q2.53125 0.0625 5.34375 -0.15625l0 -4.53125l1.34375 0q0.671875 0.15625 0.140625 0.59375l0 3.859375q1.859375 -0.140625 3.5 -0.4375l0.21875 1.5625zm-13.21875 2.671875q0 2.671875 0.59375 5.640625l-1.625 0.296875q-0.515625 -2.671875 -0.515625 -5.9375q0 -4.3125 0.734375 -7.5l1.40625 0.375q0.96875 0.21875 0.078125 0.65625q-0.671875 3.203125 -0.671875 6.46875zm11.65625 -9.734375q1.265625 0.671875 2.75 1.78125l-0.671875 1.046875q-1.5625 -1.1875 -2.75 -1.78125l0.671875 -1.046875zm-0.890625 1.859375q1.1875 0.515625 2.75 1.78125l-0.671875 1.046875q-1.703125 -1.265625 -2.75 -1.78125l0.671875 -1.046875zm19.300781 11.0625q-4.453125 4.453125 -11.5 4.671875l-0.375 -1.40625q7.5625 -0.375 11.203125 -4.75l1.046875 1.03125q0.359375 0.375 -0.375 0.453125zm-8.171875 -9.203125l5.640625 -0.21875q-1.03125 -0.828125 -1.921875 -1.421875l1.03125 -0.734375q2.3125 1.484375 4.15625 3.109375l-1.25 0.890625l-0.890625 -0.890625l-4.09375 0.296875q-0.359375 0.75 -0.734375 1.34375l8.390625 0l0 1.40625l-4.90625 0q1.640625 1.78125 5.34375 2.59375l-0.375 1.484375q-4.671875 -1.109375 -6.75 -4.078125l-2.296875 0q-1.9375 2.828125 -7.125 4.3125l-0.59375 -1.484375q4.453125 -1.046875 5.9375 -2.828125l-5.421875 0l0 -1.40625l6.3125 0q0.4375 -0.671875 0.671875 -1.265625l-4.609375 0.21875q-0.4375 0.671875 -0.59375 -0.0625l-0.296875 -1.265625l2.96875 0l2.15625 -3.265625l1.40625 0.515625q0.59375 0.375 -0.296875 0.515625l-1.859375 2.234375zm3.640625 5.484375q0.453125 0.453125 -0.296875 0.453125q-2.8125 2.515625 -6.234375 3.40625l-0.59375 -1.328125q4.15625 -1.1875 6.015625 -3.421875l1.109375 0.890625zm1.9375 1.9375q0.4375 0.375 -0.296875 0.4375q-3.203125 2.828125 -7.359375 3.640625l-0.359375 -1.40625q4.078125 -0.59375 6.96875 -3.5625l1.046875 0.890625zm14.3125 -5.5625l-2.21875 0l0 1.25q0 6.234375 -3.640625 10.171875l-1.265625 -1.109375q3.421875 -3.859375 3.421875 -9.125l0 -1.1875l-2.75 0l0 -1.421875l2.75 0l0 -3.328125l1.40625 0q0.59375 0.0625 0.078125 0.4375l0 2.890625l3.703125 0l0 7.0625q0 2.96875 -0.4375 4.078125q-0.515625 1.265625 -2.15625 1.265625l-1.1875 0l-0.140625 -1.640625l1.1875 0q0.734375 0 0.953125 -0.671875q0.296875 -0.734375 0.296875 -2.8125l0 -5.859375zm2.75 -2.234375l6.53125 0l0 12.703125l-1.484375 0l0 -0.90625l-3.5625 0l0 1.203125l-1.484375 0l0 -13.0zm1.484375 1.40625l0 8.984375l3.5625 0l0 -8.984375l-3.5625 0zm15.140625 -1.78125l2.375 0l-0.375 8.09375l-1.625 0l-0.375 -8.09375zm0.15625 10.546875l2.078125 0l0 2.15625l-2.078125 0l0 -2.15625z" fill-rule="nonzero"></path><path fill="#ffffff" d="m302.44095 490.14456l0 0c0 -5.357727 4.3432617 -9.700989 9.700989 -9.700989l152.12558 0c2.572876 0 5.040344 1.0220642 6.8596497 2.841339c1.8192749 1.8193054 2.841339 4.2867737 2.841339 6.8596497l0 38.802765c0 5.357666 -4.3432617 9.700989 -9.700989 9.700989l-152.12558 0c-5.357727 0 -9.700989 -4.3433228 -9.700989 -9.700989z" fill-rule="nonzero"></path><path stroke="#666666" stroke-width="4.0" stroke-linejoin="round" stroke-linecap="butt" d="m302.44095 490.14456l0 0c0 -5.357727 4.3432617 -9.700989 9.700989 -9.700989l152.12558 0c2.572876 0 5.040344 1.0220642 6.8596497 2.841339c1.8192749 1.8193054 2.841339 4.2867737 2.841339 6.8596497l0 38.802765c0 5.357666 -4.3432617 9.700989 -9.700989 9.700989l-152.12558 0c-5.357727 0 -9.700989 -4.3433228 -9.700989 -9.700989z" fill-rule="nonzero"></path><path fill="#000000" d="m360.97037 507.85657q0 -2.296875 1.1875 -3.484375q0.96875 -0.96875 2.296875 -0.96875q1.640625 0 2.59375 0.96875q0.96875 0.953125 0.96875 2.375q0 1.78125 -1.109375 3.109375q-1.046875 1.265625 -2.15625 2.453125q-0.59375 0.671875 -1.1875 1.328125q-0.515625 0.59375 -0.890625 1.1875l5.5625 0l0 1.421875l-7.5625 0l0 -1.265625q0.140625 -0.75 1.265625 -2.078125q1.84375 -2.0 3.03125 -3.34375q1.265625 -1.328125 1.265625 -2.8125q0 -0.890625 -0.59375 -1.484375q-0.4375 -0.453125 -1.109375 -0.453125q-0.59375 0 -1.046875 0.453125q-0.8125 0.8125 -0.8125 2.59375l-1.703125 0zm8.90625 1.265625q0 -3.265625 1.484375 -4.75q1.03125 -1.046875 2.59375 -1.046875q1.5625 0 2.59375 1.046875q1.484375 1.484375 1.484375 4.75l0 1.484375q0 3.1875 -1.484375 4.671875q-1.03125 1.03125 -2.59375 1.03125q-1.5625 0 -2.59375 -1.03125q-1.484375 -1.484375 -1.484375 -4.671875l0 -1.484375zm4.078125 -4.390625q-0.734375 0 -1.328125 0.59375q-0.96875 0.96875 -0.96875 3.640625l0 1.703125q0 2.609375 1.03125 3.640625q0.59375 0.59375 1.265625 0.59375q0.75 0 1.34375 -0.59375q0.953125 -0.96875 0.953125 -3.640625l0 -1.703125q0 -2.671875 -0.953125 -3.640625q-0.59375 -0.59375 -1.34375 -0.59375zm5.421875 4.390625q0 -3.265625 1.484375 -4.75q1.03125 -1.046875 2.59375 -1.046875q1.5625 0 2.59375 1.046875q1.484375 1.484375 1.484375 4.75l0 1.484375q0 3.1875 -1.484375 4.671875q-1.03125 1.03125 -2.59375 1.03125q-1.5625 0 -2.59375 -1.03125q-1.484375 -1.484375 -1.484375 -4.671875l0 -1.484375zm4.078125 -4.390625q-0.734375 0 -1.328125 0.59375q-0.96875 0.96875 -0.96875 3.640625l0 1.703125q0 2.609375 1.03125 3.640625q0.59375 0.59375 1.265625 0.59375q0.75 0 1.34375 -0.59375q0.953125 -0.96875 0.953125 -3.640625l0 -1.703125q0 -2.671875 -0.953125 -3.640625q-0.59375 -0.59375 -1.34375 -0.59375zm5.421875 4.390625q0 -3.265625 1.484375 -4.75q1.03125 -1.046875 2.59375 -1.046875q1.5625 0 2.59375 1.046875q1.484375 1.484375 1.484375 4.75l0 1.484375q0 3.1875 -1.484375 4.671875q-1.03125 1.03125 -2.59375 1.03125q-1.5625 0 -2.59375 -1.03125q-1.484375 -1.484375 -1.484375 -4.671875l0 -1.484375zm4.078125 -4.390625q-0.734375 0 -1.328125 0.59375q-0.96875 0.96875 -0.96875 3.640625l0 1.703125q0 2.609375 1.03125 3.640625q0.59375 0.59375 1.265625 0.59375q0.75 0 1.34375 -0.59375q0.953125 -0.96875 0.953125 -3.640625l0 -1.703125q0 -2.671875 -0.953125 -3.640625q-0.59375 -0.59375 -1.34375 -0.59375zm21.296875 11.515625q0 1.1875 -1.1875 1.1875l-1.921875 0l-0.453125 -1.640625l1.5625 0q0.296875 0 0.296875 -0.296875l0 -4.96875l-10.90625 0l0 6.984375l-1.703125 0l0 -15.078125l14.3125 0l0 13.8125zm-1.703125 -12.40625l-4.75 0l0 5.28125l4.75 0l0 -5.28125zm-10.90625 0l0 5.28125l4.671875 0l0 -5.28125l-4.671875 0z" fill-rule="nonzero"></path><path fill="#ffffff" d="m829.1181 490.14456l0 0c0 -5.357727 4.3432617 -9.700989 9.700989 -9.700989l152.12561 0c2.572876 0 5.040344 1.0220642 6.859619 2.841339c1.8192749 1.8193054 2.8413696 4.2867737 2.8413696 6.8596497l0 38.802765c0 5.357666 -4.3433228 9.700989 -9.700989 9.700989l-152.12561 0c-5.357727 0 -9.700989 -4.3433228 -9.700989 -9.700989z" fill-rule="nonzero"></path><path stroke="#666666" stroke-width="4.0" stroke-linejoin="round" stroke-linecap="butt" d="m829.1181 490.14456l0 0c0 -5.357727 4.3432617 -9.700989 9.700989 -9.700989l152.12561 0c2.572876 0 5.040344 1.0220642 6.859619 2.841339c1.8192749 1.8193054 2.8413696 4.2867737 2.8413696 6.8596497l0 38.802765c0 5.357666 -4.3433228 9.700989 -9.700989 9.700989l-152.12561 0c-5.357727 0 -9.700989 -4.3433228 -9.700989 -9.700989z" fill-rule="nonzero"></path><path fill="#000000" d="m887.6475 507.1847q0 -1.703125 1.109375 -2.8125q0.96875 -0.96875 2.375 -0.96875q1.640625 0 2.59375 0.96875q0.890625 0.890625 0.890625 2.375q0 1.484375 -0.734375 2.21875q-0.515625 0.515625 -1.109375 0.59375q0.734375 0.21875 1.25 0.75q0.890625 0.890625 0.890625 2.375q0 1.625 -1.03125 2.671875q-1.046875 1.03125 -2.890625 1.03125q-1.5625 0 -2.609375 -1.03125q-1.03125 -1.046875 -1.03125 -2.453125l0 -0.59375l1.703125 0l0 0.515625q0 0.96875 0.671875 1.640625q0.515625 0.515625 1.265625 0.515625q0.953125 0 1.546875 -0.59375q0.59375 -0.59375 0.59375 -1.859375q0 -1.03125 -0.59375 -1.625q-0.59375 -0.59375 -1.328125 -0.59375l-0.59375 0l0 -1.265625l0.4375 0q0.671875 0 1.265625 -0.59375q0.59375 -0.59375 0.59375 -1.703125q0 -0.96875 -0.59375 -1.5625q-0.4375 -0.453125 -1.1875 -0.453125q-0.671875 0 -1.1875 0.53125q-0.59375 0.59375 -0.671875 1.921875l-1.625 0zm10.09375 -3.640625l6.375 0l0 1.421875l-4.96875 0l0 0.21875q-0.078125 1.40625 -0.21875 2.75q-0.078125 0.21875 -0.078125 0.4375q0.96875 -0.890625 2.078125 -0.890625q1.484375 0 2.453125 0.96875q1.03125 1.03125 1.03125 3.046875q0 2.515625 -1.328125 3.859375q-1.046875 1.03125 -2.59375 1.03125q-1.484375 0 -2.453125 -0.96875q-0.96875 -0.953125 -1.1875 -2.890625l1.703125 0q0.15625 1.40625 0.75 2.0q0.4375 0.453125 1.109375 0.453125q0.890625 0 1.40625 -0.515625q0.8125 -0.828125 0.8125 -2.75q0 -1.859375 -0.65625 -2.53125q-0.453125 -0.4375 -1.046875 -0.4375q-0.890625 0 -1.5625 0.671875q-0.4375 0.4375 -0.59375 0.65625l-1.484375 0q0.078125 -0.296875 0.078125 -0.515625l0.375 -5.71875l0 -0.296875zm8.3125 5.578125q0 -3.265625 1.484375 -4.75q1.03125 -1.046875 2.59375 -1.046875q1.5625 0 2.59375 1.046875q1.484375 1.484375 1.484375 4.75l0 1.484375q0 3.1875 -1.484375 4.671875q-1.03125 1.03125 -2.59375 1.03125q-1.5625 0 -2.59375 -1.03125q-1.484375 -1.484375 -1.484375 -4.671875l0 -1.484375zm4.078125 -4.390625q-0.734375 0 -1.328125 0.59375q-0.96875 0.96875 -0.96875 3.640625l0 1.703125q0 2.609375 1.03125 3.640625q0.59375 0.59375 1.265625 0.59375q0.75 0 1.34375 -0.59375q0.953125 -0.96875 0.953125 -3.640625l0 -1.703125q0 -2.671875 -0.953125 -3.640625q-0.59375 -0.59375 -1.34375 -0.59375zm5.421875 4.390625q0 -3.265625 1.484375 -4.75q1.03125 -1.046875 2.59375 -1.046875q1.5625 0 2.59375 1.046875q1.484375 1.484375 1.484375 4.75l0 1.484375q0 3.1875 -1.484375 4.671875q-1.03125 1.03125 -2.59375 1.03125q-1.5625 0 -2.59375 -1.03125q-1.484375 -1.484375 -1.484375 -4.671875l0 -1.484375zm4.078125 -4.390625q-0.734375 0 -1.328125 0.59375q-0.96875 0.96875 -0.96875 3.640625l0 1.703125q0 2.609375 1.03125 3.640625q0.59375 0.59375 1.265625 0.59375q0.75 0 1.34375 -0.59375q0.953125 -0.96875 0.953125 -3.640625l0 -1.703125q0 -2.671875 -0.953125 -3.640625q-0.59375 -0.59375 -1.34375 -0.59375zm21.296875 11.515625q0 1.1875 -1.1875 1.1875l-1.921875 0l-0.453125 -1.640625l1.5625 0q0.296875 0 0.296875 -0.296875l0 -4.96875l-10.90625 0l0 6.984375l-1.703125 0l0 -15.078125l14.3125 0l0 13.8125zm-1.703125 -12.40625l-4.75 0l0 5.28125l4.75 0l0 -5.28125zm-10.90625 0l0 5.28125l4.671875 0l0 -5.28125l-4.671875 0z" fill-rule="nonzero"></path><path fill="#ffffff" d="m39.102364 490.14456l0 0c0 -5.357727 4.343277 -9.700989 9.700981 -9.700989l152.1256 0c2.5728607 0 5.040344 1.0220642 6.8596344 2.841339c1.8192902 1.8193054 2.8413544 4.2867737 2.8413544 6.8596497l0 38.802765c0 5.357666 -4.343277 9.700989 -9.700989 9.700989l-152.1256 0c-5.357704 0 -9.700981 -4.3433228 -9.700981 -9.700989z" fill-rule="nonzero"></path><path stroke="#666666" stroke-width="4.0" stroke-linejoin="round" stroke-linecap="butt" d="m39.102364 490.14456l0 0c0 -5.357727 4.343277 -9.700989 9.700981 -9.700989l152.1256 0c2.5728607 0 5.040344 1.0220642 6.8596344 2.841339c1.8192902 1.8193054 2.8413544 4.2867737 2.8413544 6.8596497l0 38.802765c0 5.357666 -4.343277 9.700989 -9.700989 9.700989l-152.1256 0c-5.357704 0 -9.700981 -4.3433228 -9.700981 -9.700989z" fill-rule="nonzero"></path><path fill="#000000" d="m111.28802 509.1222q0 -3.265625 1.484375 -4.75q1.03125 -1.046875 2.59375 -1.046875q1.5625 0 2.59375 1.046875q1.484375 1.484375 1.484375 4.75l0 1.484375q0 3.1875 -1.484375 4.671875q-1.03125 1.03125 -2.59375 1.03125q-1.5625 0 -2.59375 -1.03125q-1.484375 -1.484375 -1.484375 -4.671875l0 -1.484375zm4.078125 -4.390625q-0.734375 0 -1.328125 0.59375q-0.96875 0.96875 -0.96875 3.640625l0 1.703125q0 2.609375 1.03125 3.640625q0.59375 0.59375 1.265625 0.59375q0.75 0 1.34375 -0.59375q0.953125 -0.96875 0.953125 -3.640625l0 -1.703125q0 -2.671875 -0.953125 -3.640625q-0.59375 -0.59375 -1.34375 -0.59375zm21.296883 11.515625q0 1.1875 -1.1875 1.1875l-1.921875 0l-0.453125 -1.640625l1.5625 0q0.296875 0 0.296875 -0.296875l0 -4.96875l-10.906258 0l0 6.984375l-1.703125 0l0 -15.078125l14.312508 0l0 13.8125zm-1.703125 -12.40625l-4.75 0l0 5.28125l4.75 0l0 -5.28125zm-10.906258 0l0 5.28125l4.6718826 0l0 -5.28125l-4.6718826 0z" fill-rule="nonzero"></path><path fill="#000000" fill-opacity="0.0" d="m256.53543 307.0525l-131.65353 173.38583" fill-rule="nonzero"></path><path stroke="#990000" stroke-width="4.0" stroke-linejoin="round" stroke-linecap="butt" d="m256.53543 307.0525l-117.13991 154.27158" fill-rule="evenodd"></path><path fill="#990000" stroke="#990000" stroke-width="4.0" stroke-linecap="butt" d="m134.13359 457.32864l-5.715454 18.452484l16.239319 -10.461609z" fill-rule="evenodd"></path><path fill="#000000" fill-opacity="0.0" d="m256.53543 307.0525l131.68503 173.38583" fill-rule="nonzero"></path><path stroke="#0b5394" stroke-width="4.0" stroke-linejoin="round" stroke-linecap="butt" d="m256.53543 307.0525l117.16922 154.27325" fill-rule="evenodd"></path><path fill="#0b5394" stroke="#0b5394" stroke-width="4.0" stroke-linecap="butt" d="m368.44315 465.32178l16.24054 10.459747l-5.71756 -18.451813z" fill-rule="evenodd"></path><path fill="#000000" fill-opacity="0.0" d="m782.8898 307.0525l-131.33856 173.38583" fill-rule="nonzero"></path><path stroke="#990000" stroke-width="4.0" stroke-linejoin="round" stroke-linecap="butt" d="m782.8898 307.0525l-116.846985 154.25485" fill-rule="evenodd"></path><path fill="#990000" stroke="#990000" stroke-width="4.0" stroke-linecap="butt" d="m660.77625 457.318l-5.694214 18.459045l16.227295 -10.480316z" fill-rule="evenodd"></path><path fill="#000000" fill-opacity="0.0" d="m782.8898 307.0525l132.0 173.38583" fill-rule="nonzero"></path><path stroke="#0b5394" stroke-width="4.0" stroke-linejoin="round" stroke-linecap="butt" d="m782.8898 307.0525l117.46216 154.28998" fill-rule="evenodd"></path><path fill="#0b5394" stroke="#0b5394" stroke-width="4.0" stroke-linecap="butt" d="m895.0951 465.34457l16.252502 10.44104l-5.7387695 -18.445251z" fill-rule="evenodd"></path><path fill="#000000" fill-opacity="0.0" d="m302.44095 158.17192l98.04724 0l0 39.842514l-98.04724 0z" fill-rule="nonzero"></path><path fill="#000000" d="m325.31595 172.92004l3.640625 0l0 4.078125l-1.484375 0l0 -2.671875l-13.0625 0l0 2.890625l-1.484375 0l0 -4.296875l10.765625 0l1.5625 -3.265625l1.546875 0.734375q0.296875 0.375 -0.21875 0.453125l-1.265625 2.078125zm-4.515625 -3.1875q1.109375 1.40625 1.484375 2.296875l-1.5625 0.8125q-0.59375 -1.328125 -1.34375 -2.296875l1.421875 -0.8125zm-0.53125 8.53125l1.265625 0.078125l2.15625 -1.265625l-7.875 0l0 -1.1875l9.140625 0l0.21875 -0.21875l1.265625 1.1875q0.21875 0.296875 -0.375 0.296875q-2.234375 1.40625 -4.3125 2.296875l0 0.734375l7.71875 0l0 1.421875l-7.71875 0l0 3.78125q0 1.1875 -1.1875 1.1875l-2.0 0l-0.296875 -1.640625l1.703125 0q0.296875 0 0.296875 -0.296875l0 -3.03125l-7.71875 0l0 -1.421875l7.71875 0l0 -1.921875zm-3.859375 -5.421875q-0.65625 -1.328125 -1.328125 -2.078125l1.40625 -0.8125q0.8125 0.890625 1.484375 2.078125l-1.5625 0.8125zm20.1875 -0.96875q-0.0625 0.375 -0.4375 1.71875l3.40625 0l0 -3.71875l1.421875 0q0.59375 0.078125 0.0625 0.453125l0 3.265625l6.09375 0l0 1.40625l-6.09375 0l0 3.40625l5.203125 0l0 1.421875l-5.203125 0l0 4.375l7.0625 0l0 1.40625l-16.265625 0l0 -1.40625l7.71875 0l0 -4.375l-4.96875 0l0 -1.421875l4.96875 0l0 -3.40625l-3.859375 0q-0.890625 2.296875 -2.671875 4.078125l-1.109375 -1.1875q2.671875 -2.59375 3.1875 -6.828125l1.5625 0.375q0.453125 0.140625 -0.078125 0.4375z" fill-rule="nonzero"></path><path fill="#000000" fill-opacity="0.0" d="m673.8399 158.1693l98.04724 0l0 39.842514l-98.04724 0z" fill-rule="nonzero"></path><path fill="#000000" d="m688.4024 173.05804l1.5625 0l0.296875 -0.296875l1.109375 1.125l-0.515625 0.359375q-0.890625 1.71875 -2.453125 3.640625q1.859375 0.59375 3.265625 1.5625l-0.8125 1.625q-1.265625 -1.03125 -2.453125 -1.703125l0 7.359375l-1.484375 0l0 -7.359375q-1.328125 1.1875 -2.734375 2.0l-0.671875 -1.484375q3.5625 -1.921875 5.5625 -5.40625l-4.890625 0l0 -1.421875l2.734375 0l0 -3.1875l1.421875 0q0.59375 0.078125 0.0625 0.453125l0 2.734375zm8.09375 -2.734375q0.75 0.140625 0.078125 0.59375l0 3.921875l3.40625 0l0 1.640625l-3.40625 0l0 7.71875l4.078125 0l0 1.640625l-10.171875 0l0 -1.640625l4.390625 0l0 -7.71875l-3.203125 0l0 -1.640625l3.203125 0l0 -4.515625l1.625 0zm18.921875 5.265625q-2.59375 -1.40625 -4.21875 -4.234375q-1.640625 2.671875 -3.796875 4.234375l8.015625 0zm3.5 1.5625q-1.265625 -0.296875 -3.34375 -1.484375l0 1.546875l-8.390625 0l0 -1.484375q-2.0 1.421875 -3.78125 1.9375l-0.671875 -1.78125q5.203125 -1.40625 7.71875 -6.09375l1.5625 0.234375q0.59375 0.0625 0.078125 0.4375q2.375 3.5625 7.5625 4.90625l-0.734375 1.78125zm-1.640625 9.421875q-0.59375 -0.8125 -1.40625 -1.5625l-10.765625 1.1875q-0.375 0.375 -0.671875 0.15625l-0.515625 -1.859375l3.046875 -0.15625l2.078125 -3.78125l-5.34375 0l0 -1.625l15.21875 0l0 1.625l-8.015625 0l-2.234375 3.71875l6.09375 -0.453125q-0.96875 -0.890625 -2.15625 -1.78125l1.328125 -0.890625q3.5625 2.671875 4.90625 4.453125l-1.5625 0.96875zm12.03125 -16.109375l1.625 0q0.75 0.15625 0.078125 0.59375l0 3.046875q0.515625 7.125 7.5625 10.171875l-0.890625 1.859375q-5.109375 -2.234375 -7.265625 -8.09375q-1.5625 5.5625 -7.046875 8.09375l-1.125 -1.640625q7.0625 -2.75 7.0625 -10.171875l0 -3.859375z" fill-rule="nonzero"></path><path fill="#000000" fill-opacity="0.0" d="m828.45276 333.06824l145.29132 0l0 39.84253l-145.29132 0z" fill-rule="nonzero"></path><path fill="#0b5394" d="m837.609 347.06638l1.78125 0l3.625 5.796875l3.640625 -5.796875l1.78125 0l-4.53125 7.0625l0 5.640625l-1.703125 0l0 -5.640625l-4.59375 -7.0625zm11.941406 8.546875q0 -2.015625 1.265625 -3.265625q1.03125 -1.046875 2.671875 -1.046875q1.5625 0 2.671875 1.109375q1.03125 1.046875 1.03125 3.203125l-6.0 0q0 1.546875 0.734375 2.296875q0.671875 0.671875 1.703125 0.671875q1.046875 0 1.484375 -0.453125q0.53125 -0.515625 0.53125 -1.1875l1.625 0q-0.296875 1.34375 -0.96875 2.0q-0.953125 0.96875 -2.671875 0.96875q-1.78125 0 -2.890625 -1.109375q-1.1875 -1.1875 -1.1875 -3.1875zm3.859375 -3.046875q-0.890625 0 -1.484375 0.59375q-0.515625 0.515625 -0.671875 1.265625l4.234375 0q0 -0.75 -0.59375 -1.34375q-0.515625 -0.515625 -1.484375 -0.515625zm5.859375 1.265625q0 -0.96875 0.671875 -1.640625q0.890625 -0.890625 2.53125 -0.890625q1.78125 0 2.59375 0.8125q0.734375 0.75 0.734375 1.640625l-1.484375 0q-0.0625 -0.515625 -0.296875 -0.75q-0.4375 -0.4375 -1.625 -0.4375q-0.75 0 -1.1875 0.4375q-0.375 0.375 -0.375 0.828125q0 0.296875 0.21875 0.515625q0.296875 0.296875 1.859375 0.671875q0.96875 0.21875 1.640625 0.4375q0.59375 0.21875 0.890625 0.515625q0.59375 0.59375 0.59375 1.421875q0 0.890625 -0.75 1.625q-0.890625 0.890625 -2.75 0.890625q-1.84375 0 -2.734375 -0.890625q-0.75 -0.734375 -0.75 -1.859375l1.484375 0q0.078125 0.671875 0.375 0.96875q0.515625 0.515625 1.5625 0.515625q1.25 0 1.703125 -0.4375q0.296875 -0.296875 0.296875 -0.75q0 -0.296875 -0.375 -0.65625q-0.296875 -0.296875 -0.96875 -0.453125q-1.328125 -0.296875 -2.0 -0.515625q-0.8125 -0.21875 -1.1875 -0.59375q-0.671875 -0.671875 -0.671875 -1.40625zm15.9609375 -6.765625l2.375 0l-0.375 8.09375l-1.625 0l-0.375 -8.09375zm0.15625 10.546875l2.078125 0l0 2.15625l-2.078125 0l0 -2.15625z" fill-rule="nonzero"></path><path fill="#000000" fill-opacity="0.0" d="m296.74802 335.3068l145.29135 0l0 39.8425l-145.29135 0z" fill-rule="nonzero"></path><path fill="#0b5394" d="m305.90427 349.3049l1.78125 0l3.625 5.796875l3.640625 -5.796875l1.78125 0l-4.53125 7.0625l0 5.640625l-1.703125 0l0 -5.640625l-4.59375 -7.0625zm11.941406 8.546875q0 -2.015625 1.265625 -3.265625q1.03125 -1.046875 2.671875 -1.046875q1.5625 0 2.671875 1.109375q1.03125 1.046875 1.03125 3.203125l-6.0 0q0 1.546875 0.734375 2.296875q0.671875 0.671875 1.703125 0.671875q1.046875 0 1.484375 -0.453125q0.53125 -0.515625 0.53125 -1.1875l1.625 0q-0.296875 1.34375 -0.96875 2.0q-0.953125 0.96875 -2.671875 0.96875q-1.78125 0 -2.890625 -1.109375q-1.1875 -1.1875 -1.1875 -3.1875zm3.859375 -3.046875q-0.890625 0 -1.484375 0.59375q-0.515625 0.515625 -0.671875 1.265625l4.234375 0q0 -0.75 -0.59375 -1.34375q-0.515625 -0.515625 -1.484375 -0.515625zm5.859375 1.265625q0 -0.96875 0.671875 -1.640625q0.890625 -0.890625 2.53125 -0.890625q1.78125 0 2.59375 0.8125q0.734375 0.75 0.734375 1.640625l-1.484375 0q-0.0625 -0.515625 -0.296875 -0.75q-0.4375 -0.4375 -1.625 -0.4375q-0.75 0 -1.1875 0.4375q-0.375 0.375 -0.375 0.828125q0 0.296875 0.21875 0.515625q0.296875 0.296875 1.859375 0.671875q0.96875 0.21875 1.640625 0.4375q0.59375 0.21875 0.890625 0.515625q0.59375 0.59375 0.59375 1.421875q0 0.890625 -0.75 1.625q-0.890625 0.890625 -2.75 0.890625q-1.84375 0 -2.734375 -0.890625q-0.75 -0.734375 -0.75 -1.859375l1.484375 0q0.078125 0.671875 0.375 0.96875q0.515625 0.515625 1.5625 0.515625q1.25 0 1.703125 -0.4375q0.296875 -0.296875 0.296875 -0.75q0 -0.296875 -0.375 -0.65625q-0.296875 -0.296875 -0.96875 -0.453125q-1.328125 -0.296875 -2.0 -0.515625q-0.8125 -0.21875 -1.1875 -0.59375q-0.671875 -0.671875 -0.671875 -1.40625zm15.9609375 -6.765625l2.375 0l-0.375 8.09375l-1.625 0l-0.375 -8.09375zm0.15625 10.546875l2.078125 0l0 2.15625l-2.078125 0l0 -2.15625z" fill-rule="nonzero"></path><path fill="#000000" fill-opacity="0.0" d="m139.08661 333.06824l103.2126 0l0 39.84253l-103.2126 0z" fill-rule="nonzero"></path><path fill="#990000" d="m171.62651 347.06638l1.84375 0l5.9375 10.03125l0 -10.03125l1.71875 0l0 12.703125l-1.859375 0l-5.9375 -10.03125l0 10.03125l-1.703125 0l0 -12.703125zm11.640625 8.546875q0 -1.9375 1.265625 -3.203125q1.109375 -1.109375 2.75 -1.109375q1.625 0 2.75 1.109375q1.25 1.265625 1.25 3.203125q0 1.921875 -1.25 3.1875q-1.125 1.109375 -2.75 1.109375q-1.640625 0 -2.75 -1.109375q-1.265625 -1.265625 -1.265625 -3.1875zm4.015625 -2.96875q-0.890625 0 -1.484375 0.59375q-0.890625 0.890625 -0.890625 2.375q0 1.484375 0.8125 2.296875q0.671875 0.671875 1.5625 0.671875q0.890625 0 1.5625 -0.671875q0.8125 -0.8125 0.8125 -2.296875q0 -1.484375 -0.890625 -2.375q-0.59375 -0.59375 -1.484375 -0.59375zm13.1328125 -5.578125l2.375 0l-0.375 8.09375l-1.625 0l-0.375 -8.09375zm0.15625 10.546875l2.078125 0l0 2.15625l-2.078125 0l0 -2.15625z" fill-rule="nonzero"></path><path fill="#000000" fill-opacity="0.0" d="m643.9921 335.3058l112.50391 0l0 39.8425l-112.50391 0z" fill-rule="nonzero"></path><path fill="#990000" d="m681.1777 349.3039l1.84375 0l5.9375 10.03125l0 -10.03125l1.71875 0l0 12.703125l-1.859375 0l-5.9375 -10.03125l0 10.03125l-1.703125 0l0 -12.703125zm11.640625 8.546875q0 -1.9375 1.265625 -3.203125q1.109375 -1.109375 2.75 -1.109375q1.625 0 2.75 1.109375q1.25 1.265625 1.25 3.203125q0 1.921875 -1.25 3.1875q-1.125 1.109375 -2.75 1.109375q-1.640625 0 -2.75 -1.109375q-1.265625 -1.265625 -1.265625 -3.1875zm4.015625 -2.96875q-0.890625 0 -1.484375 0.59375q-0.890625 0.890625 -0.890625 2.375q0 1.484375 0.8125 2.296875q0.671875 0.671875 1.5625 0.671875q0.890625 0 1.5625 -0.671875q0.8125 -0.8125 0.8125 -2.296875q0 -1.484375 -0.890625 -2.375q-0.59375 -0.59375 -1.484375 -0.59375zm13.1328125 -5.578125l2.375 0l-0.375 8.09375l-1.625 0l-0.375 -8.09375zm0.15625 10.546875l2.078125 0l0 2.15625l-2.078125 0l0 -2.15625z" fill-rule="nonzero"></path><path stroke="#000000" stroke-width="1.0" stroke-linecap="butt" d="m786.8425 20.333334l0 106.58792" fill-rule="nonzero"></path><path stroke="#000000" stroke-width="1.0" stroke-linecap="butt" d="m863.0131 20.333334l0 106.58792" fill-rule="nonzero"></path><path stroke="#000000" stroke-width="1.0" stroke-linecap="butt" d="m939.1837 20.333334l0 106.58792" fill-rule="nonzero"></path><path stroke="#000000" stroke-width="1.0" stroke-linecap="butt" d="m1015.3543 20.333334l0 106.58792" fill-rule="nonzero"></path><path stroke="#000000" stroke-width="1.0" stroke-linecap="butt" d="m786.3438 20.832022l229.50922 0" fill-rule="nonzero"></path><path stroke="#000000" stroke-width="1.0" stroke-linecap="butt" d="m786.3438 56.02887l229.50922 0" fill-rule="nonzero"></path><path stroke="#000000" stroke-width="1.0" stroke-linecap="butt" d="m786.3438 91.22572l229.50922 0" fill-rule="nonzero"></path><path stroke="#000000" stroke-width="1.0" stroke-linecap="butt" d="m786.3438 126.42257l229.50922 0" fill-rule="nonzero"></path><path fill="#000000" d="m883.4975 43.28827q-3.921875 -2.03125 -4.9375 -6.390625q-1.0625 4.921875 -5.125 6.703125l-0.609375 -1.171875q4.421875 -1.828125 4.78125 -7.0625l0.65625 0.046875l0 -1.625l-2.640625 0l0 -0.953125l3.8125 0l0 1.828125q0 4.875 4.765625 7.359375l-0.703125 1.265625zm4.875 -3.609375l1.265625 -0.453125l0.25 0.65625q1.171875 -0.75 1.734375 -1.765625l-2.03125 0l0 -0.96875l7.65625 0l0 0.96875l-4.609375 0q-0.203125 0.40625 -0.40625 0.65625l4.71875 0l-0.3125 3.703125q-0.09375 1.171875 -1.015625 1.171875l-1.21875 0l-0.140625 -0.96875l0.953125 0q0.359375 0 0.40625 -0.359375l0.265625 -2.578125l-0.5625 0q-0.921875 3.453125 -5.125 4.15625l-0.3125 -0.953125q3.609375 -0.671875 4.421875 -3.203125l-0.859375 0q-0.921875 2.171875 -3.40625 2.640625l-0.3125 -0.8125q2.03125 -0.515625 2.703125 -1.828125l-0.765625 0q-1.0625 0.953125 -1.671875 1.265625l-0.40625 -0.765625l-3.203125 1.265625q-0.046875 0.359375 -0.25 0.15625l-0.40625 -1.109375l1.625 -0.46875l0 -3.859375l-1.578125 0l0 -0.953125l1.578125 0l0 -2.90625l0.953125 0q0.40625 0.0625 0.0625 0.3125l0 2.59375l1.515625 0l0 0.953125l-1.515625 0l0 3.453125zm2.234375 -3.140625l0 -4.109375l5.328125 0l0 4.109375l-5.328125 0zm1.015625 -2.390625l3.296875 0l0 -0.90625l-3.296875 0l0 0.90625zm0 1.578125l3.296875 0l0 -0.765625l-3.296875 0l0 0.765625zm7.0 5.4375q2.140625 -1.6875 2.6875 -3.515625l-2.328125 0l0 -0.953125l2.328125 0l0 -4.53125l0.96875 0q0.40625 0.0625 0.046875 0.3125l0 4.21875l2.09375 0l0 0.953125l-2.09375 0l0 0.671875q1.28125 0.75 2.09375 1.671875l-0.609375 1.015625q-0.8125 -0.96875 -1.484375 -1.46875l0 4.21875l-1.015625 0l0 -3.921875q-0.65625 1.21875 -2.03125 2.34375l-0.65625 -1.015625zm4.109375 -5.28125q0.515625 -1.125 0.96875 -2.75l1.0625 0.359375q0.265625 0.203125 -0.09375 0.203125q-0.515625 1.515625 -0.96875 2.59375l-0.96875 -0.40625zm-2.78125 -2.4375q0.703125 1.21875 0.953125 2.328125l-1.015625 0.40625q-0.25 -1.015625 -0.90625 -2.328125l0.96875 -0.40625zm8.78125 -1.125q0.40625 0.046875 0.046875 0.3125l0 6.4375l1.375 -0.34375l0.296875 1.0625l-1.671875 0.359375l0 3.609375l-1.015625 0l0 -3.359375l-2.734375 0.609375l-0.265625 -1.0625l3.0 -0.609375l0 -7.015625l0.96875 0zm-2.890625 1.46875q0.953125 0.609375 1.515625 1.21875l-0.703125 0.921875q-0.46875 -0.453125 -1.484375 -1.265625l0.671875 -0.875zm-0.15625 2.796875q0.765625 0.453125 1.515625 1.21875l-0.703125 0.921875q-0.609375 -0.671875 -1.46875 -1.28125l0.65625 -0.859375z" fill-rule="nonzero"></path><path fill="#000000" d="m951.02747 38.210144l0 -2.59375l-1.828125 0l0 -0.953125l1.828125 0l0 -2.5l0.96875 0q0.40625 0.0625 0.046875 0.3125l0 2.1875l1.625 0l0 0.953125l-1.625 0l0 2.34375l1.734375 -0.5625l0.25 0.96875l-1.984375 0.703125l0 3.8125q0 0.8125 -0.8125 0.8125l-1.109375 0l-0.265625 -0.953125l0.96875 0q0.203125 0 0.203125 -0.21875l0 -3.140625l-1.421875 0.453125q-0.046875 0.453125 -0.25 0.15625l-0.40625 -1.265625l2.078125 -0.515625zm9.453125 -3.5l-2.5 0l0 8.125q0 0.8125 -0.8125 0.8125l-1.109375 0l-0.203125 -0.96875l0.90625 0q0.203125 0 0.203125 -0.203125l0 -7.765625l-2.78125 0l0 -1.125l6.296875 0l0 1.125zm6.140625 6.859375l0 -9.0l1.109375 0q0.515625 0.109375 0.0625 0.40625l0 2.953125l4.109375 0l0 1.109375l-4.109375 0l0 4.53125l5.28125 0l0 1.109375l-11.03125 0l0 -1.109375l4.578125 0zm19.1875 -4.984375q-1.3125 0.15625 -2.53125 0.25l0 1.734375q0 2.9375 -1.734375 5.078125l-1.0625 -0.609375q1.78125 -2.03125 1.78125 -4.671875l0 -1.421875q-1.9375 0.15625 -3.65625 0.15625l0 -1.125q1.71875 0.046875 3.65625 -0.09375l0 -3.109375l0.90625 0q0.46875 0.109375 0.109375 0.40625l0 2.640625q1.265625 -0.09375 2.390625 -0.296875l0.140625 1.0625zm-9.03125 1.828125q0 1.828125 0.40625 3.859375l-1.125 0.203125q-0.34375 -1.828125 -0.34375 -4.0625q0 -2.9375 0.5 -5.125l0.96875 0.25q0.65625 0.15625 0.046875 0.453125q-0.453125 2.1875 -0.453125 4.421875zm7.96875 -6.656248q0.859375 0.4687481 1.875 1.2187481l-0.453125 0.71875q-1.0625 -0.8125 -1.875 -1.21875l0.453125 -0.7187481zm-0.609375 1.2812481q0.8125 0.34375 1.875 1.21875l-0.453125 0.703125q-1.171875 -0.859375 -1.875 -1.21875l0.453125 -0.703125z" fill-rule="nonzero"></path><path fill="#000000" d="m805.3425 69.50075l2.484375 0l0 2.796875l-1.015625 0l0 -1.828125l-8.9375 0l0 1.96875l-1.015625 0l0 -2.9375l7.359375 0l1.078125 -2.234375l1.0625 0.5q0.203125 0.265625 -0.15625 0.3125l-0.859375 1.421875zm-3.09375 -2.1875q0.75 0.96875 1.015625 1.578125l-1.078125 0.5625q-0.40625 -0.921875 -0.90625 -1.578125l0.96875 -0.5625zm-0.359375 5.84375l0.859375 0.046875l1.46875 -0.859375l-5.375 0l0 -0.8125l6.25 0l0.140625 -0.15625l0.875 0.8125q0.140625 0.203125 -0.265625 0.203125q-1.515625 0.96875 -2.9375 1.578125l0 0.5l5.28125 0l0 0.96875l-5.28125 0l0 2.59375q0 0.8125 -0.8125 0.8125l-1.375 0l-0.203125 -1.125l1.171875 0q0.203125 0 0.203125 -0.203125l0 -2.078125l-5.28125 0l0 -0.96875l5.28125 0l0 -1.3125zm-2.640625 -3.703125q-0.453125 -0.921875 -0.921875 -1.421875l0.96875 -0.5625q0.5625 0.609375 1.015625 1.421875l-1.0625 0.5625zm13.8125 -0.671875q-0.046875 0.265625 -0.3125 1.171875l2.34375 0l0 -2.53125l0.96875 0q0.40625 0.046875 0.046875 0.296875l0 2.234375l4.15625 0l0 0.96875l-4.15625 0l0 2.328125l3.546875 0l0 0.96875l-3.546875 0l0 3.0l4.828125 0l0 0.96875l-11.125 0l0 -0.96875l5.28125 0l0 -3.0l-3.40625 0l0 -0.96875l3.40625 0l0 -2.328125l-2.640625 0q-0.609375 1.578125 -1.828125 2.796875l-0.765625 -0.8125q1.828125 -1.78125 2.1875 -4.671875l1.0625 0.25q0.3125 0.09375 -0.046875 0.296875z" fill-rule="nonzero"></path><path fill="#000000" d="m911.13684 72.79762q0 -2.234375 1.015625 -3.25q0.71875 -0.703125 1.78125 -0.703125q1.0625 0 1.78125 0.703125q1.015625 1.015625 1.015625 3.25l0 1.015625q0 2.1875 -1.015625 3.203125q-0.71875 0.703125 -1.78125 0.703125q-1.0625 0 -1.78125 -0.703125q-1.015625 -1.015625 -1.015625 -3.203125l0 -1.015625zm2.796875 -3.0q-0.5 0 -0.90625 0.40625q-0.671875 0.671875 -0.671875 2.5l0 1.15625q0 1.78125 0.71875 2.5q0.40625 0.40625 0.859375 0.40625q0.515625 0 0.921875 -0.40625q0.65625 -0.671875 0.65625 -2.5l0 -1.15625q0 -1.828125 -0.65625 -2.5q-0.40625 -0.40625 -0.921875 -0.40625zm14.578125 7.875q0 0.8125 -0.8125 0.8125l-1.328125 0l-0.296875 -1.109375l1.0625 0q0.203125 0 0.203125 -0.203125l0 -3.40625l-7.46875 0l0 4.78125l-1.15625 0l0 -10.3125l9.796875 0l0 9.4375zm-1.171875 -8.484375l-3.25 0l0 3.609375l3.25 0l0 -3.609375zm-7.46875 0l0 3.609375l3.203125 0l0 -3.609375l-3.203125 0z" fill-rule="nonzero"></path><path fill="#000000" d="m968.2137 71.93825q0 -1.578125 0.8125 -2.390625q0.671875 -0.65625 1.578125 -0.65625q1.125 0 1.78125 0.65625q0.65625 0.65625 0.65625 1.625q0 1.21875 -0.765625 2.140625q-0.703125 0.859375 -1.46875 1.671875q-0.40625 0.453125 -0.8125 0.90625q-0.359375 0.40625 -0.609375 0.8125l3.8125 0l0 0.96875l-5.1875 0l0 -0.859375q0.109375 -0.515625 0.875 -1.421875q1.265625 -1.375 2.078125 -2.28125q0.859375 -0.921875 0.859375 -1.9375q0 -0.609375 -0.40625 -1.015625q-0.296875 -0.296875 -0.765625 -0.296875q-0.40625 0 -0.703125 0.296875q-0.5625 0.5625 -0.5625 1.78125l-1.171875 0zm6.09375 0.859375q0 -2.234375 1.015625 -3.25q0.71875 -0.703125 1.78125 -0.703125q1.0625 0 1.78125 0.703125q1.015625 1.015625 1.015625 3.25l0 1.015625q0 2.1875 -1.015625 3.203125q-0.71875 0.703125 -1.78125 0.703125q-1.0625 0 -1.78125 -0.703125q-1.015625 -1.015625 -1.015625 -3.203125l0 -1.015625zm2.796875 -3.0q-0.5 0 -0.90625 0.40625q-0.671875 0.671875 -0.671875 2.5l0 1.15625q0 1.78125 0.71875 2.5q0.40625 0.40625 0.859375 0.40625q0.515625 0 0.921875 -0.40625q0.65625 -0.671875 0.65625 -2.5l0 -1.15625q0 -1.828125 -0.65625 -2.5q-0.40625 -0.40625 -0.921875 -0.40625zm3.703125 3.0q0 -2.234375 1.015625 -3.25q0.71875 -0.703125 1.78125 -0.703125q1.0625 0 1.78125 0.703125q1.015625 1.015625 1.015625 3.25l0 1.015625q0 2.1875 -1.015625 3.203125q-0.71875 0.703125 -1.78125 0.703125q-1.0625 0 -1.78125 -0.703125q-1.015625 -1.015625 -1.015625 -3.203125l0 -1.015625zm2.796875 -3.0q-0.5 0 -0.90625 0.40625q-0.671875 0.671875 -0.671875 2.5l0 1.15625q0 1.78125 0.71875 2.5q0.40625 0.40625 0.859375 0.40625q0.515625 0 0.921875 -0.40625q0.65625 -0.671875 0.65625 -2.5l0 -1.15625q0 -1.828125 -0.65625 -2.5q-0.40625 -0.40625 -0.921875 -0.40625zm3.703125 3.0q0 -2.234375 1.015625 -3.25q0.71875 -0.703125 1.78125 -0.703125q1.0625 0 1.78125 0.703125q1.015625 1.015625 1.015625 3.25l0 1.015625q0 2.1875 -1.015625 3.203125q-0.71875 0.703125 -1.78125 0.703125q-1.0625 0 -1.78125 -0.703125q-1.015625 -1.015625 -1.015625 -3.203125l0 -1.015625zm2.796875 -3.0q-0.5 0 -0.90625 0.40625q-0.671875 0.671875 -0.671875 2.5l0 1.15625q0 1.78125 0.71875 2.5q0.40625 0.40625 0.859375 0.40625q0.515625 0 0.921875 -0.40625q0.65625 -0.671875 0.65625 -2.5l0 -1.15625q0 -1.828125 -0.65625 -2.5q-0.40625 -0.40625 -0.921875 -0.40625zm14.578125 7.875q0 0.8125 -0.8125 0.8125l-1.328125 0l-0.296875 -1.109375l1.0625 0q0.203125 0 0.203125 -0.203125l0 -3.40625l-7.46875 0l0 4.78125l-1.15625 0l0 -10.3125l9.796875 0l0 9.4375zm-1.171875 -8.484375l-3.25 0l0 3.609375l3.25 0l0 -3.609375zm-7.46875 0l0 3.609375l3.203125 0l0 -3.609375l-3.203125 0z" fill-rule="nonzero"></path><path fill="#000000" d="m799.655 104.79134l1.0625 0l0.203125 -0.203125l0.765625 0.765625l-0.359375 0.25q-0.609375 1.171875 -1.671875 2.5q1.265625 0.40625 2.234375 1.0625l-0.5625 1.109375q-0.859375 -0.703125 -1.671875 -1.15625l0 5.03125l-1.015625 0l0 -5.03125q-0.921875 0.8125 -1.875 1.359375l-0.46875 -1.015625q2.4375 -1.3125 3.8125 -3.703125l-3.34375 0l0 -0.96875l1.875 0l0 -2.171875l0.96875 0q0.40625 0.046875 0.046875 0.296875l0 1.875zm5.53125 -1.875q0.515625 0.109375 0.046875 0.40625l0 2.6875l2.34375 0l0 1.125l-2.34375 0l0 5.28125l2.796875 0l0 1.125l-6.953125 0l0 -1.125l3.0 0l0 -5.28125l-2.1875 0l0 -1.125l2.1875 0l0 -3.09375l1.109375 0zm12.953125 3.609375q-1.78125 -0.96875 -2.890625 -2.890625q-1.125 1.828125 -2.59375 2.890625l5.484375 0zm2.390625 1.0625q-0.875 -0.203125 -2.296875 -1.015625l0 1.0625l-5.734375 0l0 -1.015625q-1.375 0.96875 -2.59375 1.328125l-0.453125 -1.21875q3.5625 -0.96875 5.28125 -4.171875l1.0625 0.15625q0.40625 0.046875 0.0625 0.3125q1.625 2.4375 5.171875 3.34375l-0.5 1.21875zm-1.125 6.453125q-0.40625 -0.5625 -0.96875 -1.0625l-7.359375 0.8125q-0.25 0.25 -0.453125 0.09375l-0.359375 -1.265625l2.078125 -0.109375l1.421875 -2.578125l-3.65625 0l0 -1.125l10.421875 0l0 1.125l-5.484375 0l-1.53125 2.53125l4.171875 -0.296875q-0.671875 -0.609375 -1.484375 -1.21875l0.921875 -0.609375q2.4375 1.828125 3.34375 3.046875l-1.0625 0.65625zm8.234375 -11.015625l1.109375 0q0.515625 0.09375 0.046875 0.40625l0 2.078125q0.359375 4.875 5.1875 6.953125l-0.609375 1.28125q-3.5 -1.53125 -4.984375 -5.546875q-1.0625 3.8125 -4.8125 5.546875l-0.765625 -1.125q4.828125 -1.875 4.828125 -6.953125l0 -2.640625z" fill-rule="nonzero"></path><path fill="#000000" d="m894.13684 105.05697q0.453125 -0.46875 0.5 -1.015625l0.609375 0l0 8.78125l-1.171875 0l0 -6.75l-1.515625 0l0 -0.609375l0.453125 0q0.71875 0 1.125 -0.40625zm4.8125 -0.875l4.375 0l0 0.96875l-3.40625 0l0 0.15625q-0.046875 0.96875 -0.15625 1.875q-0.046875 0.15625 -0.046875 0.3125q0.65625 -0.609375 1.421875 -0.609375q1.015625 0 1.671875 0.65625q0.71875 0.703125 0.71875 2.078125q0 1.734375 -0.921875 2.640625q-0.703125 0.71875 -1.765625 0.71875q-1.015625 0 -1.6875 -0.671875q-0.65625 -0.65625 -0.8125 -1.96875l1.171875 0q0.109375 0.953125 0.515625 1.359375q0.296875 0.3125 0.75 0.3125q0.609375 0 0.96875 -0.359375q0.5625 -0.5625 0.5625 -1.875q0 -1.265625 -0.453125 -1.734375q-0.3125 -0.296875 -0.71875 -0.296875q-0.609375 0 -1.0625 0.453125q-0.3125 0.3125 -0.40625 0.453125l-1.015625 0q0.046875 -0.203125 0.046875 -0.34375l0.25 -3.921875l0 -0.203125zm5.6875 3.8125q0 -2.234375 1.015625 -3.25q0.71875 -0.703125 1.78125 -0.703125q1.0625 0 1.78125 0.703125q1.015625 1.015625 1.015625 3.25l0 1.015625q0 2.1875 -1.015625 3.203125q-0.71875 0.703125 -1.78125 0.703125q-1.0625 0 -1.78125 -0.703125q-1.015625 -1.015625 -1.015625 -3.203125l0 -1.015625zm2.796875 -3.0q-0.5 0 -0.90625 0.40625q-0.671875 0.671875 -0.671875 2.5l0 1.15625q0 1.78125 0.71875 2.5q0.40625 0.40625 0.859375 0.40625q0.515625 0 0.921875 -0.40625q0.65625 -0.671875 0.65625 -2.5l0 -1.15625q0 -1.828125 -0.65625 -2.5q-0.40625 -0.40625 -0.921875 -0.40625zm3.703125 3.0q0 -2.234375 1.015625 -3.25q0.71875 -0.703125 1.78125 -0.703125q1.0625 0 1.78125 0.703125q1.015625 1.015625 1.015625 3.25l0 1.015625q0 2.1875 -1.015625 3.203125q-0.71875 0.703125 -1.78125 0.703125q-1.0625 0 -1.78125 -0.703125q-1.015625 -1.015625 -1.015625 -3.203125l0 -1.015625zm2.796875 -3.0q-0.5 0 -0.90625 0.40625q-0.671875 0.671875 -0.671875 2.5l0 1.15625q0 1.78125 0.71875 2.5q0.40625 0.40625 0.859375 0.40625q0.515625 0 0.921875 -0.40625q0.65625 -0.671875 0.65625 -2.5l0 -1.15625q0 -1.828125 -0.65625 -2.5q-0.40625 -0.40625 -0.921875 -0.40625zm14.578125 7.875q0 0.8125 -0.8125 0.8125l-1.328125 0l-0.296875 -1.109375l1.0625 0q0.203125 0 0.203125 -0.203125l0 -3.40625l-7.46875 0l0 4.78125l-1.15625 0l0 -10.3125l9.796875 0l0 9.4375zm-1.171875 -8.484375l-3.25 0l0 3.609375l3.25 0l0 -3.609375zm-7.46875 0l0 3.609375l3.203125 0l0 -3.609375l-3.203125 0z" fill-rule="nonzero"></path><path fill="#000000" d="m968.2137 107.13509q0 -1.578125 0.8125 -2.390625q0.671875 -0.65625 1.578125 -0.65625q1.125 0 1.78125 0.65625q0.65625 0.65625 0.65625 1.625q0 1.21875 -0.765625 2.140625q-0.703125 0.859375 -1.46875 1.671875q-0.40625 0.453125 -0.8125 0.90625q-0.359375 0.40625 -0.609375 0.8125l3.8125 0l0 0.96875l-5.1875 0l0 -0.859375q0.109375 -0.515625 0.875 -1.421875q1.265625 -1.375 2.078125 -2.28125q0.859375 -0.921875 0.859375 -1.9375q0 -0.609375 -0.40625 -1.015625q-0.296875 -0.296875 -0.765625 -0.296875q-0.40625 0 -0.703125 0.296875q-0.5625 0.5625 -0.5625 1.78125l-1.171875 0zm6.09375 0.859375q0 -2.234375 1.015625 -3.25q0.71875 -0.703125 1.78125 -0.703125q1.0625 0 1.78125 0.703125q1.015625 1.015625 1.015625 3.25l0 1.015625q0 2.1875 -1.015625 3.203125q-0.71875 0.703125 -1.78125 0.703125q-1.0625 0 -1.78125 -0.703125q-1.015625 -1.015625 -1.015625 -3.203125l0 -1.015625zm2.796875 -3.0q-0.5 0 -0.90625 0.40625q-0.671875 0.671875 -0.671875 2.5l0 1.15625q0 1.78125 0.71875 2.5q0.40625 0.40625 0.859375 0.40625q0.515625 0 0.921875 -0.40625q0.65625 -0.671875 0.65625 -2.5l0 -1.15625q0 -1.828125 -0.65625 -2.5q-0.40625 -0.40625 -0.921875 -0.40625zm3.703125 3.0q0 -2.234375 1.015625 -3.25q0.71875 -0.703125 1.78125 -0.703125q1.0625 0 1.78125 0.703125q1.015625 1.015625 1.015625 3.25l0 1.015625q0 2.1875 -1.015625 3.203125q-0.71875 0.703125 -1.78125 0.703125q-1.0625 0 -1.78125 -0.703125q-1.015625 -1.015625 -1.015625 -3.203125l0 -1.015625zm2.796875 -3.0q-0.5 0 -0.90625 0.40625q-0.671875 0.671875 -0.671875 2.5l0 1.15625q0 1.78125 0.71875 2.5q0.40625 0.40625 0.859375 0.40625q0.515625 0 0.921875 -0.40625q0.65625 -0.671875 0.65625 -2.5l0 -1.15625q0 -1.828125 -0.65625 -2.5q-0.40625 -0.40625 -0.921875 -0.40625zm3.703125 3.0q0 -2.234375 1.015625 -3.25q0.71875 -0.703125 1.78125 -0.703125q1.0625 0 1.78125 0.703125q1.015625 1.015625 1.015625 3.25l0 1.015625q0 2.1875 -1.015625 3.203125q-0.71875 0.703125 -1.78125 0.703125q-1.0625 0 -1.78125 -0.703125q-1.015625 -1.015625 -1.015625 -3.203125l0 -1.015625zm2.796875 -3.0q-0.5 0 -0.90625 0.40625q-0.671875 0.671875 -0.671875 2.5l0 1.15625q0 1.78125 0.71875 2.5q0.40625 0.40625 0.859375 0.40625q0.515625 0 0.921875 -0.40625q0.65625 -0.671875 0.65625 -2.5l0 -1.15625q0 -1.828125 -0.65625 -2.5q-0.40625 -0.40625 -0.921875 -0.40625zm14.578125 7.875q0 0.8125 -0.8125 0.8125l-1.328125 0l-0.296875 -1.109375l1.0625 0q0.203125 0 0.203125 -0.203125l0 -3.40625l-7.46875 0l0 4.78125l-1.15625 0l0 -10.3125l9.796875 0l0 9.4375zm-1.171875 -8.484375l-3.25 0l0 3.609375l3.25 0l0 -3.609375zm-7.46875 0l0 3.609375l3.203125 0l0 -3.609375l-3.203125 0z" fill-rule="nonzero"></path><path fill="#ffffff" d="m565.77954 490.14456l0 0c0 -5.357727 4.3432617 -9.700989 9.700989 -9.700989l152.12555 0c2.572876 0 5.040344 1.0220642 6.85968 2.841339c1.8192749 1.8193054 2.8413086 4.2867737 2.8413086 6.8596497l0 38.802765c0 5.357666 -4.3432617 9.700989 -9.700989 9.700989l-152.12555 0c-5.357727 0 -9.700989 -4.3433228 -9.700989 -9.700989z" fill-rule="nonzero"></path><path stroke="#666666" stroke-width="4.0" stroke-linejoin="round" stroke-linecap="butt" d="m565.77954 490.14456l0 0c0 -5.357727 4.3432617 -9.700989 9.700989 -9.700989l152.12555 0c2.572876 0 5.040344 1.0220642 6.85968 2.841339c1.8192749 1.8193054 2.8413086 4.2867737 2.8413086 6.8596497l0 38.802765c0 5.357666 -4.3432617 9.700989 -9.700989 9.700989l-152.12555 0c-5.357727 0 -9.700989 -4.3433228 -9.700989 -9.700989z" fill-rule="nonzero"></path><path fill="#000000" d="m627.35583 504.8097q0.65625 -0.671875 0.734375 -1.484375l0.890625 0l0 12.84375l-1.703125 0l0 -9.875l-2.234375 0l0 -0.890625l0.671875 0q1.046875 0 1.640625 -0.59375zm7.046875 -1.265625l6.375 0l0 1.421875l-4.96875 0l0 0.21875q-0.078125 1.40625 -0.21875 2.75q-0.078125 0.21875 -0.078125 0.4375q0.96875 -0.890625 2.078125 -0.890625q1.484375 0 2.453125 0.96875q1.03125 1.03125 1.03125 3.046875q0 2.515625 -1.328125 3.859375q-1.046875 1.03125 -2.59375 1.03125q-1.484375 0 -2.453125 -0.96875q-0.96875 -0.953125 -1.1875 -2.890625l1.703125 0q0.15625 1.40625 0.75 2.0q0.4375 0.453125 1.109375 0.453125q0.890625 0 1.40625 -0.515625q0.8125 -0.828125 0.8125 -2.75q0 -1.859375 -0.65625 -2.53125q-0.453125 -0.4375 -1.046875 -0.4375q-0.890625 0 -1.5625 0.671875q-0.4375 0.4375 -0.59375 0.65625l-1.484375 0q0.078125 -0.296875 0.078125 -0.515625l0.375 -5.71875l0 -0.296875zm8.3125 5.578125q0 -3.265625 1.484375 -4.75q1.03125 -1.046875 2.59375 -1.046875q1.5625 0 2.59375 1.046875q1.484375 1.484375 1.484375 4.75l0 1.484375q0 3.1875 -1.484375 4.671875q-1.03125 1.03125 -2.59375 1.03125q-1.5625 0 -2.59375 -1.03125q-1.484375 -1.484375 -1.484375 -4.671875l0 -1.484375zm4.078125 -4.390625q-0.734375 0 -1.328125 0.59375q-0.96875 0.96875 -0.96875 3.640625l0 1.703125q0 2.609375 1.03125 3.640625q0.59375 0.59375 1.265625 0.59375q0.75 0 1.34375 -0.59375q0.953125 -0.96875 0.953125 -3.640625l0 -1.703125q0 -2.671875 -0.953125 -3.640625q-0.59375 -0.59375 -1.34375 -0.59375zm5.421875 4.390625q0 -3.265625 1.484375 -4.75q1.03125 -1.046875 2.59375 -1.046875q1.5625 0 2.59375 1.046875q1.484375 1.484375 1.484375 4.75l0 1.484375q0 3.1875 -1.484375 4.671875q-1.03125 1.03125 -2.59375 1.03125q-1.5625 0 -2.59375 -1.03125q-1.484375 -1.484375 -1.484375 -4.671875l0 -1.484375zm4.078125 -4.390625q-0.734375 0 -1.328125 0.59375q-0.96875 0.96875 -0.96875 3.640625l0 1.703125q0 2.609375 1.03125 3.640625q0.59375 0.59375 1.265625 0.59375q0.75 0 1.34375 -0.59375q0.953125 -0.96875 0.953125 -3.640625l0 -1.703125q0 -2.671875 -0.953125 -3.640625q-0.59375 -0.59375 -1.34375 -0.59375zm21.296875 11.515625q0 1.1875 -1.1875 1.1875l-1.921875 0l-0.453125 -1.640625l1.5625 0q0.296875 0 0.296875 -0.296875l0 -4.96875l-10.90625 0l0 6.984375l-1.703125 0l0 -15.078125l14.3125 0l0 13.8125zm-1.703125 -12.40625l-4.75 0l0 5.28125l4.75 0l0 -5.28125zm-10.90625 0l0 5.28125l4.671875 0l0 -5.28125l-4.671875 0z" fill-rule="nonzero"></path><path fill="#ffffff" d="m39.102364 657.84534l0 0c0 -5.357727 4.343277 -9.700989 9.700981 -9.700989l152.1256 0c2.5728607 0 5.040344 1.0220947 6.8596344 2.8413696c1.8192902 1.8192749 2.8413544 4.286743 2.8413544 6.859619l0 38.802734c0 5.357727 -4.343277 9.700989 -9.700989 9.700989l-152.1256 0c-5.357704 0 -9.700981 -4.3432617 -9.700981 -9.700989z" fill-rule="nonzero"></path><path stroke="#ea9999" stroke-width="4.0" stroke-linejoin="round" stroke-linecap="butt" d="m39.102364 657.84534l0 0c0 -5.357727 4.343277 -9.700989 9.700981 -9.700989l152.1256 0c2.5728607 0 5.040344 1.0220947 6.8596344 2.8413696c1.8192902 1.8192749 2.8413544 4.286743 2.8413544 6.859619l0 38.802734c0 5.357727 -4.343277 9.700989 -9.700989 9.700989l-152.1256 0c-5.357704 0 -9.700981 -4.3432617 -9.700981 -9.700989z" fill-rule="nonzero"></path><path fill="#000000" d="m102.97552 671.2448l6.375 0l0 1.421875l-4.96875 0l0 0.21875q-0.078125 1.40625 -0.21875 2.75q-0.078125 0.21875 -0.078125 0.4375q0.96875 -0.890625 2.078125 -0.890625q1.484375 0 2.453125 0.96875q1.03125 1.03125 1.03125 3.046875q0 2.515625 -1.328125 3.859375q-1.046875 1.03125 -2.59375 1.03125q-1.484375 0 -2.453125 -0.96875q-0.96875 -0.953125 -1.1875 -2.890625l1.703125 0q0.15625 1.40625 0.75 2.0q0.4375 0.453125 1.109375 0.453125q0.890625 0 1.40625 -0.515625q0.8125 -0.828125 0.8125 -2.75q0 -1.859375 -0.65625 -2.53125q-0.453125 -0.4375 -1.046875 -0.4375q-0.890625 0 -1.5625 0.671875q-0.4375 0.4375 -0.59375 0.65625l-1.484375 0q0.078125 -0.296875 0.078125 -0.515625l0.375 -5.71875l0 -0.296875zm8.3125 5.578125q0 -3.265625 1.484375 -4.75q1.03125 -1.046875 2.59375 -1.046875q1.5625 0 2.59375 1.046875q1.484375 1.484375 1.484375 4.75l0 1.484375q0 3.1875 -1.484375 4.671875q-1.03125 1.03125 -2.59375 1.03125q-1.5625 0 -2.59375 -1.03125q-1.484375 -1.484375 -1.484375 -4.671875l0 -1.484375zm4.078125 -4.390625q-0.734375 0 -1.328125 0.59375q-0.96875 0.96875 -0.96875 3.640625l0 1.703125q0 2.609375 1.03125 3.640625q0.59375 0.59375 1.265625 0.59375q0.75 0 1.34375 -0.59375q0.953125 -0.96875 0.953125 -3.640625l0 -1.703125q0 -2.671875 -0.953125 -3.640625q-0.59375 -0.59375 -1.34375 -0.59375zm5.421875 4.390625q0 -3.265625 1.484375 -4.75q1.03125 -1.046875 2.59375 -1.046875q1.5625 0 2.59375 1.046875q1.4843826 1.484375 1.4843826 4.75l0 1.484375q0 3.1875 -1.4843826 4.671875q-1.03125 1.03125 -2.59375 1.03125q-1.5625 0 -2.59375 -1.03125q-1.484375 -1.484375 -1.484375 -4.671875l0 -1.484375zm4.078125 -4.390625q-0.734375 0 -1.328125 0.59375q-0.96875 0.96875 -0.96875 3.640625l0 1.703125q0 2.609375 1.03125 3.640625q0.59375 0.59375 1.265625 0.59375q0.75 0 1.34375 -0.59375q0.953125 -0.96875 0.953125 -3.640625l0 -1.703125q0 -2.671875 -0.953125 -3.640625q-0.59375 -0.59375 -1.34375 -0.59375zm21.296883 11.515625q0 1.1875 -1.1875 1.1875l-1.921875 0l-0.453125 -1.640625l1.5625 0q0.296875 0 0.296875 -0.296875l0 -4.96875l-10.90625 0l0 6.984375l-1.703125 0l0 -15.078125l14.3125 0l0 13.8125zm-1.703125 -12.40625l-4.75 0l0 5.28125l4.75 0l0 -5.28125zm-10.90625 0l0 5.28125l4.671875 0l0 -5.28125l-4.671875 0z" fill-rule="nonzero"></path><path fill="#ffffff" d="m302.44095 657.84534l0 0c0 -5.357727 4.3432617 -9.700989 9.700989 -9.700989l152.12558 0c2.572876 0 5.040344 1.0220947 6.8596497 2.8413696c1.8192749 1.8192749 2.841339 4.286743 2.841339 6.859619l0 38.802734c0 5.357727 -4.3432617 9.700989 -9.700989 9.700989l-152.12558 0c-5.357727 0 -9.700989 -4.3432617 -9.700989 -9.700989z" fill-rule="nonzero"></path><path stroke="#ea9999" stroke-width="4.0" stroke-linejoin="round" stroke-linecap="butt" d="m302.44095 657.84534l0 0c0 -5.357727 4.3432617 -9.700989 9.700989 -9.700989l152.12558 0c2.572876 0 5.040344 1.0220947 6.8596497 2.8413696c1.8192749 1.8192749 2.841339 4.286743 2.841339 6.859619l0 38.802734c0 5.357727 -4.3432617 9.700989 -9.700989 9.700989l-152.12558 0c-5.357727 0 -9.700989 -4.3432617 -9.700989 -9.700989z" fill-rule="nonzero"></path><path fill="#000000" d="m360.97037 675.5573q0 -2.296875 1.1875 -3.484375q0.96875 -0.96875 2.296875 -0.96875q1.640625 0 2.59375 0.96875q0.96875 0.953125 0.96875 2.375q0 1.78125 -1.109375 3.109375q-1.046875 1.265625 -2.15625 2.453125q-0.59375 0.671875 -1.1875 1.328125q-0.515625 0.59375 -0.890625 1.1875l5.5625 0l0 1.421875l-7.5625 0l0 -1.265625q0.140625 -0.75 1.265625 -2.078125q1.84375 -2.0 3.03125 -3.34375q1.265625 -1.328125 1.265625 -2.8125q0 -0.890625 -0.59375 -1.484375q-0.4375 -0.453125 -1.109375 -0.453125q-0.59375 0 -1.046875 0.453125q-0.8125 0.8125 -0.8125 2.59375l-1.703125 0zm10.09375 -4.3125l6.375 0l0 1.421875l-4.96875 0l0 0.21875q-0.078125 1.40625 -0.21875 2.75q-0.078125 0.21875 -0.078125 0.4375q0.96875 -0.890625 2.078125 -0.890625q1.484375 0 2.453125 0.96875q1.03125 1.03125 1.03125 3.046875q0 2.515625 -1.328125 3.859375q-1.046875 1.03125 -2.59375 1.03125q-1.484375 0 -2.453125 -0.96875q-0.96875 -0.953125 -1.1875 -2.890625l1.703125 0q0.15625 1.40625 0.75 2.0q0.4375 0.453125 1.109375 0.453125q0.890625 0 1.40625 -0.515625q0.8125 -0.828125 0.8125 -2.75q0 -1.859375 -0.65625 -2.53125q-0.453125 -0.4375 -1.046875 -0.4375q-0.890625 0 -1.5625 0.671875q-0.4375 0.4375 -0.59375 0.65625l-1.484375 0q0.078125 -0.296875 0.078125 -0.515625l0.375 -5.71875l0 -0.296875zm8.3125 5.578125q0 -3.265625 1.484375 -4.75q1.03125 -1.046875 2.59375 -1.046875q1.5625 0 2.59375 1.046875q1.484375 1.484375 1.484375 4.75l0 1.484375q0 3.1875 -1.484375 4.671875q-1.03125 1.03125 -2.59375 1.03125q-1.5625 0 -2.59375 -1.03125q-1.484375 -1.484375 -1.484375 -4.671875l0 -1.484375zm4.078125 -4.390625q-0.734375 0 -1.328125 0.59375q-0.96875 0.96875 -0.96875 3.640625l0 1.703125q0 2.609375 1.03125 3.640625q0.59375 0.59375 1.265625 0.59375q0.75 0 1.34375 -0.59375q0.953125 -0.96875 0.953125 -3.640625l0 -1.703125q0 -2.671875 -0.953125 -3.640625q-0.59375 -0.59375 -1.34375 -0.59375zm5.421875 4.390625q0 -3.265625 1.484375 -4.75q1.03125 -1.046875 2.59375 -1.046875q1.5625 0 2.59375 1.046875q1.484375 1.484375 1.484375 4.75l0 1.484375q0 3.1875 -1.484375 4.671875q-1.03125 1.03125 -2.59375 1.03125q-1.5625 0 -2.59375 -1.03125q-1.484375 -1.484375 -1.484375 -4.671875l0 -1.484375zm4.078125 -4.390625q-0.734375 0 -1.328125 0.59375q-0.96875 0.96875 -0.96875 3.640625l0 1.703125q0 2.609375 1.03125 3.640625q0.59375 0.59375 1.265625 0.59375q0.75 0 1.34375 -0.59375q0.953125 -0.96875 0.953125 -3.640625l0 -1.703125q0 -2.671875 -0.953125 -3.640625q-0.59375 -0.59375 -1.34375 -0.59375zm21.296875 11.515625q0 1.1875 -1.1875 1.1875l-1.921875 0l-0.453125 -1.640625l1.5625 0q0.296875 0 0.296875 -0.296875l0 -4.96875l-10.90625 0l0 6.984375l-1.703125 0l0 -15.078125l14.3125 0l0 13.8125zm-1.703125 -12.40625l-4.75 0l0 5.28125l4.75 0l0 -5.28125zm-10.90625 0l0 5.28125l4.671875 0l0 -5.28125l-4.671875 0z" fill-rule="nonzero"></path><path fill="#ffffff" d="m565.77954 657.84534l0 0c0 -5.357727 4.3432617 -9.700989 9.700989 -9.700989l152.12555 0c2.572876 0 5.040344 1.0220947 6.85968 2.8413696c1.8192749 1.8192749 2.8413086 4.286743 2.8413086 6.859619l0 38.802734c0 5.357727 -4.3432617 9.700989 -9.700989 9.700989l-152.12555 0c-5.357727 0 -9.700989 -4.3432617 -9.700989 -9.700989z" fill-rule="nonzero"></path><path stroke="#ea9999" stroke-width="4.0" stroke-linejoin="round" stroke-linecap="butt" d="m565.77954 657.84534l0 0c0 -5.357727 4.3432617 -9.700989 9.700989 -9.700989l152.12555 0c2.572876 0 5.040344 1.0220947 6.85968 2.8413696c1.8192749 1.8192749 2.8413086 4.286743 2.8413086 6.859619l0 38.802734c0 5.357727 -4.3432617 9.700989 -9.700989 9.700989l-152.12555 0c-5.357727 0 -9.700989 -4.3432617 -9.700989 -9.700989z" fill-rule="nonzero"></path><path fill="#000000" d="m624.30896 675.5573q0 -2.296875 1.1875 -3.484375q0.96875 -0.96875 2.296875 -0.96875q1.640625 0 2.59375 0.96875q0.96875 0.953125 0.96875 2.375q0 1.78125 -1.109375 3.109375q-1.046875 1.265625 -2.15625 2.453125q-0.59375 0.671875 -1.1875 1.328125q-0.515625 0.59375 -0.890625 1.1875l5.5625 0l0 1.421875l-7.5625 0l0 -1.265625q0.140625 -0.75 1.265625 -2.078125q1.84375 -2.0 3.03125 -3.34375q1.265625 -1.328125 1.265625 -2.8125q0 -0.890625 -0.59375 -1.484375q-0.4375 -0.453125 -1.109375 -0.453125q-0.59375 0 -1.046875 0.453125q-0.8125 0.8125 -0.8125 2.59375l-1.703125 0zm8.90625 1.265625q0 -3.265625 1.484375 -4.75q1.03125 -1.046875 2.59375 -1.046875q1.5625 0 2.59375 1.046875q1.484375 1.484375 1.484375 4.75l0 1.484375q0 3.1875 -1.484375 4.671875q-1.03125 1.03125 -2.59375 1.03125q-1.5625 0 -2.59375 -1.03125q-1.484375 -1.484375 -1.484375 -4.671875l0 -1.484375zm4.078125 -4.390625q-0.734375 0 -1.328125 0.59375q-0.96875 0.96875 -0.96875 3.640625l0 1.703125q0 2.609375 1.03125 3.640625q0.59375 0.59375 1.265625 0.59375q0.75 0 1.34375 -0.59375q0.953125 -0.96875 0.953125 -3.640625l0 -1.703125q0 -2.671875 -0.953125 -3.640625q-0.59375 -0.59375 -1.34375 -0.59375zm5.421875 4.390625q0 -3.265625 1.484375 -4.75q1.03125 -1.046875 2.59375 -1.046875q1.5625 0 2.59375 1.046875q1.484375 1.484375 1.484375 4.75l0 1.484375q0 3.1875 -1.484375 4.671875q-1.03125 1.03125 -2.59375 1.03125q-1.5625 0 -2.59375 -1.03125q-1.484375 -1.484375 -1.484375 -4.671875l0 -1.484375zm4.078125 -4.390625q-0.734375 0 -1.328125 0.59375q-0.96875 0.96875 -0.96875 3.640625l0 1.703125q0 2.609375 1.03125 3.640625q0.59375 0.59375 1.265625 0.59375q0.75 0 1.34375 -0.59375q0.953125 -0.96875 0.953125 -3.640625l0 -1.703125q0 -2.671875 -0.953125 -3.640625q-0.59375 -0.59375 -1.34375 -0.59375zm5.421875 4.390625q0 -3.265625 1.484375 -4.75q1.03125 -1.046875 2.59375 -1.046875q1.5625 0 2.59375 1.046875q1.484375 1.484375 1.484375 4.75l0 1.484375q0 3.1875 -1.484375 4.671875q-1.03125 1.03125 -2.59375 1.03125q-1.5625 0 -2.59375 -1.03125q-1.484375 -1.484375 -1.484375 -4.671875l0 -1.484375zm4.078125 -4.390625q-0.734375 0 -1.328125 0.59375q-0.96875 0.96875 -0.96875 3.640625l0 1.703125q0 2.609375 1.03125 3.640625q0.59375 0.59375 1.265625 0.59375q0.75 0 1.34375 -0.59375q0.953125 -0.96875 0.953125 -3.640625l0 -1.703125q0 -2.671875 -0.953125 -3.640625q-0.59375 -0.59375 -1.34375 -0.59375zm21.296875 11.515625q0 1.1875 -1.1875 1.1875l-1.921875 0l-0.453125 -1.640625l1.5625 0q0.296875 0 0.296875 -0.296875l0 -4.96875l-10.90625 0l0 6.984375l-1.703125 0l0 -15.078125l14.3125 0l0 13.8125zm-1.703125 -12.40625l-4.75 0l0 5.28125l4.75 0l0 -5.28125zm-10.90625 0l0 5.28125l4.671875 0l0 -5.28125l-4.671875 0z" fill-rule="nonzero"></path><path fill="#ffffff" d="m829.1181 657.84534l0 0c0 -5.357727 4.3432617 -9.700989 9.700989 -9.700989l152.12561 0c2.572876 0 5.040344 1.0220947 6.859619 2.8413696c1.8192749 1.8192749 2.8413696 4.286743 2.8413696 6.859619l0 38.802734c0 5.357727 -4.3433228 9.700989 -9.700989 9.700989l-152.12561 0c-5.357727 0 -9.700989 -4.3432617 -9.700989 -9.700989z" fill-rule="nonzero"></path><path stroke="#ea9999" stroke-width="4.0" stroke-linejoin="round" stroke-linecap="butt" d="m829.1181 657.84534l0 0c0 -5.357727 4.3432617 -9.700989 9.700989 -9.700989l152.12561 0c2.572876 0 5.040344 1.0220947 6.859619 2.8413696c1.8192749 1.8192749 2.8413696 4.286743 2.8413696 6.859619l0 38.802734c0 5.357727 -4.3433228 9.700989 -9.700989 9.700989l-152.12561 0c-5.357727 0 -9.700989 -4.3432617 -9.700989 -9.700989z" fill-rule="nonzero"></path><path fill="#000000" d="m892.0225 671.1042l1.703125 0l0 8.15625l1.5625 0l0 1.421875l-1.5625 0l0 3.265625l-1.703125 0l0 -3.265625l-4.96875 0l0 -1.484375l4.96875 -8.09375zm0 2.75l-3.34375 5.40625l3.34375 0l0 -5.40625zm4.53125 2.96875q0 -3.265625 1.484375 -4.75q1.03125 -1.046875 2.59375 -1.046875q1.5625 0 2.59375 1.046875q1.484375 1.484375 1.484375 4.75l0 1.484375q0 3.1875 -1.484375 4.671875q-1.03125 1.03125 -2.59375 1.03125q-1.5625 0 -2.59375 -1.03125q-1.484375 -1.484375 -1.484375 -4.671875l0 -1.484375zm4.078125 -4.390625q-0.734375 0 -1.328125 0.59375q-0.96875 0.96875 -0.96875 3.640625l0 1.703125q0 2.609375 1.03125 3.640625q0.59375 0.59375 1.265625 0.59375q0.75 0 1.34375 -0.59375q0.953125 -0.96875 0.953125 -3.640625l0 -1.703125q0 -2.671875 -0.953125 -3.640625q-0.59375 -0.59375 -1.34375 -0.59375zm5.421875 4.390625q0 -3.265625 1.484375 -4.75q1.03125 -1.046875 2.59375 -1.046875q1.5625 0 2.59375 1.046875q1.484375 1.484375 1.484375 4.75l0 1.484375q0 3.1875 -1.484375 4.671875q-1.03125 1.03125 -2.59375 1.03125q-1.5625 0 -2.59375 -1.03125q-1.484375 -1.484375 -1.484375 -4.671875l0 -1.484375zm4.078125 -4.390625q-0.734375 0 -1.328125 0.59375q-0.96875 0.96875 -0.96875 3.640625l0 1.703125q0 2.609375 1.03125 3.640625q0.59375 0.59375 1.265625 0.59375q0.75 0 1.34375 -0.59375q0.953125 -0.96875 0.953125 -3.640625l0 -1.703125q0 -2.671875 -0.953125 -3.640625q-0.59375 -0.59375 -1.34375 -0.59375zm5.421875 4.390625q0 -3.265625 1.484375 -4.75q1.03125 -1.046875 2.59375 -1.046875q1.5625 0 2.59375 1.046875q1.484375 1.484375 1.484375 4.75l0 1.484375q0 3.1875 -1.484375 4.671875q-1.03125 1.03125 -2.59375 1.03125q-1.5625 0 -2.59375 -1.03125q-1.484375 -1.484375 -1.484375 -4.671875l0 -1.484375zm4.078125 -4.390625q-0.734375 0 -1.328125 0.59375q-0.96875 0.96875 -0.96875 3.640625l0 1.703125q0 2.609375 1.03125 3.640625q0.59375 0.59375 1.265625 0.59375q0.75 0 1.34375 -0.59375q0.953125 -0.96875 0.953125 -3.640625l0 -1.703125q0 -2.671875 -0.953125 -3.640625q-0.59375 -0.59375 -1.34375 -0.59375zm21.296875 11.515625q0 1.1875 -1.1875 1.1875l-1.921875 0l-0.453125 -1.640625l1.5625 0q0.296875 0 0.296875 -0.296875l0 -4.96875l-10.90625 0l0 6.984375l-1.703125 0l0 -15.078125l14.3125 0l0 13.8125zm-1.703125 -12.40625l-4.75 0l0 5.28125l4.75 0l0 -5.28125zm-10.90625 0l0 5.28125l4.671875 0l0 -5.28125l-4.671875 0z" fill-rule="nonzero"></path><path fill="#000000" fill-opacity="0.0" d="m774.8898 126.42257l587.4331 0l0 68.53544l-587.4331 0z" fill-rule="nonzero"></path><path fill="#000000" d="m791.2023 145.15758l-5.6875 -5.6875l0.75 -0.75l0.1875 0.1875l5.3125 5.3125l0.1875 0.1875l0.1875 -0.1875l5.25 -5.25l0.25 -0.25l0.75 0.75l-0.25 0.25l-5.25 5.25l-0.1875 0.1875l5.4375 5.4375l0.25 0.25l-0.75 0.75l-0.5 -0.5l-5.0 -5.0l-0.1875 -0.1875l-0.375 0.375l-5.3125 5.3125l-0.75 -0.75l0.1875 -0.1875l5.3125 -5.3125l0.1875 -0.1875zm-0.4375 -4.0l0 -2.25l2.25 0l0 2.25l-2.25 0zm5.125 5.125l0 -2.25l2.25 0l0 2.25l-2.25 0zm-5.125 5.125l0 -2.25l2.25 0l0 2.25l-2.25 0zm-5.375 -5.125l0 -2.25l2.25 0l0 2.25l-2.25 0z" fill-rule="nonzero"></path><path fill="#000000" d="m807.8351 145.34508l0 -3.1875l-2.25 0l0 -1.1875l2.25 0l0 -3.0625l1.1875 0q0.5 0.0625 0.0625 0.375l0 2.6875l2.0 0l0 1.1875l-2.0 0l0 2.875l2.125 -0.6875l0.3125 1.1875l-2.4375 0.875l0 4.6875q0 1.0 -1.0 1.0l-1.375 0l-0.3125 -1.1875l1.1875 0q0.25 0 0.25 -0.25l0 -3.875l-1.75 0.5625q-0.0625 0.5625 -0.3125 0.1875l-0.5 -1.5625l2.5625 -0.625zm11.625 -4.3125l-3.0625 0l0 10.0q0 1.0 -1.0 1.0l-1.375 0l-0.25 -1.1875l1.125 0q0.25 0 0.25 -0.25l0 -9.5625l-3.4375 0l0 -1.375l7.75 0l0 1.375zm7.5625 8.4375l0 -11.0625l1.375 0q0.625 0.125 0.0625 0.5l0 3.625l5.0625 0l0 1.375l-5.0625 0l0 5.5625l6.5 0l0 1.375l-13.5625 0l0 -1.375l5.625 0zm23.625 -6.125q-1.625 0.1875 -3.125 0.3125l0 2.125q0 3.625 -2.125 6.25l-1.3125 -0.75q2.1875 -2.5 2.1875 -5.75l0 -1.75q-2.375 0.1875 -4.5 0.1875l0 -1.375q2.125 0.0625 4.5 -0.125l0 -3.8125l1.125 0q0.5625 0.125 0.125 0.5l0 3.25q1.5625 -0.125 2.9375 -0.375l0.1875 1.3125zm-11.125 2.25q0 2.25 0.5 4.75l-1.375 0.25q-0.4375 -2.25 -0.4375 -5.0q0 -3.625 0.625 -6.3125l1.1875 0.3125q0.8125 0.1875 0.0625 0.5625q-0.5625 2.6875 -0.5625 5.4375zm9.8125 -8.1875q1.0625 0.5625 2.3125 1.5l-0.5625 0.875q-1.3125 -1.0 -2.3125 -1.5l0.5625 -0.875zm-0.75 1.5625q1.0 0.4375 2.3125 1.5l-0.5625 0.875q-1.4375 -1.0625 -2.3125 -1.5l0.5625 -0.875zm14.9375 3.8125q0.125 2.375 0 4.75q1.875 0.6875 3.625 1.9375l-0.75 1.1875q-1.3125 -1.0 -2.875 -1.75q0 1.125 -0.6875 1.8125q-0.75 0.75 -2.1875 0.75q-1.4375 0 -2.1875 -0.75q-0.625 -0.625 -0.625 -1.625q0 -0.875 0.5 -1.375q0.75 -0.75 2.25 -0.75q0.8125 0 1.625 0.1875q0.125 -2.125 0 -4.3125l-4.625 0.3125l0 -1.3125l4.5 -0.25q-0.0625 -1.75 -0.25 -3.125l1.3125 0q0.6875 0.125 0.125 0.5q0.0625 1.3125 0.125 2.5625l3.375 -0.1875l0 1.3125l-3.25 0.125zm-9.4375 8.375q-0.25 -1.75 -0.25 -4.0625q0 -5.0625 0.75 -8.125l1.375 0.25q0.4375 0.1875 -0.0625 0.4375q-0.6875 2.1875 -0.6875 7.4375q0 2.375 0.3125 3.8125l-1.4375 0.25zm8.125 -2.75q-1.0625 -0.3125 -1.625 -0.3125q-0.875 0 -1.25 0.375q-0.3125 0.3125 -0.3125 0.625q0 0.5 0.25 0.75q0.4375 0.4375 1.3125 0.4375q0.875 0 1.25 -0.4375q0.4375 -0.5 0.375 -1.4375z" fill-rule="nonzero"></path><path fill="#000000" d="m876.0851 149.4232l0 1.359375l-7.578125 0q-0.015625 -0.515625 0.171875 -0.984375q0.28125 -0.765625 0.921875 -1.515625q0.640625 -0.75 1.84375 -1.734375q1.859375 -1.53125 2.515625 -2.421875q0.65625 -0.90625 0.65625 -1.703125q0 -0.828125 -0.59375 -1.40625q-0.59375 -0.578125 -1.5625 -0.578125q-1.015625 0 -1.625 0.609375q-0.609375 0.609375 -0.609375 1.6875l-1.453125 -0.140625q0.15625 -1.625 1.125 -2.46875q0.96875 -0.84375 2.59375 -0.84375q1.65625 0 2.609375 0.921875q0.96875 0.90625 0.96875 2.25q0 0.6875 -0.28125 1.359375q-0.28125 0.65625 -0.9375 1.390625q-0.65625 0.734375 -2.171875 2.015625q-1.265625 1.0625 -1.625 1.453125q-0.359375 0.375 -0.59375 0.75l5.625 0z" fill-rule="nonzero"></path><path fill="#000000" d="m885.8585 150.03258q-0.75 -1.3125 -1.25 -1.875l1.0625 -0.75q0.5 0.5625 1.3125 1.8125l-1.125 0.8125zm2.4375 0.875q0.25 0 0.25 -0.25l0 -3.6875l-5.25 0l0 -1.1875l5.25 0l0 -1.625l-5.9375 0l0 5.9375l-1.0625 0l0 -0.5l-2.125 0l0 1.125l-1.0625 0l0 -11.5l4.25 0l0 3.75l3.8125 0l0 -1.8125l-2.6875 0l0 -1.1875l2.6875 0l0 -2.125l1.1875 0q0.5 0.0625 0.0625 0.375l0 1.75l3.1875 0l0 1.1875l-3.1875 0l0 1.8125l4.375 0l0 1.1875l-2.25 0l0 1.625l1.875 0l0 1.1875l-1.875 0l0 4.125q0 1.0 -1.0 1.0l-1.3125 0l-0.25 -1.1875l1.0625 0zm-8.875 -7.3125l2.125 0l0 -3.1875l-2.125 0l0 3.1875zm0 4.8125l2.125 0l0 -3.625l-2.125 0l0 3.625zm26.4375 2.4375q0.25 0 0.25 -0.25l0 -7.1875l-2.25 0l-2.25 0l0 -5.0l5.75 0l0 12.625q0 1.0 -1.0 1.0l-1.25 0l-0.125 -1.1875l0.875 0zm-3.3125 -3.0l-3.3125 0l0 1.25l3.3125 0l0 -1.25zm0 -2.375l-3.3125 0l0 1.375l3.3125 0l0 -1.375zm1.25 -1.0l0 6.125l-1.25 0l0 -0.5l-3.3125 0l0 1.0l-1.25 0l0 -6.625l5.8125 0zm2.3125 -4.0625l0 -1.0l-3.25 0l0 1.0l3.25 0zm0 1.0l-3.25 0l0 1.0l3.25 0l0 -1.0zm-7.375 0l-3.1875 0l0 1.0l3.1875 0l0 -1.0zm0 -1.0l0 -1.0l-3.1875 0l0 1.0l3.1875 0zm1.25 3.0l-4.4375 0l0 8.6875l-1.25 0l0 -13.6875l5.6875 0l0 5.0zm10.1875 7.125l1.0 -0.25l0 -7.5625q-0.75 0.625 -1.0 0.8125l-0.625 -1.0q2.125 -1.5625 3.5 -4.5l1.125 0.3125q0.25 0.125 -0.25 0.5q1.75 0.875 3.0625 2.1875l-0.75 1.0q-1.1875 -1.25 -2.8125 -2.375q-0.9375 1.75 -1.9375 2.6875l1.625 0l0 -1.375l1.1875 0q0.5 0.0625 0.0625 0.375l0 1.0l1.6875 0l0 5.1875l-3.8125 0l0 2.4375l2.1875 -0.6875q-0.3125 -0.3125 -0.5625 -0.625l0.875 -0.5625q1.125 1.0 1.6875 2.0l-1.0625 0.625q-0.1875 -0.3125 -0.4375 -0.6875l-3.9375 1.5q0 0.5 -0.1875 0.1875l-0.625 -1.1875zm9.0625 -8.75l-0.375 0q-0.625 1.375 -1.5 2.6875l-0.8125 -1.0625q1.6875 -2.125 2.125 -5.375l1.1875 0.25q0.1875 0.125 -0.125 0.3125q-0.25 1.125 -0.5625 2.1875l3.6875 0l0.125 -0.3125l1.1875 0.8125q0.125 0.125 -0.25 0.25q-0.625 1.875 -2.0 3.625l-0.9375 -0.75q1.125 -1.4375 1.5625 -2.625l-2.0625 0l0 2.375q0 4.5 3.8125 6.5l-0.75 1.25q-2.9375 -2.125 -3.5625 -4.6875q-0.375 3.125 -3.9375 5.0625l-0.6875 -1.1875q3.875 -1.625 3.875 -6.4375l0 -2.875zm-7.0 1.5625l0 1.0l2.75 0l0 -1.0l-2.75 0zm0 2.0l0 1.1875l2.75 0l0 -1.1875l-2.75 0zm24.9375 1.5q-0.625 2.8125 -2.4375 4.8125l-1.3125 -0.75q1.9375 -1.8125 2.5625 -4.5q-2.1875 -0.8125 -4.4375 -1.125q-1.6875 3.625 -2.25 4.1875q-0.75 0.75 -1.75 0.75q-0.75 0 -1.25 -0.5q-0.5625 -0.5625 -0.5625 -1.6875q0 -1.3125 1.25 -2.5625q1.375 -1.375 3.6875 -1.375q0.75 -1.9375 1.375 -3.625q-1.75 0.4375 -3.5 0.8125l-0.5625 -1.25q2.0625 -0.25 3.9375 -0.6875l0.75 -0.3125l1.0625 0.8125q0.625 0.375 -0.0625 0.5625q-0.8125 1.4375 -1.75 3.75q2.0 0.25 4.25 1.0q0.125 -1.5 0.0625 -3.6875l1.1875 0.25q0.6875 0.125 0.125 0.5q0 2.0625 -0.125 3.375q1.1875 0.4375 2.75 1.25l-0.625 1.25q-1.3125 -0.75 -2.375 -1.25zm-6.9375 -1.5625q-1.4375 0 -2.3125 0.875q-1.0 1.0 -1.0 1.875q0 0.375 0.25 0.625q0.1875 0.1875 0.5625 0.1875q0.5625 0 1.0 -0.6875q0.375 -0.5625 1.5 -2.875zm24.375 -3.125q-0.1875 3.125 -1.5625 5.9375q1.1875 1.5 3.0625 2.625l-0.8125 1.375q-1.75 -1.125 -3.0625 -2.8125q-1.9375 2.1875 -3.625 2.9375l-0.625 -1.3125q2.0 -1.125 3.4375 -2.6875q-1.125 -1.9375 -1.625 -4.1875q-0.5 1.0625 -1.0625 1.8125l-0.8125 -1.3125q1.5625 -2.4375 2.1875 -6.625l1.375 0.1875q0.4375 0.1875 -0.125 0.3125q-0.1875 1.0625 -0.5625 2.5625l5.25 0l0 1.1875l-1.4375 0zm-6.0 -0.3125l-3.625 0l0 1.8125l2.75 0l0 7.125q0 1.0625 -1.0 1.0625l-1.5625 0l-0.1875 -1.1875l1.3125 0q0.1875 0 0.1875 -0.1875l0 -5.625l-1.5 0l0 0.875q0 3.9375 -2.3125 6.5625l-0.875 -1.125q1.9375 -2.0 1.9375 -5.4375l0 -3.875l-2.0 0l0 -1.1875l2.5625 0l0 -2.875l1.1875 0q0.5 0.0625 0.0625 0.375l0 2.5l3.0625 0l0 1.1875zm3.5625 5.125q0.75 -1.5 1.1875 -4.8125l-2.75 0q0.5625 3.125 1.5625 4.8125zm7.9375 -0.4375q-0.0625 0.9375 -0.125 1.75q0.6875 0.875 1.1875 1.3125l0 -4.4375l-3.25 0l0 -1.1875l6.9375 0l0 1.1875l-2.625 0l0 1.6875l2.125 0l0 1.1875l-2.125 0l0 2.1875q0.875 0.5625 2.0 0.5625l7.875 0l-0.3125 1.1875l-7.5625 0q-2.5 0 -4.4375 -2.375q-0.5 1.6875 -1.0625 2.5l-1.0 -0.9375q1.25 -1.875 1.25 -5.1875l1.25 0.1875q0.1875 0.1875 -0.125 0.375zm4.0 2.875q1.5625 -0.375 2.8125 -1.125l-1.3125 0l0 -7.5625l1.75 0l0.3125 -1.25l-2.625 0l0 -1.1875l6.625 0l0 1.1875l-2.625 0l-0.5625 1.25l2.75 0l0 7.5625l-1.5625 0q0.8125 0.5 2.375 1.0l-0.5 1.125q-1.5625 -0.4375 -2.6875 -1.3125l0.6875 -0.8125l-2.4375 0l0.6875 0.875q0.25 0.375 -0.375 0.25q-1.1875 0.625 -2.8125 1.0625l-0.5 -1.0625zm-5.1875 -6.25l0 -4.875l5.125 0l0 4.875l-5.125 0zm4.0625 -1.9375l-3.0 0l0 0.9375l3.0 0l0 -0.9375zm7.1875 0.5l-3.5 0l0 1.1875l3.5 0l0 -1.1875zm0 2.1875l-3.5 0l0 1.1875l3.5 0l0 -1.1875zm0 2.1875l-3.5 0l0 1.1875l3.5 0l0 -1.1875zm-7.1875 -6.8125l-3.0 0l0 0.9375l3.0 0l0 -0.9375zm17.375 0l1.25 0l0 5.1875l5.1875 0l0 1.1875l-5.1875 0l0 5.1875l-1.25 0l0 -5.1875l-5.1875 0l0 -1.1875l5.1875 0l0 -5.1875zm16.0 10.25l-2.75 0l0 2.625l-1.0625 0l0 -2.625l-2.875 0l0 -1.1875l2.875 0l0 -1.3125l-1.125 0l-1.125 0l0 -5.375l2.25 0l0 -1.25l-2.375 0l0 -1.0l2.375 0l0 -1.625l1.0 0q0.5 0.0625 0.0625 0.375l0 1.25l2.375 0l0 1.0l-2.375 0l0 1.25l2.1875 0l0 5.375l-2.1875 0l0 1.3125l2.75 0l0 1.1875zm-0.375 -5.3125q1.9375 -0.625 3.125 -1.5625q-1.125 -1.3125 -1.625 -2.875l-0.9375 0l0 -1.0l5.375 0l0.125 -0.25l1.125 0.75l-0.25 0.25q-0.625 1.5625 -2.0 3.0625q1.5625 0.875 3.3125 1.3125l-0.5625 1.3125q-2.375 -0.8125 -3.625 -1.75q-1.5 1.1875 -3.375 2.0l-0.6875 -1.25zm-1.25 1.8125l0 -1.1875l-1.125 0l0 1.1875l1.125 0zm-3.375 0l1.1875 0l0 -1.1875l-1.1875 0l0 1.1875zm1.1875 -2.1875l0 -1.1875l-1.1875 0l0 1.1875l1.1875 0zm2.1875 0l0 -1.1875l-1.125 0l0 1.1875l1.125 0zm4.75 6.75l0 -2.6875l-2.4375 0l0 -1.1875l2.4375 0l0 -1.9375l1.1875 0q0.5 0.0625 0.0625 0.375l0 1.5625l2.4375 0l0 1.1875l-2.4375 0l0 2.6875l3.25 0l0 1.1875l-7.8125 0l0 -1.1875l3.3125 0zm-0.75 -10.8125q0.25 1.0 1.3125 2.0625q0.9375 -0.875 1.375 -2.0625l-2.6875 0zm14.875 11.25q-3.125 0.5625 -6.25 1.0q-0.0625 0.5 -0.3125 0.1875l-0.375 -1.625l2.0625 -0.125l0 -8.0625q-1.3125 0.6875 -2.5 1.125l-0.5 -1.3125q4.875 -1.5 6.3125 -4.4375l1.6875 0.1875q0.25 0.25 -0.1875 0.3125l0 0.1875q2.1875 2.4375 6.5625 3.5l-0.75 1.3125q-0.8125 -0.125 -2.5 -0.875l0 4.875l0.8125 -0.8125l1.125 1.125q0.0625 0.3125 -0.3125 0.1875l-3.0 1.9375q1.1875 0.8125 4.3125 1.125l-0.5625 1.3125q-5.4375 -0.5 -6.9375 -4.625l-2.3125 0l0 2.8125l3.625 -0.4375l0 1.125zm-0.125 -3.5q0.25 0.6875 1.125 1.5625l1.9375 -1.5625l-3.0625 0zm2.125 -1.0l0 -1.125l-5.625 0l0 1.125l5.625 0zm-5.625 -2.125l5.625 0l0 -1.125l-5.625 0l0 1.125zm2.75 -5.25q-1.375 1.8125 -3.75 3.125l3.25 0l0 -1.625l1.1875 0q0.5 0.0625 0.0625 0.375l0 1.25l3.125 0q-1.875 -0.875 -3.875 -3.125z" fill-rule="nonzero"></path><path fill="#000000" fill-opacity="0.0" d="m124.86614 538.6483l0 109.51178" fill-rule="nonzero"></path><path stroke="#666666" stroke-width="4.0" stroke-linejoin="round" stroke-linecap="butt" d="m124.86614 538.6483l0 85.51178" fill-rule="evenodd"></path><path fill="#666666" stroke="#666666" stroke-width="4.0" stroke-linecap="butt" d="m118.25921 624.1601l6.6069336 18.152405l6.606926 -18.152405z" fill-rule="evenodd"></path><path fill="#000000" fill-opacity="0.0" d="m388.2047 538.6483l0 109.51178" fill-rule="nonzero"></path><path stroke="#666666" stroke-width="4.0" stroke-linejoin="round" stroke-linecap="butt" d="m388.2047 538.6483l0 85.51178" fill-rule="evenodd"></path><path fill="#666666" stroke="#666666" stroke-width="4.0" stroke-linecap="butt" d="m381.5978 624.1601l6.606903 18.152405l6.6069336 -18.152405z" fill-rule="evenodd"></path><path fill="#000000" fill-opacity="0.0" d="m651.54333 538.6483l0 109.51178" fill-rule="nonzero"></path><path stroke="#666666" stroke-width="4.0" stroke-linejoin="round" stroke-linecap="butt" d="m651.54333 538.6483l0 85.51178" fill-rule="evenodd"></path><path fill="#666666" stroke="#666666" stroke-width="4.0" stroke-linecap="butt" d="m644.9364 624.1601l6.6069336 18.152405l6.6068726 -18.152405z" fill-rule="evenodd"></path><path fill="#000000" fill-opacity="0.0" d="m914.8819 538.6483l0 109.51178" fill-rule="nonzero"></path><path stroke="#666666" stroke-width="4.0" stroke-linejoin="round" stroke-linecap="butt" d="m914.8819 538.6483l0 85.51178" fill-rule="evenodd"></path><path fill="#666666" stroke="#666666" stroke-width="4.0" stroke-linecap="butt" d="m908.27496 624.1601l6.6069336 18.152405l6.6069336 -18.152405z" fill-rule="evenodd"></path><path fill="#cccccc" d="m39.102364 572.1156l0 0c0 -3.6674805 2.9730759 -6.640564 6.6405525 -6.640564l948.2622 0c1.7611694 0 3.4502563 0.699646 4.6956177 1.9450073c1.2453003 1.2453613 1.9449463 2.9343872 1.9449463 4.6955566l0 26.561401c0 3.6674805 -2.9730835 6.640564 -6.640564 6.640564l-948.2622 0c-3.6674767 0 -6.6405525 -2.9730835 -6.6405525 -6.640564z" fill-rule="nonzero"></path><path stroke="#666666" stroke-width="2.0" stroke-linejoin="round" stroke-linecap="butt" d="m39.102364 572.1156l0 0c0 -3.6674805 2.9730759 -6.640564 6.6405525 -6.640564l948.2622 0c1.7611694 0 3.4502563 0.699646 4.6956177 1.9450073c1.2453003 1.2453613 1.9449463 2.9343872 1.9449463 4.6955566l0 26.561401c0 3.6674805 -2.9730835 6.640564 -6.640564 6.640564l-948.2622 0c-3.6674767 0 -6.6405525 -2.9730835 -6.6405525 -6.640564z" fill-rule="nonzero"></path><path fill="#000000" d="m343.86426 581.332l1.265625 0l0 3.640625l3.640625 0l0 1.1875l-3.640625 0l0 3.625l-1.265625 0l0 -3.625l-3.640625 0l0 -1.1875l3.640625 0l0 -3.640625zm15.4453125 -0.671875q0.65625 -0.671875 0.734375 -1.484375l0.890625 0l0 12.84375l-1.703125 0l0 -9.875l-2.234375 0l0 -0.890625l0.671875 0q1.046875 0 1.640625 -0.59375zm15.578125 7.28125q-3.9375 -2.015625 -6.453125 -2.671875l0 7.71875l-1.703125 0l0 -14.84375l1.484375 0q0.890625 0.0625 0.21875 0.59375l0 4.671875q3.640625 1.03125 7.34375 2.8125l-0.890625 1.71875zm-0.140625 -6.53125q-1.265625 -1.5625 -2.53125 -2.53125l0.96875 -0.734375q1.265625 0.953125 2.515625 2.515625l-0.953125 0.75zm1.78125 -1.421875q-0.96875 -1.25 -2.453125 -2.4375l0.96875 -0.75q1.25 0.890625 2.4375 2.453125l-0.953125 0.734375zm12.902344 5.796875q0 5.5625 -5.1875 8.015625l-1.484375 -1.265625q4.890625 -2.21875 4.96875 -6.828125l0 -7.421875l1.5625 0q0.734375 0.15625 0.140625 0.59375l0 6.90625zm-7.640625 1.625l-1.703125 0l0 -8.375l1.625 0q0.75 0.0625 0.078125 0.59375l0 7.78125zm25.753906 -3.703125q-3.9375 8.15625 -13.203125 8.609375q-0.375 0.96875 -0.75 0.15625l-0.59375 -1.9375q9.65625 -0.21875 12.984375 -7.9375l1.5625 1.109375zm-10.46875 0q-2.0 -1.859375 -3.78125 -3.046875l1.265625 -1.5625q1.5625 0.96875 3.9375 3.203125l-1.421875 1.40625zm25.246094 -1.5625q-1.421875 8.09375 -9.28125 11.578125l-1.34375 -1.40625q7.28125 -2.96875 8.765625 -10.25l-5.9375 0q-1.703125 2.828125 -3.5625 4.53125l-1.484375 -0.96875q3.859375 -3.484375 4.96875 -8.15625l1.703125 0.59375q0.453125 0.21875 -0.140625 0.4375q-0.296875 0.96875 -0.8125 1.9375l5.34375 0l0.65625 -0.375l1.34375 1.34375q0.515625 0.515625 -0.21875 0.734375zm12.9140625 -4.296875q0.8125 0.0625 0.0625 0.59375l0.234375 4.15625l5.484375 -0.59375l0.21875 1.40625l-5.484375 0.59375q0.515625 5.125 2.890625 6.96875q1.109375 0.890625 1.265625 -0.4375l0.140625 -1.34375l1.5625 0.828125l-0.21875 1.109375q-0.671875 3.34375 -3.34375 1.484375q-3.34375 -2.296875 -3.859375 -8.46875l-4.15625 0.375l-0.078125 -1.40625l4.015625 -0.375l-0.21875 -5.046875l1.484375 0.15625zm-10.390625 7.421875q2.671875 -2.15625 3.921875 -7.71875l1.640625 0.515625q0.4375 0.296875 -0.21875 0.375q-0.234375 1.40625 -1.34375 4.0q0.890625 0.15625 0.21875 0.515625l0 10.625l-1.484375 0l0 -8.84375q-0.953125 1.421875 -1.625 1.9375l-1.109375 -1.40625zm12.6875 -6.90625q1.40625 1.03125 2.15625 1.921875l-1.34375 1.265625q-0.671875 -0.96875 -2.0 -2.0l1.1875 -1.1875zm12.9140625 1.03125l6.375 0l0 1.421875l-4.96875 0l0 0.21875q-0.078125 1.40625 -0.21875 2.75q-0.078125 0.21875 -0.078125 0.4375q0.96875 -0.890625 2.078125 -0.890625q1.484375 0 2.453125 0.96875q1.03125 1.03125 1.03125 3.046875q0 2.515625 -1.328125 3.859375q-1.046875 1.03125 -2.59375 1.03125q-1.484375 0 -2.453125 -0.96875q-0.96875 -0.953125 -1.1875 -2.890625l1.703125 0q0.15625 1.40625 0.75 2.0q0.4375 0.453125 1.109375 0.453125q0.890625 0 1.40625 -0.515625q0.8125 -0.828125 0.8125 -2.75q0 -1.859375 -0.65625 -2.53125q-0.453125 -0.4375 -1.046875 -0.4375q-0.890625 0 -1.5625 0.671875q-0.4375 0.4375 -0.59375 0.65625l-1.484375 0q0.078125 -0.296875 0.078125 -0.515625l0.375 -5.71875l0 -0.296875zm8.3125 5.578125q0 -3.265625 1.484375 -4.75q1.03125 -1.046875 2.59375 -1.046875q1.5625 0 2.59375 1.046875q1.484375 1.484375 1.484375 4.75l0 1.484375q0 3.1875 -1.484375 4.671875q-1.03125 1.03125 -2.59375 1.03125q-1.5625 0 -2.59375 -1.03125q-1.484375 -1.484375 -1.484375 -4.671875l0 -1.484375zm4.078125 -4.390625q-0.734375 0 -1.328125 0.59375q-0.96875 0.96875 -0.96875 3.640625l0 1.703125q0 2.609375 1.03125 3.640625q0.59375 0.59375 1.265625 0.59375q0.75 0 1.34375 -0.59375q0.953125 -0.96875 0.953125 -3.640625l0 -1.703125q0 -2.671875 -0.953125 -3.640625q-0.59375 -0.59375 -1.34375 -0.59375zm5.421875 4.390625q0 -3.265625 1.484375 -4.75q1.03125 -1.046875 2.59375 -1.046875q1.5625 0 2.59375 1.046875q1.484375 1.484375 1.484375 4.75l0 1.484375q0 3.1875 -1.484375 4.671875q-1.03125 1.03125 -2.59375 1.03125q-1.5625 0 -2.59375 -1.03125q-1.484375 -1.484375 -1.484375 -4.671875l0 -1.484375zm4.078125 -4.390625q-0.734375 0 -1.328125 0.59375q-0.96875 0.96875 -0.96875 3.640625l0 1.703125q0 2.609375 1.03125 3.640625q0.59375 0.59375 1.265625 0.59375q0.75 0 1.34375 -0.59375q0.953125 -0.96875 0.953125 -3.640625l0 -1.703125q0 -2.671875 -0.953125 -3.640625q-0.59375 -0.59375 -1.34375 -0.59375zm21.296875 11.515625q0 1.1875 -1.1875 1.1875l-1.921875 0l-0.453125 -1.640625l1.5625 0q0.296875 0 0.296875 -0.296875l0 -4.96875l-10.90625 0l0 6.984375l-1.703125 0l0 -15.078125l14.3125 0l0 13.8125zm-1.703125 -12.40625l-4.75 0l0 5.28125l4.75 0l0 -5.28125zm-10.90625 0l0 5.28125l4.671875 0l0 -5.28125l-4.671875 0zm25.226562 1.34375q0.828125 -1.703125 2.75 -3.484375l0.8125 0.734375q-1.84375 1.703125 -2.59375 3.265625q-0.8125 1.703125 -0.8125 4.078125q0 2.015625 0.8125 3.796875q0.75 1.625 2.59375 3.640625l-0.8125 0.8125q-1.859375 -2.078125 -2.75 -3.9375q-0.953125 -2.0 -0.953125 -4.3125q0 -2.59375 0.953125 -4.59375zm9.4375 -0.375q0.65625 -0.671875 0.734375 -1.484375l0.890625 0l0 12.84375l-1.703125 0l0 -9.875l-2.234375 0l0 -0.890625l0.671875 0q1.046875 0 1.640625 -0.59375zm15.578125 7.28125q-3.9375 -2.015625 -6.453125 -2.671875l0 7.71875l-1.703125 0l0 -14.84375l1.484375 0q0.890625 0.0625 0.21875 0.59375l0 4.671875q3.640625 1.03125 7.34375 2.8125l-0.890625 1.71875zm-0.140625 -6.53125q-1.265625 -1.5625 -2.53125 -2.53125l0.96875 -0.734375q1.265625 0.953125 2.515625 2.515625l-0.953125 0.75zm1.78125 -1.421875q-0.96875 -1.25 -2.453125 -2.4375l0.96875 -0.75q1.25 0.890625 2.4375 2.453125l-0.953125 0.734375zm12.902344 5.796875q0 5.5625 -5.1875 8.015625l-1.484375 -1.265625q4.890625 -2.21875 4.96875 -6.828125l0 -7.421875l1.5625 0q0.734375 0.15625 0.140625 0.59375l0 6.90625zm-7.640625 1.625l-1.703125 0l0 -8.375l1.625 0q0.75 0.0625 0.078125 0.59375l0 7.78125zm25.753906 -3.703125q-3.9375 8.15625 -13.203125 8.609375q-0.375 0.96875 -0.75 0.15625l-0.59375 -1.9375q9.65625 -0.21875 12.984375 -7.9375l1.5625 1.109375zm-10.46875 0q-2.0 -1.859375 -3.78125 -3.046875l1.265625 -1.5625q1.5625 0.96875 3.9375 3.203125l-1.421875 1.40625zm25.246094 -1.5625q-1.421875 8.09375 -9.28125 11.578125l-1.34375 -1.40625q7.28125 -2.96875 8.765625 -10.25l-5.9375 0q-1.703125 2.828125 -3.5625 4.53125l-1.484375 -0.96875q3.859375 -3.484375 4.96875 -8.15625l1.703125 0.59375q0.453125 0.21875 -0.140625 0.4375q-0.296875 0.96875 -0.8125 1.9375l5.34375 0l0.65625 -0.375l1.34375 1.34375q0.515625 0.515625 -0.21875 0.734375zm8.7578125 2.96875l0 -1.484375l-3.265625 0l0 1.484375l3.265625 0zm0 1.40625l-3.265625 0l0 1.5625l3.265625 0l0 -1.5625zm-0.234375 5.875q0.234375 0 0.234375 -0.234375l0 -2.671875l-3.265625 0l0 4.46875l-1.484375 0l0 -11.734375l6.234375 0l0 10.3125q0 1.265625 -1.1875 1.265625l-1.484375 0l-0.375 -1.40625l1.328125 0zm3.859375 -9.796875l1.484375 0l0 8.53125l-1.484375 0l0 -8.53125zm3.796875 9.71875q0.21875 0 0.21875 -0.21875l0 -10.09375l1.40625 0q0.75 0.140625 0.078125 0.59375l0 9.875q0 1.25 -1.1875 1.25l-1.640625 0l-0.296875 -1.40625l1.421875 0zm-1.265625 -14.46875q-0.453125 0.8125 -1.109375 1.84375l5.640625 0l0 1.421875l-17.078125 0l0 -1.421875l5.046875 0q-0.4375 -1.03125 -1.03125 -1.78125l1.328125 -0.734375q0.8125 0.8125 1.640625 2.515625l2.734375 0q0.828125 -1.40625 1.34375 -2.8125l1.703125 0.59375q0.296875 0.296875 -0.21875 0.375zm18.40625 1.03125q-0.15625 1.484375 -2.59375 11.875q2.21875 -0.140625 4.890625 -0.59375q-0.59375 -1.5625 -1.859375 -3.5625l1.421875 -0.8125q1.78125 2.515625 3.328125 6.609375l-1.703125 0.8125l-0.59375 -1.5625q-3.703125 0.75 -7.796875 1.1875q-0.0625 0.59375 -0.359375 0.296875l-0.671875 -2.15625q0.890625 0 1.78125 -0.0625q1.921875 -9.359375 2.296875 -13.0625l2.0 0.4375q0.53125 0.15625 -0.140625 0.59375zm-10.390625 9.796875q-0.078125 0.515625 -0.375 0.21875l-0.8125 -1.84375q1.328125 -0.296875 2.890625 -0.828125l0 -4.21875l-2.671875 0l0 -1.421875l2.671875 0l0 -3.5625l1.40625 0q0.59375 0.078125 0.078125 0.453125l0 3.109375l2.75 0l0 1.421875l-2.75 0l0 3.78125q1.34375 -0.453125 2.671875 -1.046875l0.296875 1.421875q-1.1875 0.65625 -2.96875 1.328125l0 5.28125q0 1.25 -1.1875 1.25l-1.5625 0l-0.140625 -1.40625l1.1875 0q0.21875 0 0.21875 -0.21875l0 -4.3125l-1.703125 0.59375zm24.859375 -0.078125q-0.671875 1.71875 -1.40625 2.609375q-1.046875 1.265625 -2.078125 1.265625q-1.859375 0 -2.75 -2.15625q-0.515625 -1.265625 -0.515625 -5.421875q0 -2.96875 0.296875 -6.015625l1.5625 0.375q0.890625 0.21875 0.0625 0.734375q-0.296875 2.75 -0.296875 4.984375q0 3.03125 0.375 4.296875q0.375 1.265625 1.109375 1.265625q0.828125 0 1.421875 -1.1875q0.359375 -0.75 0.734375 -1.78125l1.484375 1.03125zm4.375 -8.671875q3.34375 3.484375 4.09375 8.453125l-2.015625 0.515625q-0.890625 -5.1875 -3.625 -8.078125l1.546875 -0.890625zm20.632812 12.46875q0.296875 0 0.296875 -0.296875l0 -14.484375l1.421875 0q0.59375 0.078125 0.0625 0.453125l0 14.703125q0 1.03125 -1.03125 1.03125l-1.703125 0l-0.375 -1.40625l1.328125 0zm-11.34375 -12.703125l1.703125 0l0 -2.59375l1.40625 0q0.59375 0.078125 0.078125 0.453125l0 2.140625l3.34375 0l0 1.421875l-3.34375 0l0 1.921875l4.59375 0l0 1.40625l-4.59375 0l0 1.421875l3.484375 0l0 5.484375q0 1.046875 -1.03125 1.046875l-1.125 0l-0.296875 -1.421875l0.671875 0q0.296875 0 0.296875 -0.296875l0 -3.40625l-2.0 0l0 6.609375l-1.484375 0l0 -6.609375l-1.78125 0l0 5.125l-1.484375 0l0 -6.53125l3.265625 0l0 -1.421875l-4.671875 0l0 -1.40625l4.671875 0l0 -1.921875l-2.296875 0q-0.453125 0.8125 -0.96875 1.546875l-1.1875 -0.8125q1.109375 -1.5625 2.15625 -4.078125l1.328125 0.4375q0.296875 0.296875 -0.21875 0.375l-0.515625 1.109375zm8.453125 10.328125l0 -11.0625l1.40625 0q0.59375 0.078125 0.078125 0.4375l0 10.625l-1.484375 0zm22.5625 -9.359375q-2.59375 0 -4.078125 0.515625q-1.640625 0.59375 -3.046875 2.015625q-1.40625 1.40625 -1.40625 3.625q0 1.78125 1.109375 2.90625q1.484375 1.484375 5.71875 1.625l-0.59375 1.640625q-4.375 -0.21875 -6.09375 -1.9375q-1.703125 -1.703125 -1.703125 -4.15625q0 -3.484375 2.75 -5.484375q-3.484375 0.515625 -7.125 1.03125l-0.453125 -1.703125q7.28125 -0.515625 14.625 -1.78125l0.296875 1.703125zm-1.625 5.796875q-1.640625 -1.1875 -2.828125 -1.859375l0.75 -0.890625q1.109375 0.671875 2.8125 1.859375l-0.734375 0.890625zm1.484375 -1.78125q-1.78125 -1.265625 -2.828125 -1.859375l0.75 -0.890625q1.03125 0.59375 2.8125 1.859375l-0.734375 0.890625zm10.378906 3.78125q-0.890625 0.515625 -1.84375 0.515625q-1.265625 0 -1.9375 -0.671875q-0.890625 -0.890625 -0.890625 -2.0q0 -1.1875 0.890625 -2.078125q0.890625 -0.890625 2.234375 -0.890625q0.890625 0 1.703125 0.21875l0 -1.625l-8.171875 0.515625l-0.296875 -1.5625l8.46875 -0.359375l0 -3.5l1.328125 0q0.828125 0.15625 0.15625 0.59375l0 2.828125l6.3125 -0.453125l0 1.5625l-6.3125 0.296875l0 2.828125q0.296875 1.328125 0.296875 2.96875q-0.078125 3.78125 -4.234375 6.375l-1.40625 -1.03125q3.703125 -2.15625 3.703125 -4.53125zm-1.40625 -3.859375q-0.8125 0 -1.328125 0.515625q-0.453125 0.453125 -0.453125 1.1875q0 0.671875 0.375 1.046875q0.375 0.359375 1.1875 0.359375q0.8125 0 1.328125 -0.515625q0.453125 -0.4375 0.453125 -1.109375q0 -0.671875 -0.453125 -1.109375q-0.359375 -0.375 -1.109375 -0.375zm15.5859375 5.34375q-0.890625 1.859375 -2.75 3.9375l-0.8125 -0.8125q1.859375 -2.015625 2.59375 -3.640625q0.828125 -1.78125 0.828125 -3.796875q0 -2.375 -0.828125 -4.078125q-0.734375 -1.5625 -2.59375 -3.265625l0.8125 -0.734375q1.9375 1.78125 2.75 3.484375q0.96875 2.0 0.96875 4.59375q0 2.3125 -0.96875 4.3125z" fill-rule="nonzero"></path></g></svg>

